<svg id="Capa_1" data-name="Capa 1" xmlns="http://www.w3.org/2000/svg" xmlns:xlink="http://www.w3.org/1999/xlink" viewBox="0 0 500.32 251.44"><defs><style>.cls-1{opacity:0.14;}.cls-2{fill:#17283a;}.cls-3{fill:#e2e1cf;}.cls-4{fill:#562b3e;}.cls-5{fill:#f37377;}.cls-6{fill:url(#Degradado_sin_nombre_22);}.cls-7{fill:url(#Degradado_sin_nombre_22-2);}</style><linearGradient id="Degradado_sin_nombre_22" x1="236.36" y1="1309.15" x2="253.03" y2="1387.03" gradientTransform="matrix(-1, 0, 0, 1, 1655.27, 0)" gradientUnits="userSpaceOnUse"><stop offset="0" stop-color="#502e3f"/><stop offset="0.23" stop-color="#432d3e"/><stop offset="0.65" stop-color="#21293b"/><stop offset="0.76" stop-color="#17283a"/></linearGradient><linearGradient id="Degradado_sin_nombre_22-2" x1="222.32" y1="1392.31" x2="224.13" y2="1326.48" xlink:href="#Degradado_sin_nombre_22"/></defs><polygon class="cls-1" points="500.28 158.44 395.58 97.99 395.27 98.17 394.97 97.99 394.67 98.17 394.36 97.99 394.06 98.17 393.75 97.99 393.45 98.17 393.14 97.99 392.84 98.17 392.54 97.99 392.23 98.17 391.93 97.99 391.62 98.17 391.32 97.99 391.01 98.17 390.71 97.99 390.41 98.17 390.1 97.99 389.8 98.17 389.49 97.99 389.19 98.17 388.88 97.99 388.58 98.17 388.27 97.99 387.97 98.17 387.67 97.99 387.36 98.17 387.06 97.99 386.75 98.17 386.45 97.99 386.15 98.17 385.84 97.99 385.54 98.17 385.23 97.99 384.93 98.17 384.62 97.99 384.32 98.17 384.01 97.99 383.71 98.17 383.41 97.99 383.1 98.17 382.8 97.99 382.5 98.17 382.19 97.99 381.89 98.17 381.58 97.99 381.28 98.17 380.97 97.99 380.67 98.17 380.36 97.99 380.06 98.17 379.75 97.99 379.45 98.17 379.15 97.99 378.84 98.17 378.54 97.99 378.24 98.17 377.93 97.99 377.63 98.17 377.32 97.99 377.02 98.17 376.71 97.99 376.41 98.17 376.1 97.99 375.8 98.17 375.5 97.99 375.19 98.17 374.89 97.99 374.58 98.17 374.28 97.99 373.98 98.17 373.67 97.99 373.37 98.17 373.06 97.99 372.76 98.17 372.45 97.99 372.15 98.17 371.84 97.99 371.54 98.17 371.24 97.99 370.93 98.17 370.63 97.99 370.32 98.17 370.02 97.99 369.71 98.17 369.41 97.99 369.11 98.17 368.8 97.99 368.5 98.17 368.19 97.99 367.89 98.17 367.58 97.99 367.28 98.17 366.98 97.99 366.67 98.17 366.37 97.99 366.06 98.17 365.76 97.99 365.45 98.17 365.15 97.99 364.85 98.17 364.54 97.99 364.24 98.17 363.93 97.99 363.63 98.17 363.32 97.99 363.02 98.17 362.72 97.99 362.41 98.17 362.11 97.99 361.8 98.17 361.5 97.99 361.19 98.17 360.89 97.99 360.59 98.17 360.28 97.99 359.98 98.17 359.67 97.99 359.37 98.17 359.06 97.99 358.76 98.17 358.46 97.99 358.15 98.17 357.85 97.99 357.54 98.17 357.24 97.99 356.94 98.17 356.63 97.99 356.33 98.17 356.02 97.99 355.72 98.17 355.41 97.99 355.11 98.17 354.8 97.99 354.5 98.17 354.2 97.99 353.89 98.17 353.59 97.99 353.28 98.17 352.98 97.99 352.68 98.17 352.37 97.99 352.07 98.17 351.76 97.99 351.46 98.17 351.15 97.99 350.85 98.17 350.54 97.99 350.24 98.17 349.94 97.99 349.63 98.17 349.33 97.99 349.02 98.17 348.72 97.99 348.42 98.17 348.11 97.99 347.81 98.17 347.5 97.99 347.2 98.17 346.89 97.99 346.59 98.17 346.28 97.99 345.98 98.17 345.68 97.99 345.37 98.17 345.07 97.99 344.76 98.17 344.46 97.99 344.15 98.17 343.85 97.99 343.55 98.17 343.24 97.99 342.94 98.17 342.63 97.99 342.33 98.17 342.02 97.99 341.72 98.17 341.42 97.99 341.11 98.17 340.81 97.99 340.5 98.17 340.2 97.99 339.89 98.17 339.59 97.99 339.29 98.17 338.98 97.99 338.68 98.17 338.37 97.99 338.07 98.17 337.76 97.99 337.46 98.17 337.16 97.99 336.85 98.17 336.55 97.99 336.24 98.17 335.94 97.99 335.63 98.17 335.33 97.99 335.03 98.17 334.72 97.99 334.42 98.17 334.11 97.99 333.81 98.17 333.5 97.99 333.2 98.17 332.9 97.99 332.59 98.17 332.29 97.99 331.98 98.17 331.68 97.99 331.38 98.17 331.07 97.99 330.77 98.17 330.46 97.99 330.16 98.17 329.85 97.99 329.55 98.17 329.25 97.99 328.94 98.17 328.64 97.99 328.33 98.17 328.03 97.99 327.72 98.17 327.42 97.99 327.12 98.17 326.81 97.99 326.51 98.17 326.2 97.99 325.9 98.17 325.59 97.99 325.29 98.17 324.99 97.99 324.68 98.17 324.38 97.99 324.07 98.17 323.77 97.99 323.46 98.17 323.16 97.99 322.86 98.17 322.55 97.99 322.25 98.17 321.94 97.99 298.65 111.49 286.49 97.99 286.14 98.29 285.88 97.99 285.54 98.29 285.27 97.99 284.93 98.29 284.66 97.99 284.32 98.29 284.05 97.99 283.71 98.29 283.44 97.99 283.1 98.29 282.84 97.99 282.49 98.29 282.23 97.99 281.88 98.29 281.62 97.99 281.27 98.29 281.01 97.99 280.67 98.29 280.4 97.99 280.06 98.29 279.79 97.99 279.45 98.29 279.18 97.99 278.84 98.29 278.58 97.99 278.23 98.29 277.97 97.99 277.62 98.29 277.36 97.99 277.01 98.29 276.75 97.99 276.41 98.29 276.14 97.99 275.8 98.29 275.53 97.99 275.19 98.29 274.92 97.99 274.58 98.29 274.32 97.99 273.97 98.29 273.71 97.99 273.36 98.29 273.1 97.99 272.75 98.29 272.49 97.99 272.15 98.29 271.88 97.99 271.54 98.29 271.27 97.99 270.93 98.29 270.66 97.99 270.32 98.29 270.06 97.99 269.71 98.29 269.45 97.99 269.1 98.29 268.84 97.99 268.5 98.29 268.23 97.99 267.89 98.29 267.62 97.99 267.28 98.29 267.01 97.99 266.67 98.29 266.4 97.99 266.06 98.29 265.8 97.99 265.45 98.29 265.19 97.99 264.84 98.29 264.58 97.99 264.24 98.29 263.97 97.99 263.63 98.29 263.36 97.99 263.02 98.29 262.75 97.99 262.41 98.29 262.14 97.99 261.8 98.29 261.54 97.99 261.19 98.29 260.93 97.99 260.58 98.29 260.32 97.99 259.98 98.29 259.71 97.99 259.37 98.29 259.1 97.99 258.76 98.29 258.49 97.99 258.15 98.29 257.88 97.99 257.54 98.29 257.28 97.99 256.93 98.29 256.67 97.99 256.32 98.29 256.06 97.99 255.72 98.29 255.45 97.99 255.11 98.29 254.84 97.99 254.5 98.29 254.23 97.99 253.89 98.29 253.63 97.99 253.28 98.29 253.02 97.99 252.67 98.29 252.41 97.99 252.06 98.29 251.8 97.99 251.46 98.29 251.19 97.99 250.85 98.29 250.58 97.99 250.24 98.29 249.97 97.99 249.63 98.29 249.37 97.99 249.02 98.29 248.76 97.99 248.41 98.29 248.15 97.99 247.8 98.29 247.54 97.99 247.2 98.29 246.93 97.99 246.59 98.29 246.32 97.99 245.98 98.29 245.71 97.99 245.37 98.29 245.1 97.99 244.76 98.29 244.5 97.99 244.15 98.29 243.89 97.99 243.54 98.29 243.28 97.99 242.94 98.29 242.67 97.99 242.33 98.29 242.06 97.99 241.72 98.29 241.45 97.99 241.11 98.29 240.84 97.99 240.5 98.29 240.24 97.99 239.89 98.29 239.63 97.99 239.28 98.29 239.02 97.99 238.68 98.29 238.41 97.99 238.07 98.29 237.8 97.99 237.46 98.29 237.19 97.99 236.85 98.29 236.59 97.99 236.24 98.29 235.98 97.99 235.63 98.29 235.37 97.99 235.02 98.29 234.76 97.99 234.42 98.29 234.15 97.99 233.81 98.29 233.54 97.99 233.2 98.29 232.93 97.99 232.59 98.29 232.32 97.99 231.98 98.29 231.72 97.99 231.37 98.29 231.11 97.99 230.76 98.29 230.5 97.99 230.16 98.29 229.89 97.99 229.55 98.29 229.28 97.99 228.94 98.29 228.67 97.99 228.33 98.29 228.06 97.99 227.72 98.29 227.46 97.99 227.11 98.29 226.85 97.99 226.5 98.29 226.24 97.99 225.9 98.29 225.63 97.99 225.29 98.29 225.02 97.99 224.68 98.29 224.41 97.99 224.07 98.29 223.81 97.99 223.46 98.29 223.2 97.99 222.85 98.29 222.59 97.99 222.25 98.29 221.98 97.99 221.64 98.29 221.37 97.99 221.03 98.29 220.76 97.99 220.42 98.29 220.15 97.99 219.81 98.29 219.54 97.99 219.2 98.29 218.94 97.99 218.59 98.29 218.33 97.99 217.99 98.29 217.72 97.99 217.38 98.29 217.11 97.99 216.77 98.29 216.5 97.99 216.16 98.29 215.89 97.99 215.55 98.29 215.28 97.99 214.94 98.29 214.68 97.99 214.33 98.29 214.07 97.99 213.72 98.29 213.46 97.99 213.12 98.29 212.85 97.99 199.91 109.1 179.34 97.22 179.03 97.4 178.73 97.22 178.43 97.4 178.12 97.22 177.82 97.4 177.51 97.22 177.21 97.4 176.9 97.22 176.6 97.4 176.29 97.22 175.99 97.4 175.69 97.22 175.38 97.4 175.08 97.22 174.78 97.4 174.47 97.22 174.17 97.4 173.86 97.22 173.56 97.4 173.25 97.22 172.95 97.4 172.64 97.22 172.34 97.4 172.04 97.22 171.73 97.4 171.43 97.22 171.12 97.4 170.82 97.22 170.51 97.4 170.21 97.22 169.91 97.4 169.6 97.22 169.3 97.4 168.99 97.22 168.69 97.4 168.38 97.22 168.08 97.4 167.78 97.22 167.47 97.4 167.17 97.22 166.86 97.4 166.56 97.22 166.25 97.4 165.95 97.22 165.65 97.4 165.34 97.22 165.04 97.4 164.73 97.22 164.43 97.4 164.12 97.22 163.82 97.4 163.52 97.22 163.21 97.4 162.91 97.22 162.6 97.4 162.3 97.22 162 97.4 161.69 97.22 161.39 97.4 161.08 97.22 160.78 97.4 160.47 97.22 160.17 97.4 159.86 97.22 159.56 97.4 159.26 97.22 158.95 97.4 158.65 97.22 158.34 97.4 158.04 97.22 157.74 97.4 157.43 97.22 157.13 97.4 156.82 97.22 156.52 97.4 156.21 97.22 155.91 97.4 155.6 97.22 155.3 97.4 155 97.22 154.69 97.4 154.39 97.22 154.08 97.4 153.78 97.22 153.47 97.4 153.17 97.22 152.87 97.4 152.56 97.22 152.26 97.4 151.95 97.22 151.65 97.4 151.34 97.22 151.04 97.4 150.74 97.22 150.43 97.4 150.13 97.22 149.82 97.4 149.52 97.22 149.22 97.4 148.91 97.22 148.61 97.4 148.3 97.22 148 97.4 147.69 97.22 147.39 97.4 147.08 97.22 146.78 97.4 146.48 97.22 146.17 97.4 145.87 97.22 145.56 97.4 145.26 97.22 144.96 97.4 144.65 97.22 144.35 97.4 144.04 97.22 143.74 97.4 143.43 97.22 143.13 97.4 142.82 97.22 142.52 97.4 142.22 97.22 141.91 97.4 141.61 97.22 141.3 97.4 141 97.22 140.69 97.4 140.39 97.22 140.09 97.4 139.78 97.22 139.48 97.4 139.17 97.22 138.87 97.4 138.56 97.22 138.26 97.4 137.96 97.22 137.65 97.4 137.35 97.22 137.04 97.4 136.74 97.22 136.44 97.4 136.13 97.22 135.83 97.4 135.52 97.22 135.22 97.4 134.91 97.22 134.61 97.4 134.31 97.22 134 97.4 133.7 97.22 133.39 97.4 133.09 97.22 132.78 97.4 132.48 97.22 132.18 97.4 131.87 97.22 131.57 97.4 131.26 97.22 130.96 97.4 130.65 97.22 130.35 97.4 130.04 97.22 129.74 97.4 129.44 97.22 129.13 97.4 128.83 97.22 128.52 97.4 128.22 97.22 127.92 97.4 127.61 97.22 127.31 97.4 127 97.22 126.7 97.4 126.39 97.22 126.09 97.4 125.78 97.22 125.48 97.4 125.18 97.22 124.87 97.4 124.57 97.22 124.26 97.4 123.96 97.22 123.66 97.4 123.35 97.22 123.05 97.4 122.74 97.22 122.44 97.4 122.13 97.22 121.83 97.4 121.53 97.22 121.22 97.4 120.92 97.22 120.61 97.4 120.31 97.22 120 97.4 119.7 97.22 119.4 97.4 119.09 97.22 118.79 97.4 118.48 97.22 118.18 97.4 117.87 97.22 117.57 97.4 117.27 97.22 116.96 97.4 116.66 97.22 116.35 97.4 116.05 97.22 115.74 97.4 115.44 97.22 115.14 97.4 114.83 97.22 114.53 97.4 114.22 97.22 113.92 97.4 113.61 97.22 113.31 97.4 113 97.22 112.7 97.4 112.4 97.22 112.09 97.4 111.79 97.22 111.48 97.4 111.18 97.22 110.88 97.4 110.57 97.22 110.27 97.4 109.96 97.22 109.66 97.4 109.35 97.22 109.05 97.4 108.75 97.22 108.44 97.4 108.14 97.22 107.83 97.4 107.53 97.22 107.22 97.4 106.92 97.22 106.61 97.4 106.31 97.22 106.01 97.4 105.7 97.22 0 158.5 106.03 219.72 106.28 219.57 160.14 251.44 160.45 251.27 160.75 251.44 161.06 251.27 161.36 251.44 161.67 251.27 161.97 251.44 162.28 251.27 162.58 251.44 162.88 251.27 163.19 251.44 163.49 251.27 163.79 251.44 164.1 251.27 164.4 251.44 164.71 251.27 165.01 251.44 165.32 251.27 165.62 251.44 165.93 251.27 166.23 251.44 166.54 251.27 166.84 251.44 167.15 251.27 167.45 251.44 167.75 251.27 168.05 251.44 168.36 251.27 168.66 251.44 168.97 251.27 169.27 251.44 169.58 251.27 169.88 251.44 170.19 251.27 170.49 251.44 170.8 251.27 171.1 251.44 171.41 251.27 171.71 251.44 172.01 251.27 172.31 251.44 172.62 251.27 172.92 251.44 173.23 251.27 173.53 251.44 173.84 251.27 174.14 251.44 174.45 251.27 174.75 251.44 175.06 251.27 175.36 251.44 175.66 251.27 175.97 251.44 176.27 251.27 176.57 251.44 176.88 251.27 177.18 251.44 177.49 251.27 177.79 251.44 178.1 251.27 178.4 251.44 178.71 251.27 179.01 251.44 179.32 251.27 179.62 251.44 179.92 251.27 180.23 251.44 180.53 251.27 180.83 251.44 181.14 251.27 181.44 251.44 181.75 251.27 182.05 251.44 182.36 251.27 182.66 251.44 182.97 251.27 183.27 251.44 183.58 251.27 183.88 251.44 184.18 251.27 184.49 251.44 184.79 251.27 185.09 251.44 185.4 251.27 185.7 251.44 186.01 251.27 186.31 251.44 186.62 251.27 186.92 251.44 187.23 251.27 187.53 251.44 187.84 251.27 188.14 251.44 188.44 251.27 188.75 251.44 189.05 251.27 189.35 251.44 189.66 251.27 189.96 251.44 190.27 251.27 190.57 251.44 190.88 251.27 191.18 251.44 191.49 251.27 191.79 251.44 192.1 251.27 192.4 251.44 192.7 251.27 193.01 251.44 193.31 251.27 193.61 251.44 193.92 251.27 194.22 251.44 194.53 251.27 194.83 251.44 195.14 251.27 195.44 251.44 195.75 251.27 196.05 251.44 196.36 251.27 196.66 251.44 196.96 251.27 197.27 251.44 197.57 251.27 197.87 251.44 198.18 251.27 198.48 251.44 198.79 251.27 199.09 251.44 199.4 251.27 199.7 251.44 200.01 251.27 200.31 251.44 200.62 251.27 200.92 251.44 201.22 251.27 201.53 251.44 201.83 251.27 202.13 251.44 202.44 251.27 202.74 251.44 203.05 251.27 203.35 251.44 203.66 251.27 203.96 251.44 204.27 251.27 204.57 251.44 204.88 251.27 205.18 251.44 205.48 251.27 205.79 251.44 206.09 251.27 206.39 251.44 206.7 251.27 207 251.44 207.31 251.27 207.61 251.44 207.92 251.27 208.22 251.44 208.53 251.27 208.83 251.44 209.13 251.27 209.44 251.44 209.74 251.27 210.04 251.44 210.35 251.27 210.65 251.44 210.96 251.27 211.26 251.44 211.57 251.27 211.87 251.44 212.18 251.27 212.48 251.44 212.79 251.27 213.09 251.44 213.4 251.27 213.7 251.44 214 251.27 214.31 251.44 214.61 251.27 214.91 251.44 215.22 251.27 215.52 251.44 215.83 251.27 216.13 251.44 216.44 251.27 216.74 251.44 217.05 251.27 217.35 251.44 217.66 251.27 217.96 251.44 218.26 251.27 218.56 251.44 218.87 251.27 219.17 251.44 219.48 251.27 219.78 251.44 220.09 251.27 220.39 251.44 220.7 251.27 221 251.44 221.31 251.27 221.61 251.44 221.91 251.27 222.22 251.44 222.52 251.27 222.82 251.44 223.13 251.27 223.43 251.44 223.74 251.27 224.04 251.44 224.35 251.27 224.65 251.44 224.96 251.27 225.26 251.44 225.57 251.27 225.87 251.44 226.18 251.27 226.48 251.44 226.78 251.27 227.09 251.44 227.39 251.27 227.69 251.44 228 251.27 228.3 251.44 228.61 251.27 228.91 251.44 229.22 251.27 229.52 251.44 229.83 251.27 230.13 251.44 230.44 251.27 230.74 251.44 231.04 251.27 231.34 251.44 231.65 251.27 231.95 251.44 232.26 251.27 232.56 251.44 232.87 251.27 233.17 251.44 233.48 251.27 233.78 251.44 305.95 209.53 322.26 218.95 322.57 218.78 322.87 218.95 323.18 218.78 323.48 218.95 323.79 218.78 324.09 218.95 324.39 218.78 324.7 218.95 325 218.78 325.31 218.95 325.61 218.78 325.92 218.95 326.22 218.78 326.52 218.95 326.83 218.78 327.13 218.95 327.44 218.78 327.74 218.95 328.05 218.78 328.35 218.95 328.65 218.78 328.96 218.95 329.26 218.78 329.57 218.95 329.87 218.78 330.18 218.95 330.48 218.78 330.79 218.95 331.09 218.78 331.39 218.95 331.7 218.78 332 218.95 332.31 218.78 332.61 218.95 332.92 218.78 333.22 218.95 333.52 218.78 333.83 218.95 334.13 218.78 334.44 218.95 334.74 218.78 335.05 218.95 335.35 218.78 335.65 218.95 335.96 218.78 336.26 218.95 336.57 218.78 336.87 218.95 337.17 218.78 337.48 218.95 337.78 218.78 338.09 218.95 338.39 218.78 338.7 218.95 339 218.78 339.31 218.95 339.61 218.78 339.91 218.95 340.22 218.78 340.52 218.95 340.83 218.78 341.13 218.95 341.43 218.78 341.74 218.95 342.04 218.78 342.35 218.95 342.65 218.78 342.96 218.95 343.26 218.78 343.56 218.95 343.87 218.78 344.17 218.95 344.48 218.78 344.78 218.95 345.09 218.78 345.39 218.95 345.69 218.78 346 218.95 346.3 218.78 346.61 218.95 346.91 218.78 347.22 218.95 347.52 218.78 347.82 218.95 348.13 218.78 348.43 218.95 348.74 218.78 349.04 218.95 349.35 218.78 349.65 218.95 349.95 218.78 350.26 218.95 350.56 218.78 350.87 218.95 351.17 218.78 351.48 218.95 351.78 218.78 352.08 218.95 352.39 218.78 352.69 218.95 353 218.78 353.3 218.95 353.61 218.78 353.91 218.95 354.21 218.78 354.52 218.95 354.82 218.78 355.13 218.95 355.43 218.78 355.74 218.95 356.04 218.78 356.35 218.95 356.65 218.78 356.95 218.95 357.26 218.78 357.56 218.95 357.87 218.78 358.17 218.95 358.47 218.78 358.78 218.95 359.08 218.78 359.39 218.95 359.69 218.78 360 218.95 360.3 218.78 360.61 218.95 360.91 218.78 361.21 218.95 361.52 218.78 361.82 218.95 362.13 218.78 362.43 218.95 362.73 218.78 363.04 218.95 363.34 218.78 363.65 218.95 363.95 218.78 364.26 218.95 364.56 218.78 364.87 218.95 365.17 218.78 365.47 218.95 365.78 218.78 366.08 218.95 366.38 218.78 366.69 218.95 366.99 218.78 367.3 218.95 367.6 218.78 367.91 218.95 368.21 218.78 368.52 218.95 368.82 218.78 369.13 218.95 369.43 218.78 369.73 218.95 370.04 218.78 370.34 218.95 370.65 218.78 370.95 218.95 371.25 218.78 371.56 218.95 371.86 218.78 372.17 218.95 372.47 218.78 372.78 218.95 373.08 218.78 373.38 218.95 373.69 218.78 373.99 218.95 374.3 218.78 374.6 218.95 374.91 218.78 375.21 218.95 375.51 218.78 375.82 218.95 376.12 218.78 376.43 218.95 376.73 218.78 377.04 218.95 377.34 218.78 377.64 218.95 377.95 218.78 378.25 218.95 378.56 218.78 378.86 218.95 379.17 218.78 379.47 218.95 379.77 218.78 380.08 218.95 380.38 218.78 380.69 218.95 380.99 218.78 381.3 218.95 381.6 218.78 381.9 218.95 382.21 218.78 382.51 218.95 382.82 218.78 383.12 218.95 383.43 218.78 383.73 218.95 384.03 218.78 384.34 218.95 384.64 218.78 384.95 218.95 385.25 218.78 385.56 218.95 385.86 218.78 386.17 218.95 386.47 218.78 386.77 218.95 387.08 218.78 387.38 218.95 387.69 218.78 387.99 218.95 388.29 218.78 388.6 218.95 388.9 218.78 389.21 218.95 389.51 218.78 389.82 218.95 390.12 218.78 390.43 218.95 390.73 218.78 391.03 218.95 391.34 218.78 391.64 218.95 391.94 218.78 392.25 218.95 392.55 218.78 392.86 218.95 393.16 218.78 393.47 218.95 393.77 218.78 394.08 218.95 394.38 218.78 394.69 218.95 394.99 218.78 395.29 218.95 395.6 218.78 395.9 218.95 500.28 158.44"/><polygon class="cls-2" points="343.1 187.9 233.87 251.3 233.87 222.7 343.23 159.54 343.1 187.9"/><polygon class="cls-2" points="500.19 157.9 395.8 218.31 395.8 189.71 500.32 129.54 500.19 157.9"/><polygon class="cls-3" points="233.8 251.38 73.64 158.34 73.64 129.74 233.87 222.81 233.8 251.38"/><polygon class="cls-4" points="395.8 218.51 342.82 188 342.82 159.4 395.87 189.94 395.8 218.51"/><polygon class="cls-5" points="500.28 129.8 395.58 69.36 323.93 110.89 286.49 69.36 243.92 105.87 179.34 68.59 73.64 129.87 179.67 191.09 179.92 190.94 233.78 222.81 342.66 159.58 395.9 190.32 500.28 129.8"/><polygon class="cls-4" points="181 78.75 203.73 97.96 180.41 111.43 180.68 97.65 181 78.75"/><polygon class="cls-4" points="159.58 121.94 134.6 107.67 178.75 12.2 203.73 26.47 159.58 121.94"/><polygon class="cls-4" points="199.88 0 224.86 14.28 203.73 26.47 178.75 12.2 199.88 0"/><polygon class="cls-2" points="159.58 148.52 134.6 134.25 134.6 107.67 159.58 121.94 159.58 148.52"/><polygon class="cls-2" points="203.73 144.77 178.75 130.49 178.75 108.75 203.73 123.03 203.73 144.77"/><polygon class="cls-2" points="235.81 79.44 210.82 65.16 223.35 86.94 227.55 87.15 235.81 79.44"/><polygon class="cls-2" points="203.73 97.96 178.75 83.68 203.73 61.35 203.73 97.96"/><path class="cls-3" d="M1328.55,1402l-44.16,25.49V1401l44.16-95.47,21.12-12.19v71.48l10.95-6.32v25.07l-10.95,6.32v21.74l-21.12,12.2Zm0-25.07v-36.61l-23.33,50.08Z" transform="translate(-1124.81 -1279.01)"/><polygon class="cls-4" points="397 78.75 419.73 97.96 396.4 111.43 396.68 97.65 397 78.75"/><polygon class="cls-4" points="375.58 121.94 350.6 107.67 394.75 12.2 419.73 26.47 375.58 121.94"/><polygon class="cls-4" points="415.88 0 440.86 14.28 419.73 26.47 394.75 12.2 415.88 0"/><polygon class="cls-2" points="375.58 148.52 350.6 134.25 350.6 107.67 375.58 121.94 375.58 148.52"/><polygon class="cls-2" points="419.73 144.77 394.75 130.49 394.75 108.75 419.73 123.03 419.73 144.77"/><polygon class="cls-2" points="451.81 79.44 426.82 65.16 439.35 86.94 443.55 87.15 451.81 79.44"/><polygon class="cls-2" points="419.73 97.96 394.75 83.68 419.73 61.35 419.73 97.96"/><path class="cls-3" d="M1544.55,1402l-44.16,25.49V1401l44.16-95.47,21.12-12.19v71.48l10.95-6.32v25.07l-10.95,6.32v21.74l-21.12,12.2Zm0-25.07v-36.61l-23.33,50.08Z" transform="translate(-1124.81 -1279.01)"/><path class="cls-6" d="M1372.9,1376q0,31.95,8.11,42.08a12.83,12.83,0,0,0,3.24,2.9l0,.2,21.11,12.16-2.76-7.6,3.86,2.32s.76-5,1.64-10.84c.27-.15.54-.29.81-.45a62.11,62.11,0,0,0,18-15.09,75.55,75.55,0,0,0,11.23-20.34,97.4,97.4,0,0,0,5-20.59,181.36,181.36,0,0,0,1.77-25.89,150.17,150.17,0,0,0-1.48-22.94,21.65,21.65,0,0,1,2.39-1.44c6.56-3.36,9-6.72,9-6.72l-20-11.38q-9-6.69-26.47,3.39a61.08,61.08,0,0,0-14.59,11.34,63,63,0,0,0-9.31,13,82.36,82.36,0,0,0-5.68,13.13,95.8,95.8,0,0,0-3.33,14A172.73,172.73,0,0,0,1372.9,1376Zm37.47,17.55c-.8-9.79-1.95-28.67,6.74-46.06,1.14-2.27,2.26-4.4,3.37-6.44q.11,3.67.1,7.9,0,22.42-3,32.34Q1415,1390,1410.37,1393.55Z" transform="translate(-1124.81 -1279.01)"/><path class="cls-7" d="M1423.51,1329.89s2.56-12.58,9.39-10,31.14,33.48,23.46,45.64-8.53,32.42-16.85,39.25-15.78,16.21-19.41,10-14.93-11.52-12.58-25.17S1423.51,1329.89,1423.51,1329.89Z" transform="translate(-1124.81 -1279.01)"/><path class="cls-3" d="M1464.4,1373.12a97.25,97.25,0,0,1-5,20.59,75.3,75.3,0,0,1-11.24,20.34,61.78,61.78,0,0,1-18,15.09q-19.82,11.44-27.93,1.31t-8.1-42.08a172.73,172.73,0,0,1,2.46-28.81,95.8,95.8,0,0,1,3.33-14,82.36,82.36,0,0,1,5.68-13.13,63,63,0,0,1,9.31-13,60.88,60.88,0,0,1,14.59-11.34q18.5-10.68,27.53-2.53t9,41.62A181.36,181.36,0,0,1,1464.4,1373.12Zm-25.19-40.63q-2.7-6.65-8.77-3.14t-8.92,13.19q-3,9.76-3,33.15,0,15.93,1.29,22.71t4,8.69q2.75,1.9,6.46-.24,5.64-3.27,8.62-13.19t3-32.34Q1441.91,1339.15,1439.21,1332.49Z" transform="translate(-1124.81 -1279.01)"/></svg>