<svg id="Capa_1" data-name="Capa 1" xmlns="http://www.w3.org/2000/svg" xmlns:xlink="http://www.w3.org/1999/xlink" viewBox="0 0 437.61 371.9"><defs><style>.cls-1{opacity:0.14;}.cls-2{fill:#fcb410;}.cls-3{fill:#562b3e;}.cls-4{fill:#17283a;}.cls-5{fill:#4d4d4d;}.cls-6{fill:url(#Degradado_sin_nombre_9);}.cls-7{fill:#e2e1cf;}.cls-8{fill:#f37377;}.cls-9{fill:#60354a;}</style><linearGradient id="Degradado_sin_nombre_9" x1="1494.49" y1="1668.58" x2="1612.91" y2="1744.92" gradientUnits="userSpaceOnUse"><stop offset="0.07" stop-color="#502e3f"/><stop offset="0.27" stop-color="#4c2e3f"/><stop offset="0.46" stop-color="#412c3e"/><stop offset="0.65" stop-color="#2d2a3c"/><stop offset="0.81" stop-color="#17283a"/></linearGradient></defs><polygon class="cls-1" points="437.61 304.27 427.3 298.36 308.47 229.07 308.19 229.23 307.91 229.07 307.63 229.23 307.35 229.07 307.07 229.23 306.79 229.07 306.51 229.23 306.23 229.07 305.95 229.23 305.67 229.07 305.38 229.23 305.11 229.07 304.82 229.23 304.54 229.07 304.26 229.23 303.98 229.07 303.7 229.23 303.42 229.07 303.14 229.23 302.86 229.07 302.58 229.23 302.3 229.07 302.02 229.23 301.74 229.07 301.46 229.23 301.18 229.07 300.89 229.23 300.62 229.07 300.33 229.23 300.05 229.07 299.77 229.23 299.49 229.07 299.21 229.23 298.93 229.07 298.65 229.23 298.37 229.07 298.09 229.23 297.81 229.07 297.53 229.23 297.25 229.07 296.97 229.23 296.69 229.07 296.4 229.23 296.13 229.07 295.84 229.23 295.56 229.07 295.28 229.23 295 229.07 294.72 229.23 294.44 229.07 294.16 229.23 293.88 229.07 293.6 229.23 293.32 229.07 293.04 229.23 292.76 229.07 292.48 229.23 292.2 229.07 291.92 229.23 291.64 229.07 291.35 229.23 291.07 229.07 290.79 229.23 290.51 229.07 290.23 229.23 289.95 229.07 289.67 229.23 289.39 229.07 289.11 229.23 288.83 229.07 288.55 229.23 288.27 229.07 287.99 229.23 287.71 229.07 287.43 229.23 287.15 229.07 286.86 229.23 286.58 229.07 286.3 229.23 286.02 229.07 285.74 229.23 285.46 229.07 285.18 229.23 284.9 229.07 284.62 229.23 284.34 229.07 284.06 229.23 283.78 229.07 283.5 229.23 283.22 229.07 282.94 229.23 282.66 229.07 282.37 229.23 282.1 229.07 281.81 229.23 281.53 229.07 281.25 229.23 280.97 229.07 280.69 229.23 280.41 229.07 280.13 229.23 279.85 229.07 279.57 229.23 279.29 229.07 279.01 229.23 278.73 229.07 278.44 229.23 278.17 229.07 277.88 229.23 277.61 229.07 277.32 229.23 277.04 229.07 276.76 229.23 276.48 229.07 276.2 229.23 275.92 229.07 275.64 229.23 275.36 229.07 275.08 229.23 274.8 229.07 274.52 229.23 274.24 229.07 273.96 229.23 273.68 229.07 273.39 229.23 273.12 229.07 272.83 229.23 272.55 229.07 272.27 229.23 271.99 229.07 271.71 229.23 271.43 229.07 271.15 229.23 270.87 229.07 270.59 229.23 270.31 229.07 270.03 229.23 269.75 229.07 269.47 229.23 269.19 229.07 268.9 229.23 268.63 229.07 268.34 229.23 268.06 229.07 267.78 229.23 267.5 229.07 267.22 229.23 266.94 229.07 266.66 229.23 266.38 229.07 266.1 229.23 265.82 229.07 265.54 229.23 265.26 229.07 264.98 229.23 264.7 229.07 264.42 229.23 264.13 229.07 263.85 229.23 263.57 229.07 263.29 229.23 263.01 229.07 262.73 229.23 262.45 229.07 262.17 229.23 261.89 229.07 261.61 229.23 261.33 229.07 261.05 229.23 260.77 229.07 260.49 229.23 260.21 229.07 259.93 229.23 259.64 229.07 259.36 229.23 259.08 229.07 258.8 229.23 258.52 229.07 258.24 229.23 257.96 229.07 257.68 229.23 257.4 229.07 257.12 229.23 256.84 229.07 256.56 229.23 256.28 229.07 256 229.23 255.72 229.07 255.44 229.23 255.16 229.07 254.87 229.23 254.59 229.07 254.31 229.23 254.03 229.07 253.75 229.23 253.47 229.07 253.19 229.23 252.91 229.07 252.63 229.23 252.35 229.07 252.07 229.23 251.79 229.07 251.51 229.23 251.23 229.07 250.94 229.23 250.67 229.07 250.38 229.23 250.1 229.07 249.82 229.23 249.54 229.07 249.26 229.23 248.98 229.07 248.7 229.23 248.42 229.07 248.14 229.23 247.86 229.07 247.58 229.23 247.3 229.07 247.02 229.23 246.74 229.07 246.46 229.23 246.18 229.07 245.89 229.23 245.62 229.07 245.33 229.23 245.05 229.07 244.77 229.23 244.49 229.07 244.21 229.23 243.93 229.07 243.65 229.23 243.37 229.07 243.09 229.23 242.81 229.07 242.53 229.23 242.25 229.07 241.97 229.23 241.69 229.07 241.4 229.23 241.13 229.07 240.84 229.23 240.56 229.07 210.92 246.2 184.18 231.29 183.91 231.45 183.62 231.29 183.34 231.45 183.06 231.29 182.78 231.45 182.5 231.29 182.22 231.45 181.94 231.29 181.66 231.45 181.38 231.29 181.1 231.45 180.81 231.29 180.54 231.45 180.25 231.29 179.98 231.45 179.69 231.29 179.42 231.45 179.13 231.29 178.85 231.45 178.57 231.29 178.29 231.45 178.01 231.29 177.73 231.45 177.45 231.29 177.17 231.45 176.89 231.29 176.61 231.45 176.32 231.29 176.05 231.45 175.76 231.29 175.49 231.45 175.2 231.29 174.93 231.45 174.64 231.29 174.37 231.45 174.08 231.29 173.8 231.45 173.52 231.29 173.24 231.45 172.96 231.29 172.68 231.45 172.4 231.29 172.12 231.45 171.84 231.29 171.56 231.45 171.27 231.29 171 231.45 170.71 231.29 170.44 231.45 170.15 231.29 169.88 231.45 169.59 231.29 169.31 231.45 169.03 231.29 168.75 231.45 168.47 231.29 168.19 231.45 167.91 231.29 167.63 231.45 167.34 231.29 167.07 231.45 166.78 231.29 166.51 231.45 166.22 231.29 165.95 231.45 165.66 231.29 165.38 231.45 165.1 231.29 164.82 231.45 164.54 231.29 164.26 231.45 163.98 231.29 163.7 231.45 163.42 231.29 163.14 231.45 162.85 231.29 162.58 231.45 162.29 231.29 162.02 231.45 161.73 231.29 161.46 231.45 161.17 231.29 160.9 231.45 160.61 231.29 160.33 231.45 160.05 231.29 159.77 231.45 159.49 231.29 159.21 231.45 158.93 231.29 158.65 231.45 158.37 231.29 158.09 231.45 157.8 231.29 157.53 231.45 157.24 231.29 156.97 231.45 156.68 231.29 156.41 231.45 156.12 231.29 155.84 231.45 155.56 231.29 155.28 231.45 155 231.29 154.72 231.45 154.44 231.29 154.16 231.45 153.88 231.29 153.6 231.45 153.31 231.29 153.04 231.45 152.75 231.29 152.48 231.45 152.19 231.29 151.92 231.45 151.63 231.29 151.35 231.45 151.07 231.29 150.79 231.45 150.51 231.29 150.23 231.45 149.95 231.29 149.67 231.45 149.39 231.29 149.11 231.45 148.82 231.29 148.55 231.45 148.26 231.29 147.99 231.45 147.7 231.29 147.43 231.45 147.14 231.29 146.87 231.45 146.58 231.29 146.3 231.45 146.02 231.29 145.74 231.45 145.46 231.29 145.18 231.45 144.9 231.29 144.62 231.45 144.34 231.29 144.06 231.45 143.77 231.29 143.5 231.45 143.21 231.29 142.94 231.45 142.65 231.29 142.38 231.45 142.09 231.29 141.81 231.45 141.53 231.29 141.25 231.45 140.97 231.29 140.69 231.45 140.41 231.29 140.13 231.45 139.84 231.29 139.57 231.45 139.28 231.29 139.01 231.45 138.72 231.29 138.45 231.45 138.16 231.29 137.88 231.45 137.6 231.29 137.32 231.45 137.04 231.29 136.76 231.45 136.48 231.29 136.2 231.45 135.92 231.29 135.64 231.45 135.35 231.29 135.08 231.45 134.79 231.29 134.52 231.45 134.23 231.29 133.96 231.45 133.67 231.29 133.4 231.45 133.11 231.29 132.83 231.45 132.55 231.29 132.27 231.45 131.99 231.29 131.71 231.45 131.43 231.29 131.15 231.45 130.87 231.29 130.59 231.45 130.3 231.29 130.03 231.45 129.74 231.29 129.47 231.45 129.18 231.29 128.91 231.45 128.62 231.29 128.34 231.45 128.06 231.29 127.78 231.45 127.5 231.29 127.22 231.45 126.94 231.29 126.66 231.45 126.38 231.29 126.1 231.45 125.81 231.29 125.54 231.45 125.25 231.29 124.98 231.45 124.69 231.29 124.42 231.45 124.13 231.29 123.85 231.45 123.57 231.29 123.29 231.45 123.01 231.29 122.73 231.45 122.45 231.29 122.17 231.45 121.89 231.29 121.61 231.45 121.32 231.29 121.05 231.45 120.76 231.29 120.49 231.45 120.2 231.29 119.93 231.45 119.64 231.29 119.36 231.45 119.08 231.29 118.8 231.45 118.52 231.29 118.24 231.45 117.96 231.29 117.68 231.45 117.4 231.29 117.12 231.45 116.83 231.29 116.56 231.45 116.27 231.29 0 298.21 117.97 366.9 118.26 366.74 118.54 366.9 118.82 366.74 119.1 366.9 119.38 366.74 119.66 366.9 119.94 366.74 120.22 366.9 120.5 366.74 120.78 366.9 121.06 366.74 121.34 366.9 121.62 366.74 121.9 366.9 122.18 366.74 122.47 366.9 122.75 366.74 123.03 366.9 123.31 366.74 123.59 366.9 123.87 366.74 124.15 366.9 124.43 366.74 124.71 366.9 124.99 366.74 125.27 366.9 125.55 366.74 125.83 366.9 126.11 366.74 126.39 366.9 126.67 366.74 126.95 366.9 127.23 366.74 127.52 366.9 127.8 366.74 128.08 366.9 128.36 366.74 128.64 366.9 128.92 366.74 129.2 366.9 129.48 366.74 129.76 366.9 130.04 366.74 130.32 366.9 130.6 366.74 130.88 366.9 131.16 366.74 131.44 366.9 131.72 366.74 132.01 366.9 132.29 366.74 132.57 366.9 132.85 366.74 133.13 366.9 133.41 366.74 133.69 366.9 133.97 366.74 134.25 366.9 134.53 366.74 134.81 366.9 135.09 366.74 135.37 366.9 135.65 366.74 135.93 366.9 136.22 366.74 136.5 366.9 136.78 366.74 137.06 366.9 137.34 366.74 137.62 366.9 137.9 366.74 138.18 366.9 138.46 366.74 138.74 366.9 139.02 366.74 139.3 366.9 139.58 366.74 139.86 366.9 140.14 366.74 140.42 366.9 140.71 366.74 140.99 366.9 141.27 366.74 141.55 366.9 141.83 366.74 142.11 366.9 142.39 366.74 142.67 366.9 142.95 366.74 143.23 366.9 143.51 366.74 143.79 366.9 144.07 366.74 144.35 366.9 144.63 366.74 144.91 366.9 145.19 366.74 145.47 366.9 145.76 366.74 146.04 366.9 146.32 366.74 146.6 366.9 146.88 366.74 147.16 366.9 147.44 366.74 147.72 366.9 148 366.74 148.28 366.9 148.56 366.74 148.84 366.9 149.12 366.74 149.4 366.9 149.68 366.74 149.97 366.9 150.25 366.74 150.53 366.9 150.81 366.74 151.09 366.9 151.37 366.74 151.65 366.9 151.93 366.74 152.21 366.9 152.49 366.74 152.77 366.9 153.05 366.74 153.33 366.9 153.61 366.74 153.89 366.9 154.17 366.74 154.46 366.9 154.74 366.74 155.02 366.9 155.3 366.74 155.58 366.9 155.86 366.74 156.14 366.9 156.42 366.74 156.7 366.9 156.98 366.74 157.26 366.9 157.54 366.74 157.82 366.9 158.1 366.74 158.38 366.9 158.66 366.74 158.94 366.9 159.22 366.74 159.51 366.9 159.79 366.74 160.07 366.9 160.35 366.74 160.63 366.9 160.91 366.74 161.19 366.9 161.47 366.74 161.75 366.9 162.03 366.74 162.31 366.9 162.59 366.74 162.87 366.9 163.15 366.74 163.44 366.9 163.72 366.74 164 366.9 164.28 366.74 164.56 366.9 164.84 366.74 165.12 366.9 165.4 366.74 165.68 366.9 165.96 366.74 166.24 366.9 166.52 366.74 166.8 366.9 167.08 366.74 167.36 366.9 167.64 366.74 167.93 366.9 168.21 366.74 168.49 366.9 168.77 366.74 169.05 366.9 169.33 366.74 169.61 366.9 169.89 366.74 170.17 366.9 170.45 366.74 170.73 366.9 171.01 366.74 171.29 366.9 171.57 366.74 171.85 366.9 172.13 366.74 172.41 366.9 172.69 366.74 172.98 366.9 173.26 366.74 173.54 366.9 173.82 366.74 174.1 366.9 174.38 366.74 174.66 366.9 174.94 366.74 175.22 366.9 175.5 366.74 175.78 366.9 176.06 366.74 176.34 366.9 176.62 366.74 176.9 366.9 177.19 366.74 177.47 366.9 177.75 366.74 178.03 366.9 178.31 366.74 178.59 366.9 178.87 366.74 179.15 366.9 179.43 366.74 179.71 366.9 179.99 366.74 180.27 366.9 180.55 366.74 180.83 366.9 181.11 366.74 181.39 366.9 181.68 366.74 181.96 366.9 182.24 366.74 182.52 366.9 182.8 366.74 183.08 366.9 183.36 366.74 183.64 366.9 183.92 366.74 184.2 366.9 184.48 366.74 184.76 366.9 185.04 366.74 185.32 366.9 185.6 366.74 185.88 366.9 215.63 349.57 253.52 371.26 253.8 371.1 254.08 371.26 254.36 371.1 254.64 371.26 254.92 371.1 255.2 371.26 255.48 371.1 255.76 371.26 256.04 371.1 256.32 371.26 256.6 371.1 256.88 371.26 257.17 371.1 257.45 371.26 257.73 371.1 258.01 371.26 258.29 371.1 258.57 371.26 258.85 371.1 259.13 371.26 259.41 371.1 259.69 371.26 259.97 371.1 260.25 371.26 260.53 371.1 260.81 371.26 261.09 371.1 261.38 371.26 261.65 371.1 261.94 371.26 262.22 371.1 262.5 371.26 262.78 371.1 263.06 371.26 263.34 371.1 263.62 371.26 263.9 371.1 264.18 371.26 264.46 371.1 264.74 371.26 265.02 371.1 265.3 371.26 265.58 371.1 265.87 371.26 266.14 371.1 266.43 371.26 266.71 371.1 266.99 371.26 267.27 371.1 267.55 371.26 267.83 371.1 268.11 371.26 268.39 371.1 268.67 371.26 268.95 371.1 269.23 371.26 269.51 371.1 269.79 371.26 270.07 371.1 270.36 371.26 270.63 371.1 270.92 371.26 271.2 371.1 271.48 371.26 271.76 371.1 272.04 371.26 272.32 371.1 272.6 371.26 272.88 371.1 273.16 371.26 273.44 371.1 273.72 371.26 274 371.1 274.28 371.26 274.56 371.1 274.85 371.26 275.12 371.1 275.41 371.26 275.69 371.1 275.97 371.26 276.25 371.1 276.53 371.26 276.81 371.1 277.09 371.26 277.37 371.1 277.65 371.26 277.93 371.1 278.21 371.26 278.49 371.1 278.77 371.26 279.05 371.1 279.33 371.26 279.61 371.1 279.9 371.26 280.18 371.1 280.46 371.26 280.74 371.1 281.02 371.26 281.3 371.1 281.58 371.26 281.86 371.1 282.14 371.26 282.42 371.1 282.7 371.26 282.98 371.1 283.26 371.26 283.54 371.1 283.82 371.26 284.1 371.1 284.39 371.26 284.67 371.1 284.95 371.26 285.23 371.1 285.51 371.26 285.79 371.1 286.07 371.26 286.35 371.1 286.63 371.26 286.91 371.1 287.19 371.26 287.47 371.1 287.75 371.26 288.03 371.1 288.31 371.26 288.59 371.1 288.88 371.26 289.15 371.1 289.44 371.26 289.72 371.1 290 371.26 290.28 371.1 290.56 371.26 290.84 371.1 291.12 371.26 291.4 371.1 291.68 371.26 291.96 371.1 292.24 371.26 292.52 371.1 292.8 371.26 293.08 371.1 293.37 371.26 293.64 371.1 293.93 371.26 294.21 371.1 294.49 371.26 294.77 371.1 295.05 371.26 295.33 371.1 295.61 371.26 295.89 371.1 296.17 371.26 296.45 371.1 296.73 371.26 297.01 371.1 297.29 371.26 297.57 371.1 297.86 371.26 298.13 371.1 298.42 371.26 298.7 371.1 298.98 371.26 299.26 371.1 299.54 371.26 299.82 371.1 300.1 371.26 300.38 371.1 300.66 371.26 300.94 371.1 301.22 371.26 301.5 371.1 301.78 371.26 302.06 371.1 302.35 371.26 302.63 371.1 302.91 371.26 303.19 371.1 303.47 371.26 303.75 371.1 304.03 371.26 304.31 371.1 304.59 371.26 304.87 371.1 305.15 371.26 305.43 371.1 305.71 371.26 305.99 371.1 306.27 371.26 306.55 371.1 306.83 371.26 307.12 371.1 307.4 371.26 307.68 371.1 307.96 371.26 308.24 371.1 308.52 371.26 308.8 371.1 309.08 371.26 309.36 371.1 309.64 371.26 309.92 371.1 310.2 371.26 310.48 371.1 310.76 371.26 311.04 371.1 311.32 371.26 311.61 371.1 311.89 371.26 312.17 371.1 312.45 371.26 312.73 371.1 313.01 371.26 313.29 371.1 313.57 371.26 313.85 371.1 314.13 371.26 314.41 371.1 314.69 371.26 314.97 371.1 315.25 371.26 315.53 371.1 315.81 371.26 316.09 371.1 316.38 371.26 316.66 371.1 316.94 371.26 317.22 371.1 317.5 371.26 317.78 371.1 318.06 371.26 318.34 371.1 318.62 371.26 318.9 371.1 319.18 371.26 319.46 371.1 319.74 371.26 320.02 371.1 320.31 371.26 320.58 371.1 320.87 371.26 321.14 371.1 321.43 371.26 437.61 304.27"/><polygon class="cls-2" points="359.39 255.63 240.56 186.34 177.56 222.75 116.27 188.56 0 255.49 117.97 324.18 181.37 287.22 253.52 328.53 369.7 261.55 359.39 255.63"/><polygon class="cls-3" points="0 255.49 0 297.14 118.22 366.59 118.22 324.18 0 255.49"/><polygon class="cls-4" points="63.86 224.38 63.86 192.56 101.37 202.4 63.86 224.38"/><polygon class="cls-4" points="63.86 159.71 63.86 127.89 101.37 137.73 63.86 159.71"/><polygon class="cls-3" points="26.37 77.88 63.88 55.9 164.13 113.78 126.61 135.76 26.37 77.88"/><polygon class="cls-3" points="128.43 261.66 165.94 239.68 101.37 202.4 63.86 224.38 128.43 261.66"/><polygon class="cls-3" points="63.86 159.64 122.07 193.25 159.59 171.27 101.08 138.01 63.86 159.64"/><path class="cls-4" d="M1356.69,1738l37.51-22v-34.46l-37.51,22S1356.46,1738.19,1356.69,1738Z" transform="translate(-1230.07 -1567.75)"/><polygon class="cls-4" points="159.59 171.27 122.07 193.25 122.07 226.17 159.59 204.19 159.59 171.27"/><polygon class="cls-4" points="128.43 261.66 165.94 239.68 165.94 276.23 128.43 298.21 128.43 261.66"/><polygon class="cls-4" points="316.66 231.1 278.27 253.14 278.27 193.42 316.66 171.38 316.66 231.1"/><polygon class="cls-4" points="316.66 139.39 278.27 160.72 278.27 124.46 316.66 103.13 316.66 139.39"/><polygon class="cls-5" points="240.61 70.41 240.59 70.42 240.61 70.44 240.61 70.41"/><path class="cls-5" d="M1560.24,1779.65h0l0,0Z" transform="translate(-1230.07 -1567.75)"/><path class="cls-4" d="M1611.43,1725.09q0-23.73-10.09-42.4T1571,1652.3l-62-35.79-38.18,21.25,62.1,35.78q20.34,11.74,30.46,30.48t10.13,42.55q0,24.21-10.82,31.71l38.08-21.37,0,0C1607.86,1751.87,1611.43,1741.11,1611.43,1725.09Z" transform="translate(-1230.07 -1567.75)"/><path class="cls-6" d="M1611.43,1725.09q0-23.73-10.09-42.4T1571,1652.3l-63-36.55-37.33,21.68,62.32,36.11q20.34,11.74,30.46,30.48t10.13,42.55q0,24.21-10.82,31.71l38.08-21.37,0,0C1607.86,1751.87,1611.43,1741.11,1611.43,1725.09Z" transform="translate(-1230.07 -1567.75)"/><polygon class="cls-3" points="276.14 161.43 293.2 171.38 308.84 172.09 314.53 160.01 304.06 146.18 276.14 161.43"/><path class="cls-7" d="M1470.68,1637.6l62.24,35.94q20.34,11.74,30.46,30.48t10.13,42.55q0,24.47-11,31.87t-33.69-5.67l-20.5-11.83v60l-37.61-21.71Zm37.61,90.6,9.18,5.3q10.83,6.26,15.21,3.77t4.38-10.31a32.94,32.94,0,0,0-3.81-15.09q-3.8-7.5-14.3-13.55l-10.66-6.16Z" transform="translate(-1230.07 -1567.75)"/><polygon class="cls-3" points="131.3 98.32 248.3 30.72 277.86 48 159.53 116.52 131.3 98.32"/><polygon class="cls-4" points="118.22 366.59 181.37 330.49 181.37 287.22 117.97 324.18 118.22 366.59"/><polygon class="cls-4" points="369.54 261.55 369.54 304.91 253.42 371.9 253.42 328.53 369.54 261.55"/><polygon class="cls-8" points="253.42 371.9 181.37 330.49 181.37 287.22 253.42 328.36 253.42 371.9"/><polygon class="cls-8" points="197.47 94.43 197.47 63.34 167.61 46.16 167.61 77.66 197.47 94.43"/><polygon class="cls-3" points="167.61 46.16 248.68 0 277.93 16.98 197.17 63.44 167.61 46.16"/><path class="cls-4" d="M1427.55,1662.18l80.31-46.77v-30.82l-80.18,47.05S1428,1662.18,1427.55,1662.18Z" transform="translate(-1230.07 -1567.75)"/><path class="cls-4" d="M1356.69,1738l114.06-66.54-.25-35-113.81,67.08S1356.46,1738.19,1356.69,1738Z" transform="translate(-1230.07 -1567.75)"/><path class="cls-7" d="M1256.44,1645.63l100.25,57.88V1738l-62.76-36.23v25.65l58.22,33.61v32.92l-58.22-33.61v31.82l64.57,37.28V1866L1256.44,1807Z" transform="translate(-1230.07 -1567.75)"/><polygon class="cls-3" points="142.4 232.22 197.34 200.08 215.34 210.61 156.15 245.46 142.4 232.22"/><path class="cls-4" d="M1390.42,1847.3l54.89-32.22.1-36.72-50.86,29.94S1390.29,1847.43,1390.42,1847.3Z" transform="translate(-1230.07 -1567.75)"/><polygon class="cls-3" points="224.88 283.63 252.84 299.61 279.43 284.27 252.09 268.39 224.88 283.63"/><polygon class="cls-9" points="225.29 283.73 188.51 226.05 215.13 210.34 252.19 268.28 225.29 283.73"/><polygon class="cls-7" points="188.54 262.86 188.75 226.29 225.29 283.73 188.54 262.86"/><polygon class="cls-4" points="252.09 268.49 252.9 299.58 225.29 283.73 252.09 268.49"/></svg>