<svg id="Capa_1" data-name="Capa 1" 
    xmlns="http://www.w3.org/2000/svg" viewBox="0 0 390.78 278.3">
    <path d="M328.48,689.34,206.91,759.53,323.79,827l121.57-70.19Zm25.61,99.44-29.63-17.11-34.21,19.75L268.56,778.9l34.21-19.75L273.14,742l25.05-14.46,29.62,17.11L362,724.94l21.7,12.52-34.21,19.75,29.62,17.11Z" transform="translate(-206.91 -689.34)"/>
    <path d="M207,759.78V900.16l116.89,67.48V827.27ZM296.7,919.36a14.75,14.75,0,0,1-11.32,5.42q-6.76.12-17.22-5.91A77,77,0,0,1,247.45,902q-8-9.56-13.87-25.29a100.13,100.13,0,0,1-5.84-35q0-25.73,10.27-33.62t29,3a67.17,67.17,0,0,1,23.1,21.26q8.19,12.45,12.28,30.59L279,849.33a35.17,35.17,0,0,0-4.82-8.26,23.14,23.14,0,0,0-6.53-5.75q-8.16-4.71-12.52,1.53-3.29,4.6-3.28,18.52,0,17.24,3.92,25.9a27.13,27.13,0,0,0,11,12.76q6.9,4,10.43.85a12.1,12.1,0,0,0,2.81-4l23.2,13.39C301.8,910.91,299.63,916,296.7,919.36Z" transform="translate(-206.91 -689.34)"/>
    <path d="M355,844.56l22.81-13.16q7.44-4.3,11.16-1.72t3.71,11.3a33.42,33.42,0,0,1-4.05,16.35,31.61,31.61,0,0,1-12.34,12.17l-7.51,4.34v22l-13.78,8Zm13.78,17.28,3.36-1.94a14.67,14.67,0,0,0,5.58-5,11.08,11.08,0,0,0,1.6-5.63c0-1.86-.46-3.17-1.39-3.92s-2.68-.4-5.24,1.08l-3.91,2.26Z" transform="translate(-206.91 -689.34)"/>
    <path d="M399.89,818.67l13.72-7.92v44.62L435,843v14.57l-35.13,20.28Z" transform="translate(-206.91 -689.34)"/>
    <path d="M468.54,779l13.69-7.9V806.4A47.36,47.36,0,0,1,481,817a42.68,42.68,0,0,1-3.84,10.37,36.72,36.72,0,0,1-5.5,8.08,41.19,41.19,0,0,1-9.6,7.52,62.9,62.9,0,0,1-7.07,3.48,13.06,13.06,0,0,1-6.4,1.29,8,8,0,0,1-4.71-2.38,10.68,10.68,0,0,1-2.92-5.14,36.92,36.92,0,0,1-1.28-9.27V795.7l13.69-7.91V823.9q0,4.85,2,6.4t5.58-.5a14.26,14.26,0,0,0,5.56-5.89,18.68,18.68,0,0,0,2-8.77Z" transform="translate(-206.91 -689.34)"/>
    <path d="M488.92,806.88,502,798.25c.29,2.67.86,4.49,1.73,5.47q2.12,2.37,6.06.09a12,12,0,0,0,4.52-4.45,10.41,10.41,0,0,0,1.59-5.18,3.51,3.51,0,0,0-1.51-3.24q-1.51-.95-7,.62-9,2.51-12.87.25t-3.87-9.19a27.57,27.57,0,0,1,2-9.77,32.9,32.9,0,0,1,6-9.82,41.65,41.65,0,0,1,10.91-8.62q8.52-4.92,13-3.28t5.32,10.36L514.81,770q-.51-3.69-2.16-4.56c-1.1-.58-2.62-.3-4.56.81a9.79,9.79,0,0,0-3.6,3.44,7.82,7.82,0,0,0-1.21,4,2,2,0,0,0,1,2c.64.41,2.18.25,4.6-.47q9-2.61,12.88-2.21a7,7,0,0,1,5.67,3.29A14.74,14.74,0,0,1,529.2,784a33.22,33.22,0,0,1-2.36,11.86,37.71,37.71,0,0,1-6.6,11.1,40.8,40.8,0,0,1-10.69,8.65q-11.34,6.54-15.69,3.25T488.92,806.88Z" transform="translate(-206.91 -689.34)"/>
    <path d="M370.58,942.81l6.81-1.18a32.12,32.12,0,0,1-2.16,7.63,23.58,23.58,0,0,1-3.66,6,20.94,20.94,0,0,1-5.57,4.52c-2.74,1.58-5,2.34-6.71,2.28s-3.23-1-4.49-3-1.88-5-1.88-9.15a31.4,31.4,0,0,1,3.32-14.72,23.78,23.78,0,0,1,9.39-9.89c3.17-1.83,5.67-2.42,7.48-1.76s3.16,2.51,4,5.54l-6.86,6a5.23,5.23,0,0,0-.76-1.8,2.25,2.25,0,0,0-1.6-.91,3.59,3.59,0,0,0-2.11.57,9.76,9.76,0,0,0-4.05,5.18,20.2,20.2,0,0,0-1.06,7.22q0,5.58,1.27,6.91t3.57,0a8.31,8.31,0,0,0,3.37-3.62A20.08,20.08,0,0,0,370.58,942.81Z" transform="translate(-206.91 -689.34)"/>
    <path d="M380.19,934.24a31.35,31.35,0,0,1,3.43-14.77,24.48,24.48,0,0,1,9.56-10.1q6.29-3.63,9.69-1.09t3.39,10.63a34.29,34.29,0,0,1-1.48,10.51,27.76,27.76,0,0,1-4.29,8.33,23,23,0,0,1-7,6.14q-4.25,2.46-7,2.26a5.67,5.67,0,0,1-4.53-3.11C380.77,941.1,380.19,938.16,380.19,934.24ZM388,929.8q0,5.09,1.41,6.48c.95.94,2.23.94,3.86,0a9.6,9.6,0,0,0,3.88-4.42c.91-2,1.37-4.84,1.37-8.59q0-4.74-1.43-6.1c-1-.9-2.26-.89-3.89.06a9.49,9.49,0,0,0-3.78,4.4A19.52,19.52,0,0,0,388,929.8Z" transform="translate(-206.91 -689.34)"/>
    <path d="M410.45,900l7.78-4.49v25.29l12.13-7V922l-19.91,11.49Z" transform="translate(-206.91 -689.34)"/>
    <path d="M433.9,886.43l7.78-4.49v25.3l12.13-7v8.26L433.9,920Z" transform="translate(-206.91 -689.34)"/>
    <path d="M457.33,872.91l20.84-12V868l-13.05,7.53v5.33l12.11-7v6.84l-12.11,7v6.61l13.43-7.75v7.6l-21.22,12.25Z" transform="translate(-206.91 -689.34)"/>
    <path d="M499.49,868.39l6.81-1.19a32.46,32.46,0,0,1-2.16,7.63,23.64,23.64,0,0,1-3.66,6,21.14,21.14,0,0,1-5.57,4.52c-2.74,1.58-5,2.34-6.71,2.28s-3.23-1.06-4.49-3-1.88-5-1.88-9.16a31.36,31.36,0,0,1,3.32-14.71,23.86,23.86,0,0,1,9.39-9.9c3.17-1.83,5.67-2.41,7.48-1.75s3.16,2.5,4,5.54l-6.86,6a5.21,5.21,0,0,0-.76-1.81,2.28,2.28,0,0,0-1.6-.91,3.6,3.6,0,0,0-2.11.58,9.73,9.73,0,0,0-4.05,5.17,20.2,20.2,0,0,0-1.06,7.22q0,5.58,1.27,6.92t3.57,0a8.28,8.28,0,0,0,3.37-3.61A20.18,20.18,0,0,0,499.49,868.39Z" transform="translate(-206.91 -689.34)"/>
    <path d="M508.31,843.47,532,829.83v8.28L524,842.69V868l-7.78,4.49V847.18l-7.93,4.58Z" transform="translate(-206.91 -689.34)"/>
    <path d="M535.78,827.62l7.79-4.5v33.55l-7.79,4.5Z" transform="translate(-206.91 -689.34)"/>
    <path d="M546.67,821.32l8.13-4.69,5.67,20.88,5.59-27.38,7.89-4.55-9.34,38.94-8.43,4.87Z" transform="translate(-206.91 -689.34)"/>
    <path d="M576.47,804.12l20.84-12v7.16l-13,7.53v5.34l12.1-7V812l-12.1,7v6.61l13.42-7.75v7.6l-21.22,12.25Z" transform="translate(-206.91 -689.34)"/>
</svg>