<svg id="Capa_1" data-name="Capa 1" 
    xmlns="http://www.w3.org/2000/svg" 
    xmlns:xlink="http://www.w3.org/1999/xlink" viewBox="0 0 784.96 607.84">
    <defs>
        <style>.cls-1{opacity:0.14;}.cls-2{fill:#fac903;}.cls-3{fill:#17283a;}.cls-4{fill:#f37377;}.cls-5{fill:url(#Degradado_sin_nombre_85);}.cls-6{fill:url(#Degradado_sin_nombre_83);}.cls-7{fill:#562b3e;}.cls-8{fill:#502e3f;}.cls-9{fill:#e2e1cf;}.cls-10{fill:url(#Degradado_sin_nombre_85-2);}.cls-11{fill:url(#Degradado_sin_nombre_82);}.cls-12{fill:#999;}.cls-13{fill:url(#Degradado_sin_nombre_78);}.cls-14{fill:url(#Degradado_sin_nombre_81);}.cls-15{fill:url(#Degradado_sin_nombre_79);}.cls-16{fill:#4d4d4d;}.cls-17{fill:url(#Degradado_sin_nombre_92);}.cls-18{fill:url(#Degradado_sin_nombre_91);}.cls-19{fill:url(#Degradado_sin_nombre_89);}.cls-20{fill:url(#Degradado_sin_nombre_90);}</style>
        <linearGradient id="Degradado_sin_nombre_85" x1="3177.37" y1="1677.85" x2="3267.81" y2="1677.85" gradientUnits="userSpaceOnUse">
            <stop offset="0.24" stop-color="#17283a"/>
            <stop offset="0.51" stop-color="#372a3c"/>
            <stop offset="0.76" stop-color="#4e2b3d"/>
            <stop offset="0.92" stop-color="#562b3e"/>
        </linearGradient>
        <linearGradient id="Degradado_sin_nombre_83" x1="3176.02" y1="1691.11" x2="3247.56" y2="1691.11" gradientUnits="userSpaceOnUse">
            <stop offset="0.08" stop-color="#562b3e"/>
            <stop offset="0.29" stop-color="#4e2b3d"/>
            <stop offset="0.63" stop-color="#372a3c"/>
            <stop offset="1" stop-color="#17283a"/>
        </linearGradient>
        <linearGradient id="Degradado_sin_nombre_85-2" x1="3267.95" y1="1653.51" x2="3334.59" y2="1653.51" xlink:href="#Degradado_sin_nombre_85"/>
        <linearGradient id="Degradado_sin_nombre_82" x1="3247.81" y1="1716.34" x2="3356.86" y2="1716.34" gradientUnits="userSpaceOnUse">
            <stop offset="0.08" stop-color="#562b3e"/>
            <stop offset="0.23" stop-color="#4e2b3d"/>
            <stop offset="0.47" stop-color="#372a3c"/>
            <stop offset="0.74" stop-color="#17283a"/>
        </linearGradient>
        <linearGradient id="Degradado_sin_nombre_78" x1="3348.75" y1="1864.77" x2="3658.77" y2="1864.77" gradientUnits="userSpaceOnUse">
            <stop offset="0.6" stop-color="#562b3e"/>
            <stop offset="0.69" stop-color="#3a2a3c"/>
            <stop offset="0.79" stop-color="#21283b"/>
            <stop offset="0.85" stop-color="#17283a"/>
        </linearGradient>
        <linearGradient id="Degradado_sin_nombre_81" x1="3514.47" y1="1820.34" x2="3607.1" y2="1820.34" gradientUnits="userSpaceOnUse">
            <stop offset="0.15" stop-color="#17283a"/>
            <stop offset="0.29" stop-color="#21283b"/>
            <stop offset="0.54" stop-color="#3a2a3c"/>
            <stop offset="0.75" stop-color="#562b3e"/>
        </linearGradient>
        <linearGradient id="Degradado_sin_nombre_79" x1="3514.48" y1="1833.87" x2="3586.03" y2="1833.87" gradientUnits="userSpaceOnUse">
            <stop offset="0.43" stop-color="#562b3e"/>
            <stop offset="0.58" stop-color="#3a2a3c"/>
            <stop offset="0.75" stop-color="#21283b"/>
            <stop offset="0.85" stop-color="#17283a"/>
        </linearGradient>
        <linearGradient id="Degradado_sin_nombre_92" x1="2889.18" y1="1440.24" x2="2993.99" y2="1545.81" gradientUnits="userSpaceOnUse">
            <stop offset="0.43" stop-color="#562b3e"/>
            <stop offset="0.53" stop-color="#532b3e"/>
            <stop offset="0.62" stop-color="#482a3d"/>
            <stop offset="0.71" stop-color="#36293c"/>
            <stop offset="0.79" stop-color="#1d283a"/>
            <stop offset="0.81" stop-color="#17283a"/>
        </linearGradient>
        <linearGradient id="Degradado_sin_nombre_91" x1="3267.27" y1="1498.72" x2="3300.91" y2="1543.06" gradientUnits="userSpaceOnUse">
            <stop offset="0.22" stop-color="#17283a"/>
            <stop offset="0.25" stop-color="#1d283a"/>
            <stop offset="0.37" stop-color="#36293c"/>
            <stop offset="0.5" stop-color="#482a3d"/>
            <stop offset="0.64" stop-color="#532b3e"/>
            <stop offset="0.8" stop-color="#562b3e"/>
        </linearGradient>
        <linearGradient id="Degradado_sin_nombre_89" x1="3272.23" y1="1454.64" x2="3355.48" y2="1557.44" gradientUnits="userSpaceOnUse">
            <stop offset="0.02" stop-color="#17283a"/>
            <stop offset="0.12" stop-color="#1f283b"/>
            <stop offset="0.27" stop-color="#35293c"/>
            <stop offset="0.44" stop-color="#562b3e"/>
            <stop offset="0.75" stop-color="#2c293b"/>
            <stop offset="0.95" stop-color="#17283a"/>
        </linearGradient>
        <linearGradient id="Degradado_sin_nombre_90" x1="3282.02" y1="1411.46" x2="3352" y2="1496.04" gradientUnits="userSpaceOnUse">
            <stop offset="0.2" stop-color="#562b3e"/>
            <stop offset="0.36" stop-color="#532b3e"/>
            <stop offset="0.5" stop-color="#482a3d"/>
            <stop offset="0.63" stop-color="#36293c"/>
            <stop offset="0.75" stop-color="#1d283a"/>
            <stop offset="0.78" stop-color="#17283a"/>
        </linearGradient>
    </defs>
    <path class="cls-1" d="M3656.4,1891.24c-1.35-7.1-5.06-12.88-10.11-17.91-4.54-4.52-10-7.7-15.5-10.86q-63.42-36.6-126.82-73.23l-2.23-1.22,3.06-1.76,44-25.32c.49-.28,1-.57,1.63-1-.46-.3-.76-.52-1.08-.71-5.91-3.45-11.84-6.88-17.74-10.35a1.67,1.67,0,0,0-1.32-.24,1.47,1.47,0,0,0-.75,0,1.47,1.47,0,0,0-.75,0,1.51,1.51,0,0,0-.47-.05l1.2-1.16-1.87,1.09,1.12-1.09-1.87,1.09,1.13-1.09-1.87,1.09,1.12-1.09-1.87,1.09,1.12-1.09-1.87,1.09,1.13-1.09-1.87,1.09,1.12-1.09-1.87,1.09,1.12-1.09-1.87,1.09,1.13-1.09-1.87,1.09,1.12-1.09-1.87,1.09,1.12-1.09-1.87,1.09,1.13-1.09-1.87,1.09,1.12-1.09-1.87,1.09,1.12-1.09-1.87,1.09,1.13-1.09-1.87,1.09,1.12-1.09-1.87,1.09,1.12-1.09-1.87,1.09,1.13-1.09-1.87,1.09,1.12-1.09-1.87,1.09,1.12-1.09-1.86,1.09,1.12-1.09-1.87,1.09,1.12-1.09-1.87,1.09,1.12-1.09-1.86,1.09,1.12-1.09-1.87,1.09,1.12-1.09-1.87,1.09,1.13-1.09-1.87,1.09,1.12-1.09-1.87,1.09,1.12-1.09-1.87,1.09,1.13-1.09-1.87,1.09,1.12-1.09-1.87,1.09,1.12-1.09-1.87,1.09,1.13-1.09-1.87,1.09,1.12-1.09-1.87,1.09,1.12-1.09-1.87,1.09,1.13-1.09-1.87,1.09,1.12-1.09-1.87,1.09,1.12-1.09-1.87,1.09,1.13-1.09-1.87,1.09,1.12-1.09-1.87,1.09,1.12-1.09-1.87,1.09,1.13-1.09-1.87,1.09,1.12-1.09-1.87,1.09,1.12-1.09-1.87,1.09,1.13-1.09-1.87,1.09,1.12-1.09-1.87,1.09,1.12-1.09-1.86,1.09,1.12-1.09-1.87,1.09,1.12-1.09-1.87,1.09,1.12-1.09-1.86,1.09,1.12-1.09-1.87,1.09,1.12-1.09-1.87,1.09,1.13-1.09-1.87,1.09,1.12-1.09-1.87,1.09,1.12-1.09-1.87,1.09,1.13-1.09-1.87,1.09,1.12-1.09-1.87,1.09,1.12-1.09-1.87,1.09,1.13-1.09-1.87,1.09,1.12-1.09-1.87,1.09,1.12-1.09-1.87,1.09,1.13-1.09-1.87,1.09,1.12-1.09-1.87,1.09,1.12-1.09-1.87,1.09,1.13-1.09-1.87,1.09,1.12-1.09-1.87,1.09,1.12-1.09-1.87,1.09,1.13-1.09-1.87,1.09,1.12-1.09-1.87,1.09,1.12-1.09-1.87,1.09,1.13-1.09-1.87,1.09,1.12-1.09-1.87,1.09,1.12-1.09-1.86,1.09,1.12-1.09-1.87,1.09,1.12-1.09-1.87,1.09,1.12-1.09-1.86,1.09,1.12-1.09-1.87,1.09,1.12-1.09-1.87,1.09,1.12-1.09-1.86,1.09,1.12-1.09-1.87,1.09,1.12-1.09-1.87,1.09,1.13-1.09-1.87,1.09,1.12-1.09-1.87,1.09,1.12-1.09-1.87,1.09,1.13-1.09-1.87,1.09,1.12-1.09-1.87,1.09.1-.1,12.34-7.1L3485,1737c-.67-.42-1.1-.7-1.54-1-5.64-3.28-11.29-6.54-16.91-9.86a2.4,2.4,0,0,0-1.76-.39,1.89,1.89,0,0,0-.75,0,1.84,1.84,0,0,0-.74,0,1.89,1.89,0,0,0-.75,0,1.89,1.89,0,0,0-.75,0,1.84,1.84,0,0,0-.74,0,1.89,1.89,0,0,0-.75,0,1.84,1.84,0,0,0-.74,0,1.89,1.89,0,0,0-.75,0,1.89,1.89,0,0,0-.75,0,1.84,1.84,0,0,0-.74,0,1.89,1.89,0,0,0-.75,0,1.89,1.89,0,0,0-.75,0,1.84,1.84,0,0,0-.74,0,1.89,1.89,0,0,0-.75,0,1.89,1.89,0,0,0-.75,0,1.84,1.84,0,0,0-.74,0,1.89,1.89,0,0,0-.75,0,1.89,1.89,0,0,0-.75,0,1.84,1.84,0,0,0-.74,0,1.89,1.89,0,0,0-.75,0,1.89,1.89,0,0,0-.75,0,1.84,1.84,0,0,0-.74,0,1.89,1.89,0,0,0-.75,0,1.89,1.89,0,0,0-.75,0,1.84,1.84,0,0,0-.74,0,1.89,1.89,0,0,0-.75,0,1.89,1.89,0,0,0-.75,0,1.84,1.84,0,0,0-.74,0,1.89,1.89,0,0,0-.75,0,1.89,1.89,0,0,0-.75,0,1.84,1.84,0,0,0-.74,0,1.89,1.89,0,0,0-.75,0,1.84,1.84,0,0,0-.74,0,1.89,1.89,0,0,0-.75,0,1.89,1.89,0,0,0-.75,0,1.84,1.84,0,0,0-.74,0,1.89,1.89,0,0,0-.75,0,1.89,1.89,0,0,0-.75,0,1.84,1.84,0,0,0-.74,0,1.89,1.89,0,0,0-.75,0,1.89,1.89,0,0,0-.75,0,1.84,1.84,0,0,0-.74,0,1.89,1.89,0,0,0-.75,0,1.89,1.89,0,0,0-.75,0,1.84,1.84,0,0,0-.74,0,1.89,1.89,0,0,0-.75,0,1.89,1.89,0,0,0-.75,0,1.84,1.84,0,0,0-.74,0,1.89,1.89,0,0,0-.75,0,1.89,1.89,0,0,0-.75,0,1.84,1.84,0,0,0-.74,0,1.89,1.89,0,0,0-.75,0,1.89,1.89,0,0,0-.75,0,1.84,1.84,0,0,0-.74,0,1.89,1.89,0,0,0-.75,0,1.89,1.89,0,0,0-.75,0,1.84,1.84,0,0,0-.74,0,1.89,1.89,0,0,0-.75,0,1.84,1.84,0,0,0-.74,0,1.89,1.89,0,0,0-.75,0,1.89,1.89,0,0,0-.75,0,1.84,1.84,0,0,0-.74,0,1.89,1.89,0,0,0-.75,0,1.89,1.89,0,0,0-.75,0,1.84,1.84,0,0,0-.74,0,1.89,1.89,0,0,0-.75,0,1.89,1.89,0,0,0-.75,0,1.84,1.84,0,0,0-.74,0,1.89,1.89,0,0,0-.75,0,1.89,1.89,0,0,0-.75,0,1.84,1.84,0,0,0-.74,0,1.89,1.89,0,0,0-.75,0,1.89,1.89,0,0,0-.75,0,1.84,1.84,0,0,0-.74,0,1.89,1.89,0,0,0-.75,0,1.89,1.89,0,0,0-.75,0,1.84,1.84,0,0,0-.74,0,1.89,1.89,0,0,0-.75,0,1.89,1.89,0,0,0-.75,0,1.84,1.84,0,0,0-.74,0,1.89,1.89,0,0,0-.75,0,1.89,1.89,0,0,0-.75,0,1.84,1.84,0,0,0-.74,0,1.89,1.89,0,0,0-.75,0,1.89,1.89,0,0,0-.75,0,1.84,1.84,0,0,0-.74,0,1.89,1.89,0,0,0-.75,0,1.84,1.84,0,0,0-.74,0,1.89,1.89,0,0,0-.75,0,1.89,1.89,0,0,0-.75,0,1.84,1.84,0,0,0-.74,0,1.89,1.89,0,0,0-.75,0,1.89,1.89,0,0,0-.75,0,1.84,1.84,0,0,0-.74,0,1.89,1.89,0,0,0-.75,0,1.89,1.89,0,0,0-.75,0,1.84,1.84,0,0,0-.74,0,1.89,1.89,0,0,0-.75,0,1.89,1.89,0,0,0-.75,0,1.84,1.84,0,0,0-.74,0,2.45,2.45,0,0,0-1.72.36q-20.39,11.71-40.8,23.4a53.75,53.75,0,0,0-12.92-8.16,62.59,62.59,0,0,0-22.65-5.76c-2-.14-3.89-.19-5.81-.17h-74.66a74.7,74.7,0,0,0-19.22,2.54l-.25,0a1.72,1.72,0,0,0-.75,0,1.68,1.68,0,0,0-.74,0,1.72,1.72,0,0,0-.75,0,1.72,1.72,0,0,0-.75,0,1.68,1.68,0,0,0-.74,0,1.72,1.72,0,0,0-.75,0,1.72,1.72,0,0,0-.75,0,1.68,1.68,0,0,0-.74,0,1.36,1.36,0,0,0-.57,0c-.46-.31-.91-.63-1.35-1a7.74,7.74,0,0,1-2.34-2.91,1.2,1.2,0,0,0,.2,0,1.72,1.72,0,0,0,.75,0,1.72,1.72,0,0,0,.75,0,1.68,1.68,0,0,0,.74,0,1.72,1.72,0,0,0,.75,0,1.72,1.72,0,0,0,.75,0,1.68,1.68,0,0,0,.74,0,1.72,1.72,0,0,0,.75,0,1.72,1.72,0,0,0,.75,0,1.68,1.68,0,0,0,.74,0,1.72,1.72,0,0,0,.75,0,1.72,1.72,0,0,0,.75,0,1.68,1.68,0,0,0,.74,0,1.72,1.72,0,0,0,.75,0,1.68,1.68,0,0,0,.74,0,1.72,1.72,0,0,0,.75,0,1.72,1.72,0,0,0,.75,0,1.68,1.68,0,0,0,.74,0,1.72,1.72,0,0,0,.75,0,1.72,1.72,0,0,0,.75,0,1.68,1.68,0,0,0,.74,0,1.72,1.72,0,0,0,.75,0,1.72,1.72,0,0,0,.75,0,1.68,1.68,0,0,0,.74,0,1.72,1.72,0,0,0,.75,0,1.72,1.72,0,0,0,.75,0,1.68,1.68,0,0,0,.74,0,1.72,1.72,0,0,0,.75,0,1.72,1.72,0,0,0,.75,0,1.68,1.68,0,0,0,.74,0,1.72,1.72,0,0,0,.75,0,1.72,1.72,0,0,0,.75,0,1.68,1.68,0,0,0,.74,0,1.72,1.72,0,0,0,.75,0,1.72,1.72,0,0,0,.75,0,1.68,1.68,0,0,0,.74,0,1.72,1.72,0,0,0,.75,0,1.72,1.72,0,0,0,.75,0,1.68,1.68,0,0,0,.74,0,1.72,1.72,0,0,0,.75,0,1.68,1.68,0,0,0,.74,0,1.72,1.72,0,0,0,.75,0,1.72,1.72,0,0,0,.75,0,1.68,1.68,0,0,0,.74,0,1.72,1.72,0,0,0,.75,0,1.72,1.72,0,0,0,.75,0,1.68,1.68,0,0,0,.74,0,1.72,1.72,0,0,0,.75,0,1.72,1.72,0,0,0,.75,0,1.68,1.68,0,0,0,.74,0,1.72,1.72,0,0,0,.75,0,1.72,1.72,0,0,0,.75,0,1.68,1.68,0,0,0,.74,0,1.72,1.72,0,0,0,.75,0,1.72,1.72,0,0,0,.75,0,1.68,1.68,0,0,0,.74,0,1.72,1.72,0,0,0,.75,0,1.72,1.72,0,0,0,.75,0,1.68,1.68,0,0,0,.74,0,1.72,1.72,0,0,0,.75,0,1.72,1.72,0,0,0,.75,0,1.68,1.68,0,0,0,.74,0,1.72,1.72,0,0,0,.75,0,1.72,1.72,0,0,0,.75,0,1.68,1.68,0,0,0,.74,0,1.72,1.72,0,0,0,.75,0,1.72,1.72,0,0,0,.75,0,1.68,1.68,0,0,0,.74,0,1.72,1.72,0,0,0,.75,0,1.68,1.68,0,0,0,.74,0,1.72,1.72,0,0,0,.75,0,1.72,1.72,0,0,0,.75,0,1.68,1.68,0,0,0,.74,0,1.72,1.72,0,0,0,.75,0,1.72,1.72,0,0,0,.75,0,1.68,1.68,0,0,0,.74,0,1.72,1.72,0,0,0,.75,0,1.72,1.72,0,0,0,.75,0,1.68,1.68,0,0,0,.74,0,1.72,1.72,0,0,0,.75,0,1.72,1.72,0,0,0,.75,0,1.68,1.68,0,0,0,.74,0,1.72,1.72,0,0,0,.75,0,1.72,1.72,0,0,0,.75,0,1.68,1.68,0,0,0,.74,0,1.72,1.72,0,0,0,.75,0,1.72,1.72,0,0,0,.75,0,1.68,1.68,0,0,0,.74,0,1.72,1.72,0,0,0,.75,0,1.72,1.72,0,0,0,.75,0,1.68,1.68,0,0,0,.74,0,1.72,1.72,0,0,0,.75,0,1.72,1.72,0,0,0,.75,0,1.68,1.68,0,0,0,.74,0,1.72,1.72,0,0,0,.75,0,1.68,1.68,0,0,0,.74,0,1.72,1.72,0,0,0,.75,0,1.48,1.48,0,0,0,1.59-.59,29.9,29.9,0,0,0,5.3-7.82,12.57,12.57,0,0,0-2.15-14.1,40.51,40.51,0,0,0-11.29-8.64,61.36,61.36,0,0,0-24.67-7.69c-2-.18-4-.26-6-.28h-74.65a76.92,76.92,0,0,0-35,8.13,80,80,0,0,0-19.14,12.3c-.75.68-1.46,1.38-2.13,2.11a2.1,2.1,0,0,0-.56,0,2.3,2.3,0,0,0-.74,0,2.36,2.36,0,0,0-.75,0,2.36,2.36,0,0,0-.75,0,2.3,2.3,0,0,0-.74,0,2.36,2.36,0,0,0-.75,0,2.36,2.36,0,0,0-.75,0,2.3,2.3,0,0,0-.74,0,2.36,2.36,0,0,0-.75,0,2.36,2.36,0,0,0-.75,0,2.3,2.3,0,0,0-.74,0,2.36,2.36,0,0,0-.75,0,2.3,2.3,0,0,0-.74,0,2.36,2.36,0,0,0-.75,0,2.36,2.36,0,0,0-.75,0,2.3,2.3,0,0,0-.74,0,2.36,2.36,0,0,0-.75,0,2.36,2.36,0,0,0-.75,0,2.3,2.3,0,0,0-.74,0,2.36,2.36,0,0,0-.75,0,2.36,2.36,0,0,0-.75,0,2.3,2.3,0,0,0-.74,0,2.36,2.36,0,0,0-.75,0,2.36,2.36,0,0,0-.75,0,2.3,2.3,0,0,0-.74,0,2.36,2.36,0,0,0-.75,0,2.36,2.36,0,0,0-.75,0,2.3,2.3,0,0,0-.74,0,2.36,2.36,0,0,0-.75,0,2.36,2.36,0,0,0-.75,0,2.3,2.3,0,0,0-.74,0,2.36,2.36,0,0,0-.75,0,2.36,2.36,0,0,0-.75,0,2.3,2.3,0,0,0-.74,0,2.36,2.36,0,0,0-.75,0,2.36,2.36,0,0,0-.75,0,2.3,2.3,0,0,0-.74,0,2.36,2.36,0,0,0-.75,0,2.36,2.36,0,0,0-.75,0,2.3,2.3,0,0,0-.74,0,2.36,2.36,0,0,0-.75,0,2.3,2.3,0,0,0-.74,0,2.36,2.36,0,0,0-.75,0,2.36,2.36,0,0,0-.75,0,2.3,2.3,0,0,0-.74,0,2.36,2.36,0,0,0-.75,0,2.36,2.36,0,0,0-.75,0,2.3,2.3,0,0,0-.74,0,2.36,2.36,0,0,0-.75,0,2.36,2.36,0,0,0-.75,0,2.3,2.3,0,0,0-.74,0,2.36,2.36,0,0,0-.75,0,2.36,2.36,0,0,0-.75,0,2.3,2.3,0,0,0-.74,0,2.36,2.36,0,0,0-.75,0,2.36,2.36,0,0,0-.75,0,2.3,2.3,0,0,0-.74,0,2.36,2.36,0,0,0-.75,0,2.36,2.36,0,0,0-.75,0,2.87,2.87,0,0,0-1.95.47L3031,1734.49q-8-4.48-16.09-9a2,2,0,0,0-1.49-.29,1.89,1.89,0,0,0-.75,0,1.89,1.89,0,0,0-.75,0,1.84,1.84,0,0,0-.74,0,1.89,1.89,0,0,0-.75,0,1.89,1.89,0,0,0-.75,0,1.84,1.84,0,0,0-.74,0,1.89,1.89,0,0,0-.75,0,1.89,1.89,0,0,0-.75,0,1.84,1.84,0,0,0-.74,0,1.89,1.89,0,0,0-.75,0,1.84,1.84,0,0,0-.74,0,1.89,1.89,0,0,0-.75,0,1.89,1.89,0,0,0-.75,0,1.84,1.84,0,0,0-.74,0,1.89,1.89,0,0,0-.75,0,1.89,1.89,0,0,0-.75,0,1.84,1.84,0,0,0-.74,0,1.89,1.89,0,0,0-.75,0,1.89,1.89,0,0,0-.75,0,1.84,1.84,0,0,0-.74,0,1.89,1.89,0,0,0-.75,0,1.89,1.89,0,0,0-.75,0,1.84,1.84,0,0,0-.74,0,1.89,1.89,0,0,0-.75,0,1.89,1.89,0,0,0-.75,0,1.84,1.84,0,0,0-.74,0,1.89,1.89,0,0,0-.75,0,1.89,1.89,0,0,0-.75,0,1.84,1.84,0,0,0-.74,0,1.89,1.89,0,0,0-.75,0,1.89,1.89,0,0,0-.75,0,1.84,1.84,0,0,0-.74,0,1.89,1.89,0,0,0-.75,0,1.89,1.89,0,0,0-.75,0,1.84,1.84,0,0,0-.74,0,1.89,1.89,0,0,0-.75,0,1.84,1.84,0,0,0-.74,0,1.89,1.89,0,0,0-.75,0,1.89,1.89,0,0,0-.75,0,1.84,1.84,0,0,0-.74,0,1.89,1.89,0,0,0-.75,0,1.89,1.89,0,0,0-.75,0,1.84,1.84,0,0,0-.74,0,1.89,1.89,0,0,0-.75,0,1.89,1.89,0,0,0-.75,0,1.84,1.84,0,0,0-.74,0,1.89,1.89,0,0,0-.75,0,1.89,1.89,0,0,0-.75,0,1.84,1.84,0,0,0-.74,0,1.89,1.89,0,0,0-.75,0,1.89,1.89,0,0,0-.75,0,1.84,1.84,0,0,0-.74,0,1.89,1.89,0,0,0-.75,0,1.89,1.89,0,0,0-.75,0,1.84,1.84,0,0,0-.74,0,1.89,1.89,0,0,0-.75,0,1.89,1.89,0,0,0-.75,0,1.84,1.84,0,0,0-.74,0,1.89,1.89,0,0,0-.75,0,1.89,1.89,0,0,0-.75,0,1.84,1.84,0,0,0-.74,0,1.89,1.89,0,0,0-.75,0,1.84,1.84,0,0,0-.74,0,1.89,1.89,0,0,0-.75,0,1.89,1.89,0,0,0-.75,0,1.84,1.84,0,0,0-.74,0,1.89,1.89,0,0,0-.75,0,1.89,1.89,0,0,0-.75,0,1.84,1.84,0,0,0-.74,0,1.89,1.89,0,0,0-.75,0,1.89,1.89,0,0,0-.75,0,1.84,1.84,0,0,0-.74,0,1.89,1.89,0,0,0-.75,0,1.89,1.89,0,0,0-.75,0,1.84,1.84,0,0,0-.74,0,1.89,1.89,0,0,0-.75,0,1.89,1.89,0,0,0-.75,0,1.84,1.84,0,0,0-.74,0,1.89,1.89,0,0,0-.75,0,1.89,1.89,0,0,0-.75,0,1.84,1.84,0,0,0-.74,0,1.89,1.89,0,0,0-.75,0,1.89,1.89,0,0,0-.75,0,1.84,1.84,0,0,0-.74,0,1.89,1.89,0,0,0-.75,0,1.89,1.89,0,0,0-.75,0,1.84,1.84,0,0,0-.74,0,1.89,1.89,0,0,0-.75,0,1.89,1.89,0,0,0-.75,0,1.84,1.84,0,0,0-.74,0,1.89,1.89,0,0,0-.75,0,1.84,1.84,0,0,0-.74,0,1.89,1.89,0,0,0-.75,0,1.89,1.89,0,0,0-.75,0,1.84,1.84,0,0,0-.74,0,1.89,1.89,0,0,0-.75,0,1.89,1.89,0,0,0-.75,0,1.84,1.84,0,0,0-.74,0,1.89,1.89,0,0,0-.75,0,1.89,1.89,0,0,0-.75,0,2,2,0,0,0-1.54.32c-5.83,3.44-60.57,35.33-63.43,37,.43.29.72.52,1,.7l118.63,68.65,16.48,9.54h0a1.89,1.89,0,0,0-.75,0,1.84,1.84,0,0,0-.74,0,1.89,1.89,0,0,0-.75,0,1.84,1.84,0,0,0-.74,0,1.89,1.89,0,0,0-.75,0,1.89,1.89,0,0,0-.75,0,1.84,1.84,0,0,0-.74,0,1.89,1.89,0,0,0-.75,0,1.89,1.89,0,0,0-.75,0,1.84,1.84,0,0,0-.74,0,1.89,1.89,0,0,0-.75,0,1.89,1.89,0,0,0-.75,0,1.84,1.84,0,0,0-.74,0,1.89,1.89,0,0,0-.75,0,2.8,2.8,0,0,0-2,.48l-3.51,2h0a1.59,1.59,0,0,0-.75,0,1.54,1.54,0,0,0-.74,0,1.59,1.59,0,0,0-.75,0,1.59,1.59,0,0,0-.75,0,1.54,1.54,0,0,0-.74,0,1.59,1.59,0,0,0-.75,0,1.58,1.58,0,0,0-.75,0,1.54,1.54,0,0,0-.74,0,1.59,1.59,0,0,0-.75,0,1.58,1.58,0,0,0-.75,0,1.54,1.54,0,0,0-.74,0,1.59,1.59,0,0,0-.75,0,1.58,1.58,0,0,0-.75,0,1.54,1.54,0,0,0-.74,0,1.59,1.59,0,0,0-.75,0,1.58,1.58,0,0,0-.75,0,1.54,1.54,0,0,0-.74,0,1.59,1.59,0,0,0-.75,0,1.58,1.58,0,0,0-.75,0,1.54,1.54,0,0,0-.74,0,1.59,1.59,0,0,0-.75,0,1.58,1.58,0,0,0-.75,0,1.54,1.54,0,0,0-.74,0,1.59,1.59,0,0,0-.75,0,1.58,1.58,0,0,0-.75,0,1.54,1.54,0,0,0-.74,0,1.59,1.59,0,0,0-.75,0,1.58,1.58,0,0,0-.75,0,1.54,1.54,0,0,0-.74,0,1.59,1.59,0,0,0-.75,0,1.54,1.54,0,0,0-.74,0,1.59,1.59,0,0,0-.75,0,1.58,1.58,0,0,0-.75,0,1.54,1.54,0,0,0-.74,0,1.59,1.59,0,0,0-.75,0,1.58,1.58,0,0,0-.75,0,1.54,1.54,0,0,0-.74,0,1.59,1.59,0,0,0-.75,0,1.58,1.58,0,0,0-.75,0,1.54,1.54,0,0,0-.74,0,1.59,1.59,0,0,0-.75,0,1.58,1.58,0,0,0-.75,0,1.54,1.54,0,0,0-.74,0,1.58,1.58,0,0,0-.75,0,1.58,1.58,0,0,0-.75,0,1.54,1.54,0,0,0-.74,0,1.59,1.59,0,0,0-.75,0,1.58,1.58,0,0,0-.75,0,1.54,1.54,0,0,0-.74,0,1.59,1.59,0,0,0-.75,0,1.58,1.58,0,0,0-.75,0,1.54,1.54,0,0,0-.74,0,1.59,1.59,0,0,0-.75,0,1.58,1.58,0,0,0-.75,0,1.54,1.54,0,0,0-.74,0,1.59,1.59,0,0,0-.75,0,1.54,1.54,0,0,0-.74,0,1.59,1.59,0,0,0-.75,0,1.58,1.58,0,0,0-.75,0,1.54,1.54,0,0,0-.74,0,1.59,1.59,0,0,0-.75,0,1.58,1.58,0,0,0-.75,0,1.54,1.54,0,0,0-.74,0,1.58,1.58,0,0,0-.75,0,1.58,1.58,0,0,0-.75,0,1.54,1.54,0,0,0-.74,0,1.59,1.59,0,0,0-.75,0,1.58,1.58,0,0,0-.75,0,1.54,1.54,0,0,0-.74,0,1.59,1.59,0,0,0-.75,0,1.58,1.58,0,0,0-.75,0,1.54,1.54,0,0,0-.74,0,1.59,1.59,0,0,0-.75,0,1.58,1.58,0,0,0-.75,0,1.54,1.54,0,0,0-.74,0,1.59,1.59,0,0,0-.75,0,1.93,1.93,0,0,0-1.48.29c-7.57,4.42-15.18,8.79-22.77,13.18-.32.19-.63.42-1.18.78l28.75,16.62-33.29,19.23,1.39.82c6.31,3.64,12.63,7.26,18.91,10.95a2.56,2.56,0,0,0,1.82.44,1.84,1.84,0,0,0,.74,0,1.89,1.89,0,0,0,.75,0,1.89,1.89,0,0,0,.75,0,1.84,1.84,0,0,0,.74,0,1.89,1.89,0,0,0,.75,0,1.89,1.89,0,0,0,.75,0,1.84,1.84,0,0,0,.74,0,1.89,1.89,0,0,0,.75,0,1.84,1.84,0,0,0,.74,0,1.89,1.89,0,0,0,.75,0,1.89,1.89,0,0,0,.75,0,1.84,1.84,0,0,0,.74,0,1.89,1.89,0,0,0,.75,0,1.89,1.89,0,0,0,.75,0,1.84,1.84,0,0,0,.74,0,1.89,1.89,0,0,0,.75,0,1.89,1.89,0,0,0,.75,0,1.84,1.84,0,0,0,.74,0,1.89,1.89,0,0,0,.75,0,1.89,1.89,0,0,0,.75,0,1.84,1.84,0,0,0,.74,0,1.89,1.89,0,0,0,.75,0,1.89,1.89,0,0,0,.75,0,1.84,1.84,0,0,0,.74,0,1.89,1.89,0,0,0,.75,0,1.89,1.89,0,0,0,.75,0,1.84,1.84,0,0,0,.74,0,1.89,1.89,0,0,0,.75,0,1.89,1.89,0,0,0,.75,0,1.84,1.84,0,0,0,.74,0,1.89,1.89,0,0,0,.75,0,1.89,1.89,0,0,0,.75,0,1.84,1.84,0,0,0,.74,0,1.89,1.89,0,0,0,.75,0,1.89,1.89,0,0,0,.75,0,1.84,1.84,0,0,0,.74,0,1.89,1.89,0,0,0,.75,0,1.84,1.84,0,0,0,.74,0,1.89,1.89,0,0,0,.75,0,1.89,1.89,0,0,0,.75,0,1.84,1.84,0,0,0,.74,0,1.89,1.89,0,0,0,.75,0,1.89,1.89,0,0,0,.75,0,1.84,1.84,0,0,0,.74,0,1.89,1.89,0,0,0,.75,0,1.89,1.89,0,0,0,.75,0,1.84,1.84,0,0,0,.74,0,1.89,1.89,0,0,0,.75,0,1.89,1.89,0,0,0,.75,0,1.84,1.84,0,0,0,.74,0,1.89,1.89,0,0,0,.75,0,1.89,1.89,0,0,0,.75,0,1.84,1.84,0,0,0,.74,0,1.89,1.89,0,0,0,.75,0,1.89,1.89,0,0,0,.75,0,1.84,1.84,0,0,0,.74,0,1.89,1.89,0,0,0,.75,0,1.89,1.89,0,0,0,.75,0,1.84,1.84,0,0,0,.74,0,1.89,1.89,0,0,0,.75,0,1.89,1.89,0,0,0,.75,0,1.84,1.84,0,0,0,.74,0,1.89,1.89,0,0,0,.75,0,1.84,1.84,0,0,0,.74,0,1.89,1.89,0,0,0,.75,0,1.89,1.89,0,0,0,.75,0,1.84,1.84,0,0,0,.74,0,1.89,1.89,0,0,0,.75,0,1.89,1.89,0,0,0,.75,0,1.84,1.84,0,0,0,.74,0,1.89,1.89,0,0,0,.75,0,1.89,1.89,0,0,0,.75,0,1.84,1.84,0,0,0,.74,0,1.89,1.89,0,0,0,.75,0,1.89,1.89,0,0,0,.75,0,1.84,1.84,0,0,0,.74,0,1.89,1.89,0,0,0,.75,0,1.89,1.89,0,0,0,.75,0,1.84,1.84,0,0,0,.74,0,1.89,1.89,0,0,0,.75,0,1.89,1.89,0,0,0,.75,0,1.84,1.84,0,0,0,.74,0,1.89,1.89,0,0,0,.75,0,1.89,1.89,0,0,0,.75,0,1.84,1.84,0,0,0,.74,0,1.89,1.89,0,0,0,.75,0,1.89,1.89,0,0,0,.75,0,1.84,1.84,0,0,0,.74,0,1.89,1.89,0,0,0,.75,0,1.84,1.84,0,0,0,.74,0,1.89,1.89,0,0,0,.75,0,1.89,1.89,0,0,0,.75,0,1.84,1.84,0,0,0,.74,0,1.89,1.89,0,0,0,.75,0,1.89,1.89,0,0,0,.75,0,1.84,1.84,0,0,0,.74,0,1.89,1.89,0,0,0,.75,0,1.89,1.89,0,0,0,.75,0,1.84,1.84,0,0,0,.74,0,1.89,1.89,0,0,0,.75,0,2.45,2.45,0,0,0,1.76-.4c1.22-.72,2.46-1.42,3.69-2.14h0a1.73,1.73,0,0,0,.75,0,1.68,1.68,0,0,0,.74,0,1.73,1.73,0,0,0,.75,0,1.73,1.73,0,0,0,.75,0,1.68,1.68,0,0,0,.74,0,1.73,1.73,0,0,0,.75,0,1.73,1.73,0,0,0,.75,0,1.68,1.68,0,0,0,.74,0,1.73,1.73,0,0,0,.75,0,1.73,1.73,0,0,0,.75,0,1.68,1.68,0,0,0,.74,0,1.73,1.73,0,0,0,.75,0,1.73,1.73,0,0,0,.75,0,1.68,1.68,0,0,0,.74,0,1.73,1.73,0,0,0,.75,0,1.73,1.73,0,0,0,.75,0,1.68,1.68,0,0,0,.74,0,1.73,1.73,0,0,0,.75,0,1.73,1.73,0,0,0,.75,0,1.68,1.68,0,0,0,.74,0,1.73,1.73,0,0,0,.75,0,1.73,1.73,0,0,0,.75,0,1.68,1.68,0,0,0,.74,0,1.73,1.73,0,0,0,.75,0,1.68,1.68,0,0,0,.74,0,1.73,1.73,0,0,0,.75,0,1.73,1.73,0,0,0,.75,0,1.68,1.68,0,0,0,.74,0,1.73,1.73,0,0,0,.75,0,1.73,1.73,0,0,0,.75,0,1.68,1.68,0,0,0,.74,0,1.73,1.73,0,0,0,.75,0,1.73,1.73,0,0,0,.75,0,1.68,1.68,0,0,0,.74,0,1.73,1.73,0,0,0,.75,0,1.73,1.73,0,0,0,.75,0,1.68,1.68,0,0,0,.74,0,1.73,1.73,0,0,0,.75,0,1.73,1.73,0,0,0,.75,0,1.68,1.68,0,0,0,.74,0,1.73,1.73,0,0,0,.75,0,1.73,1.73,0,0,0,.75,0,1.68,1.68,0,0,0,.74,0,1.73,1.73,0,0,0,.75,0,1.73,1.73,0,0,0,.75,0,1.68,1.68,0,0,0,.74,0,1.73,1.73,0,0,0,.75,0,1.73,1.73,0,0,0,.75,0,1.68,1.68,0,0,0,.74,0,1.73,1.73,0,0,0,.75,0,1.73,1.73,0,0,0,.75,0,1.68,1.68,0,0,0,.74,0,1.73,1.73,0,0,0,.75,0,1.68,1.68,0,0,0,.74,0,1.73,1.73,0,0,0,.75,0,1.73,1.73,0,0,0,.75,0,1.68,1.68,0,0,0,.74,0,1.73,1.73,0,0,0,.75,0,1.73,1.73,0,0,0,.75,0,1.68,1.68,0,0,0,.74,0,1.73,1.73,0,0,0,.75,0,1.73,1.73,0,0,0,.75,0,1.68,1.68,0,0,0,.74,0,1.73,1.73,0,0,0,.75,0,1.73,1.73,0,0,0,.75,0,1.68,1.68,0,0,0,.74,0,1.73,1.73,0,0,0,.75,0,1.73,1.73,0,0,0,.75,0,1.68,1.68,0,0,0,.74,0,1.73,1.73,0,0,0,.75,0,1.73,1.73,0,0,0,.75,0,1.68,1.68,0,0,0,.74,0,1.73,1.73,0,0,0,.75,0,1.73,1.73,0,0,0,.75,0,1.68,1.68,0,0,0,.74,0,1.73,1.73,0,0,0,.75,0,2,2,0,0,0,1.48-.29c7.61-4.44,15.25-8.83,22.88-13.24.32-.18.62-.41,1.08-.71L3063,1872.9l.65-.38,93,53.83c6.65,3.85,13.32,7.68,20,11.57a2.15,2.15,0,0,0,1.58.32,1.89,1.89,0,0,0,.75,0,1.84,1.84,0,0,0,.74,0,1.89,1.89,0,0,0,.75,0,1.89,1.89,0,0,0,.75,0,1.84,1.84,0,0,0,.74,0,1.89,1.89,0,0,0,.75,0,1.89,1.89,0,0,0,.75,0,1.84,1.84,0,0,0,.74,0,1.89,1.89,0,0,0,.75,0,1.89,1.89,0,0,0,.75,0,1.84,1.84,0,0,0,.74,0,1.89,1.89,0,0,0,.75,0,1.89,1.89,0,0,0,.75,0,1.84,1.84,0,0,0,.74,0,1.89,1.89,0,0,0,.75,0,1.89,1.89,0,0,0,.75,0,1.84,1.84,0,0,0,.74,0,1.89,1.89,0,0,0,.75,0,1.89,1.89,0,0,0,.75,0,1.84,1.84,0,0,0,.74,0,1.89,1.89,0,0,0,.75,0,1.89,1.89,0,0,0,.75,0,1.84,1.84,0,0,0,.74,0,1.89,1.89,0,0,0,.75,0,1.89,1.89,0,0,0,.75,0,1.84,1.84,0,0,0,.74,0,1.89,1.89,0,0,0,.75,0,1.89,1.89,0,0,0,.75,0,1.84,1.84,0,0,0,.74,0,1.89,1.89,0,0,0,.75,0,1.84,1.84,0,0,0,.74,0,1.89,1.89,0,0,0,.75,0,1.89,1.89,0,0,0,.75,0,1.84,1.84,0,0,0,.74,0,1.89,1.89,0,0,0,.75,0,1.89,1.89,0,0,0,.75,0,1.84,1.84,0,0,0,.74,0,1.89,1.89,0,0,0,.75,0,1.89,1.89,0,0,0,.75,0,1.84,1.84,0,0,0,.74,0,1.89,1.89,0,0,0,.75,0,1.89,1.89,0,0,0,.75,0,1.84,1.84,0,0,0,.74,0,1.89,1.89,0,0,0,.75,0,1.89,1.89,0,0,0,.75,0,1.84,1.84,0,0,0,.74,0,1.89,1.89,0,0,0,.75,0,1.89,1.89,0,0,0,.75,0,1.84,1.84,0,0,0,.74,0,1.89,1.89,0,0,0,.75,0,1.89,1.89,0,0,0,.75,0,1.84,1.84,0,0,0,.74,0,1.89,1.89,0,0,0,.75,0,1.89,1.89,0,0,0,.75,0,1.84,1.84,0,0,0,.74,0,1.89,1.89,0,0,0,.75,0,1.84,1.84,0,0,0,.74,0,1.89,1.89,0,0,0,.75,0,1.89,1.89,0,0,0,.75,0,1.84,1.84,0,0,0,.74,0,1.89,1.89,0,0,0,.75,0,1.89,1.89,0,0,0,.75,0,1.84,1.84,0,0,0,.74,0,1.89,1.89,0,0,0,.75,0,1.89,1.89,0,0,0,.75,0,1.84,1.84,0,0,0,.74,0,1.89,1.89,0,0,0,.75,0,1.89,1.89,0,0,0,.75,0,1.84,1.84,0,0,0,.74,0,1.89,1.89,0,0,0,.75,0,1.89,1.89,0,0,0,.75,0,1.84,1.84,0,0,0,.74,0,1.89,1.89,0,0,0,.75,0,1.89,1.89,0,0,0,.75,0,1.84,1.84,0,0,0,.74,0,1.89,1.89,0,0,0,.75,0,1.89,1.89,0,0,0,.75,0,1.84,1.84,0,0,0,.74,0,1.89,1.89,0,0,0,.75,0,1.89,1.89,0,0,0,.75,0,1.84,1.84,0,0,0,.74,0,1.89,1.89,0,0,0,.75,0,1.84,1.84,0,0,0,.74,0,1.89,1.89,0,0,0,.75,0,1.89,1.89,0,0,0,.75,0,1.84,1.84,0,0,0,.74,0,1.89,1.89,0,0,0,.75,0,1.89,1.89,0,0,0,.75,0,1.84,1.84,0,0,0,.74,0,1.89,1.89,0,0,0,.75,0,1.89,1.89,0,0,0,.75,0,1.84,1.84,0,0,0,.74,0,1.89,1.89,0,0,0,.75,0,1.89,1.89,0,0,0,.75,0,1.84,1.84,0,0,0,.74,0,1.89,1.89,0,0,0,.75,0,1.89,1.89,0,0,0,.75,0,1.84,1.84,0,0,0,.74,0,1.89,1.89,0,0,0,.75,0,1.89,1.89,0,0,0,.75,0,2.33,2.33,0,0,0,1.68-.36l10.68-6.19.15,0a1.89,1.89,0,0,0,.75,0,1.84,1.84,0,0,0,.74,0,1.89,1.89,0,0,0,.75,0,1.84,1.84,0,0,0,.74,0,1.89,1.89,0,0,0,.75,0,1.89,1.89,0,0,0,.75,0,1.84,1.84,0,0,0,.74,0,1.89,1.89,0,0,0,.75,0,1.89,1.89,0,0,0,.75,0,1.84,1.84,0,0,0,.74,0,1.89,1.89,0,0,0,.75,0,1.89,1.89,0,0,0,.75,0,1.84,1.84,0,0,0,.74,0,1.89,1.89,0,0,0,.75,0,1.89,1.89,0,0,0,.75,0,1.84,1.84,0,0,0,.74,0,1.89,1.89,0,0,0,.75,0,1.89,1.89,0,0,0,.75,0,1.84,1.84,0,0,0,.74,0,1.89,1.89,0,0,0,.75,0,1.89,1.89,0,0,0,.75,0,1.84,1.84,0,0,0,.74,0,1.89,1.89,0,0,0,.75,0,1.89,1.89,0,0,0,.75,0,1.84,1.84,0,0,0,.74,0,1.89,1.89,0,0,0,.75,0,1.89,1.89,0,0,0,.75,0,1.84,1.84,0,0,0,.74,0,1.89,1.89,0,0,0,.75,0,1.84,1.84,0,0,0,.74,0,1.89,1.89,0,0,0,.75,0,1.89,1.89,0,0,0,.75,0,1.84,1.84,0,0,0,.74,0,1.89,1.89,0,0,0,.75,0,1.89,1.89,0,0,0,.75,0,1.84,1.84,0,0,0,.74,0,1.89,1.89,0,0,0,.75,0,1.89,1.89,0,0,0,.75,0,1.84,1.84,0,0,0,.74,0,1.89,1.89,0,0,0,.75,0,1.89,1.89,0,0,0,.75,0,1.84,1.84,0,0,0,.74,0,1.89,1.89,0,0,0,.75,0,1.89,1.89,0,0,0,.75,0,1.84,1.84,0,0,0,.74,0,1.89,1.89,0,0,0,.75,0,1.89,1.89,0,0,0,.75,0,1.84,1.84,0,0,0,.74,0,1.89,1.89,0,0,0,.75,0,1.89,1.89,0,0,0,.75,0,1.84,1.84,0,0,0,.74,0,1.89,1.89,0,0,0,.75,0,1.89,1.89,0,0,0,.75,0,1.84,1.84,0,0,0,.74,0,1.89,1.89,0,0,0,.75,0,1.89,1.89,0,0,0,.75,0,1.84,1.84,0,0,0,.74,0,1.89,1.89,0,0,0,.75,0,1.84,1.84,0,0,0,.74,0,1.89,1.89,0,0,0,.75,0,1.89,1.89,0,0,0,.75,0,1.84,1.84,0,0,0,.74,0,1.89,1.89,0,0,0,.75,0,1.89,1.89,0,0,0,.75,0,1.84,1.84,0,0,0,.74,0,1.89,1.89,0,0,0,.75,0,1.89,1.89,0,0,0,.75,0,1.84,1.84,0,0,0,.74,0,1.89,1.89,0,0,0,.75,0,1.89,1.89,0,0,0,.75,0,1.84,1.84,0,0,0,.74,0,1.89,1.89,0,0,0,.75,0,1.89,1.89,0,0,0,.75,0,1.84,1.84,0,0,0,.74,0,1.89,1.89,0,0,0,.75,0,1.89,1.89,0,0,0,.75,0,1.84,1.84,0,0,0,.74,0,1.89,1.89,0,0,0,.75,0,1.89,1.89,0,0,0,.75,0,1.84,1.84,0,0,0,.74,0,1.89,1.89,0,0,0,.75,0,1.89,1.89,0,0,0,.75,0,1.84,1.84,0,0,0,.74,0,1.89,1.89,0,0,0,.75,0,1.84,1.84,0,0,0,.74,0,1.89,1.89,0,0,0,.75,0,1.89,1.89,0,0,0,.75,0,1.84,1.84,0,0,0,.74,0,1.89,1.89,0,0,0,.75,0,1.89,1.89,0,0,0,.75,0,1.84,1.84,0,0,0,.74,0,1.89,1.89,0,0,0,.75,0,1.89,1.89,0,0,0,.75,0,1.84,1.84,0,0,0,.74,0,1.89,1.89,0,0,0,.75,0,1.89,1.89,0,0,0,.75,0,1.84,1.84,0,0,0,.74,0,1.89,1.89,0,0,0,.75,0,1.89,1.89,0,0,0,.75,0,1.84,1.84,0,0,0,.74,0,2.24,2.24,0,0,0,1.68-.36l30.23-17.64q22.88,13.2,45.72,26.47c5.2,3,10.28,6.2,15.91,8.38a112,112,0,0,0,24.58,6.31,140.82,140.82,0,0,0,19.33,1.45h74.66q3.15,0,6.3-.09c23.51-.89,46-5.94,66.68-17.51,9-5,17.16-11.22,23.51-19.51a38.86,38.86,0,0,0,8.13-18.46c.14-1,.27-2,.41-3.06v-1.92C3656.86,1894.23,3656.68,1892.72,3656.4,1891.24Z" transform="translate(-2873.81 -1348.43)"/>
    <path class="cls-2" d="M3004.7,1665.66l-83.61-48.27v.17l-.2-.13c-2-1.16-3.82-1-5,.14l-37.43,21.13,89.29,48.24,21.15-12.16,15.85,9.15Z" transform="translate(-2873.81 -1348.43)"/>
    <path class="cls-3" d="M2884.09,1638.66v.17l-.2-.12c-3.72-2.15-6.73.13-6.73,5.09s3,10.71,6.73,12.86l.2.1v.17l83.61,48.27v-18.26Z" transform="translate(-2873.81 -1348.43)"/>
    <polygon class="cls-4" points="132.73 434.66 132.73 309.9 199.37 286.48 199.37 368.3 132.73 434.66"/>
    <polygon class="cls-3" points="381.1 589.39 381.1 548.29 499.91 479.84 500.01 520.66 381.1 589.39"/>
    <path class="cls-3" d="M3387.22,1865.67l48-27.17-22.5-13.91-25.46,7.33S3387.09,1865.8,3387.22,1865.67Z" transform="translate(-2873.81 -1348.43)"/>
    <polygon class="cls-3" points="506.57 371.29 506.57 492.52 487.8 503.36 487.8 382.13 506.57 371.29"/>
    <g id="C">
        <path class="cls-5" d="M3267.81,1611.2a64.13,64.13,0,0,0-7.86-3.75c0-.09,0-.16,0-.21,0-1.08,2.15-10-2.92-11.84s-27.06-8.92-32.6-6.31-14.91,6.46-17.37,9.08-4.61,7.07-4.77,9.53a7.51,7.51,0,0,0,.72,3.46c-2.39,1.14-4.79,2.41-7.19,3.79-9.46,5.46-13.19,12.17-16,17.57s-3.37,9.08-1.23,13.09,4.72,7.88,11.9,12a55.42,55.42,0,0,0,17.58,6.72c.83.16,1.67.28,2.51.4l8.8,87.42,35.19,15,1.19-131,11.36,3.88Zm-60.74,35.55q-6-3.48-4.66-8.13c.5-1.71,2.18-3.71,5-6l1.52,15.06C3208.31,1647.41,3207.69,1647.1,3207.07,1646.75Zm48.82-17.66v-1.16A5,5,0,0,1,3255.89,1629.09Z" transform="translate(-2873.81 -1348.43)"/>
        <path class="cls-6" d="M3247.56,1635.89l-71.49-20.84v14.55l-.05,0v9.06q0,.57,0,1.14l.09,92.79,71.43,34.62v-108h0Z" transform="translate(-2873.81 -1348.43)"/>
        <path class="cls-7" d="M3283.2,1626.61v-23.07l-7.88,11.48a52.1,52.1,0,0,0-4.81-3.28c-1.54,9.41-3.53,20.93-3.72,21.4a54.74,54.74,0,0,1-4.66,4.36l9.71,3.31.25,43.74,11.11-25.37v-30.4A12.1,12.1,0,0,0,3283.2,1626.61Z" transform="translate(-2873.81 -1348.43)"/>
        <polygon class="cls-8" points="401.99 270.43 379.34 262.7 379.34 286 379.34 419.91 401.96 421.04 401.96 293.72 401.99 293.73 401.99 270.43"/>
        <path class="cls-9" d="M3235.92,1622l11.64,13.93a84.75,84.75,0,0,1-20.19,5.1,61.86,61.86,0,0,1-18.41-.48,55.24,55.24,0,0,1-17.58-6.72q-10.77-6.22-14-12.25t.93-14.13q4.14-8.12,18.33-16.31,18.93-10.92,37.8-11.76a62.82,62.82,0,0,1,34.83,8.37q12.47,7.21,13.79,14.69t-7.29,16.46l-22.64-7.73a13.66,13.66,0,0,0,3.11-4.09,6,6,0,0,0,0-4.82,9.37,9.37,0,0,0-4.08-4q-6.95-4-17.07-2.42-7.57,1.15-17.81,7.06-12.67,7.32-14.05,12t4.67,8.12a21.82,21.82,0,0,0,12.65,2.92A52.4,52.4,0,0,0,3235.92,1622Z" transform="translate(-2873.81 -1348.43)"/>
    </g>
    <g id="O">
        <path class="cls-10" d="M3272.63,1661.69l11.14,8.84c1.35-.91,5.32,5.3,7,4.33a54.2,54.2,0,0,1,22.09-6.54c4.23-.36,3.88-8.06,7.2-6.92l12.73-12.84c-.25-.1-.49-.21-.75-.3l2.55-10.35s-18.14-5.85-19.06-5.85-26,4.62-28,5.23-19.53,18.57-19.53,18.57l-.06,0C3270.54,1658.89,3272.63,1661.69,3272.63,1661.69Z" transform="translate(-2873.81 -1348.43)"/>
        <path class="cls-11" d="M3356.81,1670.53v-21.32l-.07-1.31s-4.78,3.12-11.26,7.29c-1.21-.82-2.5-1.63-3.89-2.43-1.08-.62-2.17-1.2-3.27-1.76-.28.91-.55,1.76-.7,2.49-.72,3.4-7.85,8.21-12.1,10.74a11.08,11.08,0,0,1,2.29,2.23c-8.66,5.44-16.2,10-17.36,10.19-2.08.33-20.08-2.08-30.2-3.49l1-.84c-3.72-2.49-12.71-9.44-14.81-10.84a7.69,7.69,0,0,1-2.13-3.39l-.41.26-4.23-6.2-11.89,2.57v23.37l.09.06a13.47,13.47,0,0,0-.09,2.28v88.93l34.77,15.41,73-90.68.95-13.64v-5.69c.05-.24.11-.48.15-.71l.16-.09v-1.22A12.55,12.55,0,0,0,3356.81,1670.53Z" transform="translate(-2873.81 -1348.43)"/>
        <path class="cls-9" d="M3268,1632.56q18.67-10.79,38.08-11.58a64.2,64.2,0,0,1,35.5,8.48q16.48,9.51,15.18,20.57t-19.71,21.68a90.47,90.47,0,0,1-25.82,10.41,73.23,73.23,0,0,1-24.58,1.18,60.84,60.84,0,0,1-23.12-7.85q-11.17-6.45-14.38-13t1.13-14.36Q3254.64,1640.29,3268,1632.56Zm20.3,11.84q-11.55,6.67-12.88,11.73t5.07,8.75a25,25,0,0,0,15.12,3q8.55-.76,21.34-8.15,10.77-6.23,12-11.26t-5.24-8.76q-6.16-3.56-15-2.81T3288.31,1644.4Z" transform="translate(-2873.81 -1348.43)"/>
    </g>
    <polygon class="cls-2" points="511.8 307.94 511.8 227.02 532.47 238.48 532.47 319.72 511.8 307.94"/>
    <polygon class="cls-4" points="532.47 238.48 511.8 227.02 592.47 180.79 612.51 192.46 532.47 238.48"/>
    <path class="cls-3" d="M3406.27,1586.91v81.24l-.26.62v-.62s-45,16.7-50.35,18.34-8.82,15.38-8.82,15.38l7.38,53.68,51.17-29.74,2.79,9.19,46.64-35.59,1.23-71.18,30.27-29v-58.29Z" transform="translate(-2873.81 -1348.43)"/>
    <path class="cls-7" d="M3309.24,1700.4l52.36,30.13v6l-52.36-30.14Z" transform="translate(-2873.81 -1348.43)"/>
    <polygon class="cls-9" points="430.91 360.6 483.27 390.73 487.79 388.13 435.43 357.99 430.91 360.6"/>
    <path class="cls-7" d="M3304.63,1709.09l52.37,30.14v6l-52.37-30.14Z" transform="translate(-2873.81 -1348.43)"/>
    <polygon class="cls-9" points="426.31 369.29 478.67 399.43 483.19 396.82 430.82 366.68 426.31 369.29"/>
    <path class="cls-7" d="M3300.13,1717.68l52.37,30.14v6l-52.37-30.14Z" transform="translate(-2873.81 -1348.43)"/>
    <polygon class="cls-9" points="421.81 377.88 474.17 408.02 478.69 405.41 426.32 375.27 421.81 377.88"/>
    <path class="cls-7" d="M3295.53,1726.27l52.36,30.14v6l-52.36-30.13Z" transform="translate(-2873.81 -1348.43)"/>
    <polygon class="cls-9" points="417.21 386.47 469.57 416.61 474.09 414 421.72 383.86 417.21 386.47"/>
    <path class="cls-7" d="M3291,1734.86l52.36,30.14v6L3291,1740.89Z" transform="translate(-2873.81 -1348.43)"/>
    <polygon class="cls-9" points="412.71 395.06 465.07 425.2 469.59 422.59 417.22 392.45 412.71 395.06"/>
    <path class="cls-7" d="M3286.53,1743.56l52.36,30.13v6l-52.36-30.14Z" transform="translate(-2873.81 -1348.43)"/>
    <path class="cls-9" d="M3385.6,1656.37l20.41,11.78-57.48,33.19,31.85,18.38-18.78,10.84-52.25-30.16Z" transform="translate(-2873.81 -1348.43)"/>
    <polygon class="cls-2" points="498.37 461.43 264.87 327.07 131.92 403.84 364.33 538.75 498.37 461.43"/>
    <polygon class="cls-7" points="214.97 344.8 214.8 367.69 234.53 356 217.72 345.04 214.97 344.8"/>
    <polygon class="cls-7" points="181.18 409.35 181.18 386.37 199.92 397.52 199.92 420.18 181.18 409.35"/>
    <polygon class="cls-7" points="253.09 389.62 252.69 366.13 272.42 377.94 272.47 400.26 253.09 389.62"/>
    <polygon class="cls-3" points="199.97 420.14 199.72 397.42 252.94 366.23 253.09 389.5 199.97 420.14"/>
    <polygon class="cls-3" points="272.27 378.04 289.66 367.92 289.66 390.15 272.27 400.69 272.27 378.04"/>
    <path class="cls-9" d="M3106.15,1683.21l57.34,33.1-17.41,10-19.24-11.11-53.08,30.65L3054.9,1735l53.08-30.65-19.24-11.1Z" transform="translate(-2873.81 -1348.43)"/>
    <polygon class="cls-3" points="247.5 447.25 247.46 424.83 317.85 384.12 317.85 406.42 247.5 447.25"/>
    <polygon class="cls-7" points="247.46 447.2 228.69 436.39 228.48 413.94 247.46 424.55 247.46 447.2"/>
    <path class="cls-9" d="M3172.77,1721.67l18.91,10.92-70.49,40.69-18.9-10.91Z" transform="translate(-2873.81 -1348.43)"/>
    <polygon class="cls-7" points="277.9 442.52 278.1 465.17 298.56 477.6 298.73 454.06 277.9 442.52"/>
    <polygon class="cls-3" points="391.4 426.7 298.33 453.76 298.33 477.15 391.56 449.44 391.4 426.7"/>
    <polygon class="cls-3" points="344.89 422.5 344.89 399.85 309.81 428.35 303.23 441.5 322.23 442.24 334.74 433.34 344.89 422.5"/>
    <path class="cls-9" d="M3199.22,1736.94l19.71,11.38-37,37.22,64.29-21.45,19.14,11.05-93.15,27.61-20.45-11.8Z" transform="translate(-2873.81 -1348.43)"/>
    <polygon class="cls-7" points="351.1 474.46 361.57 457.54 403.79 481.98 403.79 505.32 351.1 474.46"/>
    <polygon class="cls-7" points="323.15 494.23 323.15 470.89 376.06 501.74 375.85 525.09 323.15 494.23"/>
    <polygon class="cls-7" points="432.4 467.68 432.4 491.02 400.03 472.2 398.52 446.6 432.4 467.68"/>
    <polygon class="cls-3" points="392.48 515.32 392.48 491.99 375.92 501.77 375.92 525.11 392.48 515.32"/>
    <polygon class="cls-12" points="418.25 495.78 418.39 472.97 403.64 481.56 403.8 504.85 418.25 495.78"/>
    <polygon class="cls-3" points="447.87 481.94 447.87 459.07 432.4 467.68 432.4 491.02 447.87 481.94"/>
    <polygon class="cls-3" points="373.68 488.01 373.31 463.23 357.87 469.19 356.37 473.7 373.68 488.01"/>
    <polygon class="cls-3" points="399.28 441.33 400.03 472.2 391 469.94 385.73 455.64 389.49 451.87 399.28 441.33"/>
    <path class="cls-9" d="M3269.52,1777.41l52.06,30.06-15.5,9-32.59-18.82-11.54,6.67,30.23,17.46-14.8,8.54-30.24-17.45-14.32,8.26,33.55,19.37-16.45,9.49-53-30.61Z" transform="translate(-2873.81 -1348.43)"/>
    <path class="cls-7" d="M3277.53,1760.74l52.36,30.14v6l-52.36-30.14Z" transform="translate(-2873.81 -1348.43)"/>
    <polygon class="cls-9" points="399.21 420.94 451.57 451.07 456.09 448.47 403.72 418.33 399.21 420.94"/>
    <path class="cls-7" d="M3272.93,1769.33l52.36,30.14v6l-52.36-30.14Z" transform="translate(-2873.81 -1348.43)"/>
    <polygon class="cls-9" points="385.16 435.15 438.44 464.6 451.48 457.06 399.12 426.92 385.16 435.15"/>
    <polygon class="cls-9" points="408.21 403.75 460.57 433.89 465.09 431.28 412.72 401.15 408.21 403.75"/>
    <path class="cls-7" d="M3282,1752.25l52.36,30.14v6L3282,1758.27Z" transform="translate(-2873.81 -1348.43)"/>
    <polygon class="cls-9" points="403.71 412.45 456.07 442.58 460.59 439.98 408.22 409.84 403.71 412.45"/>
    <polygon class="cls-3" points="492.31 379.5 487.79 382.1 487.79 388.13 483.27 390.73 483.27 396.74 478.76 399.34 478.76 405.35 474.24 407.95 474.24 413.96 469.72 416.57 469.72 422.57 465.21 425.18 465.21 431.18 460.69 433.79 460.69 439.79 456.18 442.4 456.18 448.4 451.66 451.01 451.66 457.02 441.17 463.14 441.24 485.84 490.6 456.93 489.99 424.41 492.31 417.2 492.31 379.5"/>
    <path class="cls-13" d="M3658.55,1891.31v-75.49s-15.42,13-39.77,26.81l-113.89-65.75-34.25,20-7.64-9.4s-1.29-3.6-2.75-8l-43.19,24.94-68.31-29.29v78.73l38.43,22.19,0-.38h0v-43.75l-.09-.05c15.09-2.52,32.48,1.1,51,11.79s35.72,27,50.76,46.79l.23.13v34.51l.07.05v9.8l7,4c1.36.93,2.76,1.84,4.27,2.72,32.6,18.81,89.53,16.45,127.17-5.28C3649.94,1923.56,3660.46,1906.77,3658.55,1891.31Z" transform="translate(-2873.81 -1348.43)"/>
    <polygon class="cls-3" points="677.97 333 677.97 390.48 624.37 360.2 661.47 332.66 677.97 333"/>
    <polygon class="cls-2" points="576.16 344.57 576.16 263.66 596.83 275.11 596.83 356.36 576.16 344.57"/>
    <polygon class="cls-4" points="596.69 275.11 576.02 263.66 657.72 217.23 677.76 228.89 596.69 275.11"/>
    <polygon class="cls-3" points="596.69 275.11 596.69 379.69 677.97 333 677.97 228.89 596.69 275.11"/>
    <path class="cls-2" d="M3636.77,1784.29l-131.88-76.14-34.25,20-7.64-9.4s-1.29-3.61-2.75-8l-111.5,64.37,147.45,85.13c1.36.93,2.76,1.85,4.27,2.72,32.6,18.82,89.53,16.46,127.17-5.27S3669.36,1803.11,3636.77,1784.29Z" transform="translate(-2873.81 -1348.43)"/>
    <path class="cls-3" d="M3470.64,1704.82v23.31l-51.79,30.09-7.38-19.68s3.49-13.73,8.82-15.37S3470.64,1704.82,3470.64,1704.82Z" transform="translate(-2873.81 -1348.43)"/>
    <path class="cls-8" d="M3374,1760.37v-23.3s62.3,16.54,61.68,17.16-9.43,13-9.43,13v23.3Z" transform="translate(-2873.81 -1348.43)"/>
    <polygon class="cls-3" points="571.2 407.96 571.2 431.27 552.42 442.11 552.42 418.81 571.2 407.96"/>
    <path class="cls-9" d="M3450.23,1693l20.41,11.78L3413.16,1738,3445,1756.4l-18.78,10.84L3374,1737.07Z" transform="translate(-2873.81 -1348.43)"/>
    <polygon class="cls-8" points="592.15 426.69 602.6 409.79 644.77 434.2 644.77 457.51 592.15 426.69"/>
    <polygon class="cls-8" points="564.24 446.43 564.24 423.13 617.08 453.93 616.86 477.25 564.24 446.43"/>
    <polygon class="cls-8" points="673.33 419.92 673.33 443.23 641.01 424.43 639.5 398.87 673.33 419.92"/>
    <polygon class="cls-3" points="633.47 467.5 633.47 444.19 616.93 453.97 616.93 477.27 633.47 467.5"/>
    <polygon class="cls-3" points="659.21 447.98 659.34 425.2 644.62 433.78 644.77 457.03 659.21 447.98"/>
    <polygon class="cls-3" points="688.78 434.16 688.78 411.33 673.33 419.92 673.33 443.23 688.78 434.16"/>
    <polygon class="cls-3" points="614.7 440.22 614.33 415.48 598.91 421.43 597.41 425.94 614.7 440.22"/>
    <polygon class="cls-3" points="640.25 393.61 641.01 424.43 631.99 422.18 626.73 407.89 630.48 404.14 640.25 393.61"/>
    <path class="cls-9" d="M3510.5,1729.71l52,30-15.48,8.93-32.55-18.79-11.52,6.65,30.2,17.44-14.79,8.54-30.2-17.44-14.29,8.25,33.49,19.34-16.42,9.48L3438,1771.57Z" transform="translate(-2873.81 -1348.43)"/>
    <path class="cls-14" d="M3599.24,1800.87c0-.09,0-.16,0-.21,0-1.08,2.16-10-2.92-11.84s-27.06-8.92-32.6-6.3-14.91,6.45-17.37,9.07-4.61,7.07-4.77,9.53a7.51,7.51,0,0,0,.73,3.46q-3.6,1.73-7.19,3.79-14.19,8.19-18.34,16.31t-.93,14.13q3.23,6,14,12.25a55.42,55.42,0,0,0,17.58,6.72,61.86,61.86,0,0,0,18.41.48,84.51,84.51,0,0,0,20.19-5.1l-11.64-13.93a52.32,52.32,0,0,1-15.38,3.86,21.79,21.79,0,0,1-12.64-2.92q-6-3.48-4.67-8.12t14-12q10.25-5.91,17.81-7.06,10.14-1.59,17.07,2.42a9.4,9.4,0,0,1,4.09,4,6,6,0,0,1,0,4.82,13.92,13.92,0,0,1-3.12,4.09l14.86,5.07.62-28.85A64.13,64.13,0,0,0,3599.24,1800.87Z" transform="translate(-2873.81 -1348.43)"/>
    <path class="cls-15" d="M3586,1853.16v-23.3L3514.54,1809v22.83a14,14,0,0,0,0,2.59v.52l.07,0a11.9,11.9,0,0,0,1.26,3.83q3.23,6,14,12.25a55.42,55.42,0,0,0,17.58,6.72,61.86,61.86,0,0,0,18.41.48,84.51,84.51,0,0,0,20.19-5.1Z" transform="translate(-2873.81 -1348.43)"/>
    <path class="cls-3" d="M3621.67,1822.75a11.34,11.34,0,0,0,0-2.18v-23.06l-7.88,11.48a49.52,49.52,0,0,0-4.81-3.28c-1.54,9.41-3.53,20.92-3.72,21.4a53.75,53.75,0,0,1-4.66,4.35l13.67,4.67q6.55-6.84,7.34-12.81l.06,0Z" transform="translate(-2873.81 -1348.43)"/>
    <path class="cls-9" d="M3574.39,1815.93l11.64,13.93a84.51,84.51,0,0,1-20.19,5.1,61.86,61.86,0,0,1-18.41-.48,55.22,55.22,0,0,1-17.58-6.73q-10.77-6.21-14-12.24t.93-14.14q4.14-8.1,18.34-16.3,18.92-10.93,37.8-11.76a62.64,62.64,0,0,1,34.82,8.37q12.48,7.2,13.79,14.69t-7.28,16.46l-22.65-7.73a13.92,13.92,0,0,0,3.12-4.09,6,6,0,0,0,0-4.82,9.34,9.34,0,0,0-4.09-4q-6.93-4-17.07-2.42-7.58,1.14-17.81,7.06-12.67,7.31-14,12c-.91,3.1.64,5.8,4.67,8.13a21.79,21.79,0,0,0,12.64,2.91A52,52,0,0,0,3574.39,1815.93Z" transform="translate(-2873.81 -1348.43)"/>
    <polygon class="cls-8" points="717.81 456.66 717.81 479.97 740.46 487.7 740.46 464.39 717.81 456.66"/>
    <polygon class="cls-2" points="432.4 491.02 475.46 465.93 500.01 480.11 381.1 548.29 364.06 538.89 432.4 491.02"/>
    <path class="cls-8" d="M3254.91,1937.82l-263.46-152.73v-40.82l263.46,152.46S3254.09,1938.64,3254.91,1937.82Z" transform="translate(-2873.81 -1348.43)"/>
    <polygon class="cls-4" points="403.57 481.84 451.33 547.75 468.1 538.34 418.38 473.29 403.57 481.84"/>
    <polygon class="cls-8" points="430.46 519.66 430.46 561.02 468.1 582.84 468.1 557.71 451.33 547.75 430.46 519.66"/>
    <polygon class="cls-7" points="403.8 504.85 403.8 481.84 430.46 519.66 403.8 504.85"/>
    <polygon class="cls-3" points="471.37 536.99 471.37 496.61 500.01 480.11 500.01 520.66 471.37 536.99"/>
    <polygon class="cls-9" points="451.33 547.75 557.56 485.57 575.01 495.11 467.69 557.43 451.33 547.75"/>
    <polygon class="cls-3" points="578.19 491.84 588.97 512.16 468.1 582.84 467.69 557.43 578.19 491.84"/>
    <polygon class="cls-8" points="131.73 309.9 131.73 444.66 78.19 414.02 78.19 249.66 118.19 271.75 131.73 309.9"/>
    <polygon class="cls-2" points="78.19 249.66 118.19 225.93 118.19 271.75 78.19 249.66"/>
    <polygon class="cls-7" points="165.59 474.87 165.59 539.22 194.41 555.84 194.41 491.51 165.59 474.87"/>
    <polygon class="cls-3" points="132.32 494.08 132.32 558.43 165.59 539.22 165.59 474.87 132.32 494.08"/>
    <polygon class="cls-3" points="224.19 441.04 222.92 507.22 208.37 515.83 190.92 460.25 224.19 441.04"/>
    <polygon class="cls-7" points="114.85 445.57 114.85 501.82 151.02 459.97 151.54 457.56 114.85 445.57"/>
    <polygon class="cls-9" points="219.73 476.89 190.92 460.25 224.19 441.04 202.26 428.38 168.99 447.59 140.17 430.95 114.85 445.57 143.66 462.21 110.39 481.42 132.32 494.08 165.59 474.87 194.41 491.51 219.73 476.89"/>
    <polygon class="cls-3" points="194.41 491.51 194.41 555.84 219.63 541.3 219.63 476.95 194.41 491.51"/>
    <polygon class="cls-7" points="110.19 545.96 110.43 481.52 132.32 494.08 132.32 558.43 110.19 545.96"/>
    <path class="cls-8" d="M3466.27,1843l-55.93-32.29c-1,5.72-2.39,13.08-3.9,21.21,10,1.54,20.64,5.38,31.68,11.76a150.83,150.83,0,0,1,28.15,21.38Z" transform="translate(-2873.81 -1348.43)"/>
    <polygon class="cls-3" points="68.18 235.76 35.31 254.63 35.31 203.5 68.18 184.63 68.18 235.76"/>
    <polygon class="cls-3" points="68.18 157.24 35.31 175.5 35.31 144.46 68.18 126.2 68.18 157.24"/>
    <polygon class="cls-16" points="3.07 98.19 3.06 98.2 3.07 98.22 3.07 98.19"/>
    <path class="cls-16" d="M2953.56,1567.75h0l0,0Z" transform="translate(-2873.81 -1348.43)"/>
    <path class="cls-17" d="M2997.38,1521q0-20.31-8.64-36.3t-26-26l-53.1-30.66,0,0L2877,1446.28l53.17,30.63q17.4,10,26.08,26.1t8.66,36.42q0,20.73-9.26,27.15l32.6-18.3,0,0C2994.32,1544,2997.38,1534.76,2997.38,1521Z" transform="translate(-2873.81 -1348.43)"/>
    <polygon class="cls-8" points="33.49 176.11 48.1 184.63 61.49 185.24 66.36 174.89 57.39 163.05 33.49 176.11"/>
    <path class="cls-9" d="M2876.88,1446.14l53.29,30.77q17.4,10,26.08,26.1t8.66,36.42q0,20.94-9.44,27.29t-28.84-4.86l-17.55-10.13v51.33l-32.2-18.59Zm32.2,77.57,7.86,4.53q9.26,5.35,13,3.22c2.5-1.41,3.75-4.36,3.75-8.82a28.28,28.28,0,0,0-3.26-12.92q-3.25-6.4-12.24-11.6l-9.13-5.27Z" transform="translate(-2873.81 -1348.43)"/>
    <path class="cls-18" d="M3260.11,1507.78l14.77,31.31,19.49,5.31s13.48-3.44,12.36-7.62-2.9-19.55-6.45-24.87-24.81-18.9-24.81-18.9l-7.68,5.31Z" transform="translate(-2873.81 -1348.43)"/>
    <path class="cls-19" d="M3341.48,1478.72a138.72,138.72,0,0,0-10.47-11.48l-13.41-2.48-14.36-6.61L3273,1432.58q.58,2.52,1.41,5l-4.83-.13-13,3s1.77,23,1.77,24.22c0,.6,5.17,7.29,10.27,13.73,1.61,10.8,18.81,17.73,24,27.62,6.53,12.48,4.47,27,21.43,36.83l.6.34c.18,5.1.42,11.7.42,12.46,0,1.18-.64,12.53-.64,12.53l33.13-19.62h0a18.13,18.13,0,0,0,5.34-5.22q5.29-7.74,5.3-20.52a64.67,64.67,0,0,0-4-22A78.07,78.07,0,0,0,3341.48,1478.72Z" transform="translate(-2873.81 -1348.43)"/>
    <polygon class="cls-4" points="363.08 140.44 394.98 121.54 402.07 148.12 405.62 148.12 402.07 149.3 392.03 154.62 363.08 140.44"/>
    <path class="cls-20" d="M3306.1,1455.3c6.69,10.19,15.65,17.65,16.92,32.17l-1.41-.7,1.12.92,17.58-10.41h0l14.61-8.72q-1.9-21.78-11.94-37t-29.15-26.31q-15.59-9-24.53-8.94a18.44,18.44,0,0,0-6.86,1.24l-.36-.17-35,20.65-2,3.17c2.69-2.07,10.4.49,14.51.47,6,0,11.6,5.08,22,11.07C3294.37,1440.05,3299.41,1445.12,3306.1,1455.3Z" transform="translate(-2873.81 -1348.43)"/>
    <path class="cls-9" d="M3235.8,1488.72l29.32,14.48A55.05,55.05,0,0,0,3269,1520q4.76,10.83,13.61,15.93,6.6,3.81,10.17,1.75t3.57-7.51a23.18,23.18,0,0,0-3.4-11.21q-3.4-6.06-15.79-16.83-20.26-17.77-28.91-32.84t-8.71-30.69q0-10.26,4.46-16.8t13.4-6.59q8.94,0,24.53,8.94,19.11,11,29.15,26.31t11.94,37.06L3294,1473q-1.16-9.64-4.87-15.87a27.87,27.87,0,0,0-10.23-10q-5.38-3.11-8.1-1.64t-2.72,5.82a14.21,14.21,0,0,0,2.24,7q2.17,3.89,10.34,10.86,20.2,17.47,28.95,28.46a78,78,0,0,1,12.72,22.09,64.61,64.61,0,0,1,4,22q0,12.8-5.3,20.52a17.22,17.22,0,0,1-14.84,7.81q-9.53.07-24-8.29-25.44-14.68-35.24-33.41A97.4,97.4,0,0,1,3235.8,1488.72Z" transform="translate(-2873.81 -1348.43)"/>
    <polygon class="cls-3" points="199.15 220.22 232.13 239.06 172.21 275.89 172.21 235.78 199.15 220.22"/>
    <path class="cls-9" d="M3023.66,1530.31l32.15-18.56v104.57l50.17-29v34.16L3023.66,1669Z" transform="translate(-2873.81 -1348.43)"/>
    <polygon class="cls-8" points="149.92 320.59 117.73 301.9 117.73 163.01 150.06 181.68 149.92 320.59"/>
    <polygon class="cls-2" points="150.06 181.9 117.73 163.34 150.06 144.78 182.07 163.43 150.06 181.9"/>
    <path class="cls-7" d="M3195.47,1557.77l-3.57-120-2.77-2,1.11-3.8-1.24-32.47-32,18-.52,83.9a43.28,43.28,0,0,1-4.68,20.38,33.57,33.57,0,0,1-10.13,11.9l3.62,18.83a2.35,2.35,0,0,0-.09.66,1.24,1.24,0,0,0,.34.65l1.67,8.71c2.1-1.39,4.1-2.84,6-4.34a67.66,67.66,0,0,0,10.13,3.7C3164.58,1561.93,3195.47,1557.77,3195.47,1557.77Z" transform="translate(-2873.81 -1348.43)"/>
    <path class="cls-7" d="M3149.08,1563.79l-5.55-28.85q-1.34,1-2.79,1.8-5.4,3.12-9.27,2.67l-7.81-63.57-.59-36.76-31.82,18.37v82a86.2,86.2,0,0,0,3,21.56,24.89,24.89,0,0,0,6.79,11.93c.42.41.85.8,1.28,1.16l36.19,20.59-3-23.11q4.1-2,7.86-4.19Q3146.28,1565.66,3149.08,1563.79Z" transform="translate(-2873.81 -1348.43)"/>
    <polygon class="cls-4" points="248.69 126.03 218.51 108.91 251.1 90.3 280.9 107.27 248.69 126.03"/>
    <polygon class="cls-4" points="316.26 87.37 284.06 69.18 316.12 50.77 348.19 69.18 316.26 87.37"/>
    <path class="cls-9" d="M3189.18,1435.9l31.82-18.37v82a110.54,110.54,0,0,1-2.85,24.68,99.54,99.54,0,0,1-8.94,24.11,85.13,85.13,0,0,1-12.78,18.78,95.73,95.73,0,0,1-22.32,17.48,144.61,144.61,0,0,1-16.44,8.09q-8.91,3.72-14.89,3a18.79,18.79,0,0,1-11-5.54,25,25,0,0,1-6.79-11.94,86.18,86.18,0,0,1-3-21.55l-.6-82.11,32-18.55.38,84.24q0,11.25,4.69,14.88t13-1.17a33.08,33.08,0,0,0,12.91-13.7,43.16,43.16,0,0,0,4.69-20.38Z" transform="translate(-2873.81 -1348.43)"/>
    <polygon class="cls-9" points="314.83 37.43 314.83 68.73 347.01 49.84 347.01 18.75 314.83 37.43"/>
    <path class="cls-7" d="M3188.64,1385.86l-32-18.61v31.3l32,18.61S3188.16,1385.86,3188.64,1385.86Z" transform="translate(-2873.81 -1348.43)"/>
    <polygon class="cls-2" points="347.01 18.75 313.67 0 282.58 18.61 314.69 37.43 347.01 18.75"/>
</svg>