<svg id="Capa_1" data-name="Capa 1" xmlns="http://www.w3.org/2000/svg" xmlns:xlink="http://www.w3.org/1999/xlink" viewBox="0 0 1021.96 791.37"><defs><style>.cls-1{opacity:0.14;}.cls-2{fill:#fcb410;}.cls-3{fill:#17283a;}.cls-4{fill:#f37377;}.cls-5{fill:url(#Degradado_sin_nombre_85);}.cls-6{fill:url(#Degradado_sin_nombre_83);}.cls-7{fill:#562b3e;}.cls-8{fill:#e2e1cf;}.cls-9{fill:url(#Degradado_sin_nombre_85-2);}.cls-10{fill:url(#Degradado_sin_nombre_82);}.cls-11{fill:#999;}.cls-12{fill:url(#Degradado_sin_nombre_78);}.cls-13{fill:url(#Degradado_sin_nombre_81);}.cls-14{fill:url(#Degradado_sin_nombre_79);}.cls-15{fill:#4d4d4d;}.cls-16{fill:url(#Degradado_sin_nombre_92);}.cls-17{fill:url(#Degradado_sin_nombre_91);}.cls-18{fill:url(#Degradado_sin_nombre_89);}.cls-19{fill:url(#Degradado_sin_nombre_90);}</style><linearGradient id="Degradado_sin_nombre_85" x1="2855.74" y1="1747.33" x2="2973.49" y2="1747.33" gradientUnits="userSpaceOnUse"><stop offset="0.24" stop-color="#17283a"/><stop offset="0.51" stop-color="#372a3c"/><stop offset="0.76" stop-color="#4e2b3d"/><stop offset="0.92" stop-color="#562b3e"/></linearGradient><linearGradient id="Degradado_sin_nombre_83" x1="2853.98" y1="1764.59" x2="2947.12" y2="1764.59" gradientUnits="userSpaceOnUse"><stop offset="0.08" stop-color="#562b3e"/><stop offset="0.29" stop-color="#4e2b3d"/><stop offset="0.63" stop-color="#372a3c"/><stop offset="1" stop-color="#17283a"/></linearGradient><linearGradient id="Degradado_sin_nombre_85-2" x1="2973.67" y1="1715.65" x2="3060.43" y2="1715.65" xlink:href="#Degradado_sin_nombre_85"/><linearGradient id="Degradado_sin_nombre_82" x1="2947.44" y1="1797.44" x2="3089.42" y2="1797.44" gradientUnits="userSpaceOnUse"><stop offset="0.08" stop-color="#562b3e"/><stop offset="0.23" stop-color="#4e2b3d"/><stop offset="0.47" stop-color="#372a3c"/><stop offset="0.74" stop-color="#17283a"/></linearGradient><linearGradient id="Degradado_sin_nombre_78" x1="3078.86" y1="1990.69" x2="3482.48" y2="1990.69" gradientUnits="userSpaceOnUse"><stop offset="0.6" stop-color="#562b3e"/><stop offset="0.69" stop-color="#3a2a3c"/><stop offset="0.79" stop-color="#21283b"/><stop offset="0.85" stop-color="#17283a"/></linearGradient><linearGradient id="Degradado_sin_nombre_81" x1="3294.62" y1="1932.84" x2="3415.22" y2="1932.84" gradientUnits="userSpaceOnUse"><stop offset="0.15" stop-color="#17283a"/><stop offset="0.29" stop-color="#21283b"/><stop offset="0.54" stop-color="#3a2a3c"/><stop offset="0.75" stop-color="#562b3e"/></linearGradient><linearGradient id="Degradado_sin_nombre_79" x1="3294.63" y1="1950.46" x2="3387.78" y2="1950.46" gradientUnits="userSpaceOnUse"><stop offset="0.43" stop-color="#562b3e"/><stop offset="0.58" stop-color="#3a2a3c"/><stop offset="0.75" stop-color="#21283b"/><stop offset="0.85" stop-color="#17283a"/></linearGradient><linearGradient id="Degradado_sin_nombre_92" x1="2480.54" y1="1437.98" x2="2617" y2="1575.43" gradientUnits="userSpaceOnUse"><stop offset="0.43" stop-color="#562b3e"/><stop offset="0.53" stop-color="#532b3e"/><stop offset="0.62" stop-color="#482a3d"/><stop offset="0.71" stop-color="#36293c"/><stop offset="0.79" stop-color="#1d283a"/><stop offset="0.81" stop-color="#17283a"/></linearGradient><linearGradient id="Degradado_sin_nombre_91" x1="2972.79" y1="1514.11" x2="3016.57" y2="1571.84" gradientUnits="userSpaceOnUse"><stop offset="0.22" stop-color="#17283a"/><stop offset="0.25" stop-color="#1d283a"/><stop offset="0.37" stop-color="#36293c"/><stop offset="0.5" stop-color="#482a3d"/><stop offset="0.64" stop-color="#532b3e"/><stop offset="0.8" stop-color="#562b3e"/></linearGradient><linearGradient id="Degradado_sin_nombre_89" x1="2979.24" y1="1456.73" x2="3087.63" y2="1590.57" gradientUnits="userSpaceOnUse"><stop offset="0.02" stop-color="#17283a"/><stop offset="0.12" stop-color="#1f283b"/><stop offset="0.27" stop-color="#35293c"/><stop offset="0.44" stop-color="#562b3e"/><stop offset="0.75" stop-color="#2c293b"/><stop offset="0.95" stop-color="#17283a"/></linearGradient><linearGradient id="Degradado_sin_nombre_90" x1="2991.98" y1="1400.51" x2="3083.09" y2="1510.63" gradientUnits="userSpaceOnUse"><stop offset="0.2" stop-color="#562b3e"/><stop offset="0.36" stop-color="#532b3e"/><stop offset="0.5" stop-color="#482a3d"/><stop offset="0.63" stop-color="#36293c"/><stop offset="0.75" stop-color="#1d283a"/><stop offset="0.78" stop-color="#17283a"/></linearGradient></defs><path class="cls-1" d="M3479.4,2025.15c-1.76-9.25-6.59-16.77-13.17-23.32-5.91-5.88-13-10-20.17-14.14q-82.57-47.64-165.11-95.34l-2.91-1.58,4-2.29,57.35-33c.63-.36,1.25-.73,2.12-1.25-.59-.39-1-.68-1.4-.93q-11.55-6.72-23.1-13.47a2.23,2.23,0,0,0-1.73-.32,2,2,0,0,0-1,0,2,2,0,0,0-1,0,2.14,2.14,0,0,0-.61-.06l1.56-1.51-2.44,1.42,1.46-1.42-2.43,1.42,1.46-1.42-2.43,1.42,1.46-1.42-2.43,1.42,1.46-1.42-2.44,1.42,1.47-1.42-2.44,1.42,1.46-1.42-2.43,1.42,1.46-1.42-2.43,1.42,1.46-1.42-2.43,1.42,1.46-1.42-2.44,1.42,1.47-1.42-2.44,1.42,1.46-1.42-2.43,1.42,1.46-1.42-2.43,1.42,1.46-1.42-2.43,1.42,1.46-1.42-2.44,1.42,1.47-1.42-2.44,1.42,1.46-1.42-2.43,1.42,1.46-1.42-2.43,1.42,1.46-1.42-2.43,1.42,1.46-1.42-2.44,1.42,1.47-1.42-2.44,1.42,1.46-1.42-2.43,1.42,1.46-1.42-2.43,1.42,1.46-1.42-2.43,1.42L3291,1838l-2.44,1.42L3290,1838l-2.44,1.42L3289,1838l-2.43,1.42L3288,1838l-2.43,1.42,1.46-1.42-2.43,1.42,1.46-1.42-2.43,1.42,1.46-1.42-2.44,1.42,1.47-1.42-2.44,1.42,1.46-1.42-2.43,1.42,1.46-1.42-2.43,1.42,1.46-1.42-2.43,1.42,1.46-1.42-2.44,1.42,1.47-1.42-2.44,1.42,1.46-1.42-2.43,1.42,1.46-1.42-2.43,1.42,1.46-1.42-2.43,1.42,1.46-1.42-2.44,1.42,1.47-1.42-2.44,1.42,1.46-1.42-2.43,1.42,1.46-1.42-2.43,1.42,1.46-1.42-2.43,1.42,1.46-1.42-2.44,1.42,1.47-1.42-2.44,1.42,1.46-1.42-2.43,1.42,1.46-1.42-2.43,1.42,1.46-1.42-2.43,1.42,1.46-1.42-2.44,1.42,1.47-1.42-2.44,1.42,1.46-1.42-2.43,1.42,1.46-1.42-2.43,1.42,1.46-1.42-2.43,1.42,1.46-1.42-2.44,1.42,1.47-1.42-2.44,1.42,1.46-1.42-2.43,1.42,1.46-1.42-2.43,1.42,1.46-1.42-2.43,1.42L3256,1838l-2.44,1.42L3255,1838l-2.44,1.42L3254,1838l-2.43,1.42L3253,1838l-2.43,1.42,1.46-1.42-2.43,1.42,1.46-1.42-2.43,1.42,1.46-1.42-2.44,1.42,1.47-1.42-2.44,1.42,1.46-1.42-2.43,1.42,1.46-1.42-2.43,1.42,1.46-1.42-2.43,1.42,1.46-1.42-2.44,1.42,1.47-1.42-2.44,1.42,1.46-1.42-2.43,1.42,1.46-1.42-2.43,1.42,1.46-1.42-2.43,1.42,1.46-1.42-2.44,1.42,1.47-1.42-2.44,1.42,1.46-1.42-2.43,1.42,1.46-1.42-2.43,1.42,1.46-1.42-2.43,1.42,1.46-1.42-2.44,1.42,1.47-1.42-2.44,1.42,1.46-1.42-2.43,1.42,1.46-1.42-2.43,1.42.13-.14q8-4.6,16.06-9.23l9.81-5.65c-.88-.54-1.43-.91-2-1.24-7.34-4.28-14.7-8.51-22-12.84a3.13,3.13,0,0,0-2.29-.51,2.64,2.64,0,0,0-1,0,2.69,2.69,0,0,0-1,0,2.64,2.64,0,0,0-1,0,2.64,2.64,0,0,0-1,0,2.64,2.64,0,0,0-1,0,2.64,2.64,0,0,0-1,0,2.69,2.69,0,0,0-1,0,2.64,2.64,0,0,0-1,0,2.64,2.64,0,0,0-1,0,2.64,2.64,0,0,0-1,0,2.64,2.64,0,0,0-1,0,2.69,2.69,0,0,0-1,0,2.64,2.64,0,0,0-1,0,2.64,2.64,0,0,0-1,0,2.64,2.64,0,0,0-1,0,2.64,2.64,0,0,0-1,0,2.69,2.69,0,0,0-1,0,2.64,2.64,0,0,0-1,0,2.64,2.64,0,0,0-1,0,2.64,2.64,0,0,0-1,0,2.64,2.64,0,0,0-1,0,2.69,2.69,0,0,0-1,0,2.64,2.64,0,0,0-1,0,2.64,2.64,0,0,0-1,0,2.64,2.64,0,0,0-1,0,2.64,2.64,0,0,0-1,0,2.69,2.69,0,0,0-1,0,2.64,2.64,0,0,0-1,0,2.64,2.64,0,0,0-1,0,2.64,2.64,0,0,0-1,0,2.64,2.64,0,0,0-1,0,2.64,2.64,0,0,0-1,0,2.69,2.69,0,0,0-1,0,2.64,2.64,0,0,0-1,0,2.64,2.64,0,0,0-1,0,2.64,2.64,0,0,0-1,0,2.64,2.64,0,0,0-1,0,2.69,2.69,0,0,0-1,0,2.64,2.64,0,0,0-1,0,2.64,2.64,0,0,0-1,0,2.64,2.64,0,0,0-1,0,2.64,2.64,0,0,0-1,0,2.69,2.69,0,0,0-1,0,2.64,2.64,0,0,0-1,0,2.64,2.64,0,0,0-1,0,2.64,2.64,0,0,0-1,0,2.64,2.64,0,0,0-1,0,2.69,2.69,0,0,0-1,0,2.64,2.64,0,0,0-1,0,2.64,2.64,0,0,0-1,0,2.64,2.64,0,0,0-1,0,2.64,2.64,0,0,0-1,0,2.69,2.69,0,0,0-1,0,2.64,2.64,0,0,0-1,0,2.64,2.64,0,0,0-1,0,2.64,2.64,0,0,0-1,0,2.64,2.64,0,0,0-1,0,2.69,2.69,0,0,0-1,0,2.64,2.64,0,0,0-1,0,2.64,2.64,0,0,0-1,0,2.64,2.64,0,0,0-1,0,2.64,2.64,0,0,0-1,0,2.64,2.64,0,0,0-1,0,2.69,2.69,0,0,0-1,0,2.64,2.64,0,0,0-1,0,2.64,2.64,0,0,0-1,0,2.64,2.64,0,0,0-1,0,2.64,2.64,0,0,0-1,0,2.69,2.69,0,0,0-1,0,2.64,2.64,0,0,0-1,0,2.64,2.64,0,0,0-1,0,2.64,2.64,0,0,0-1,0,2.64,2.64,0,0,0-1,0,2.69,2.69,0,0,0-1,0,2.64,2.64,0,0,0-1,0,2.64,2.64,0,0,0-1,0,2.64,2.64,0,0,0-1,0,2.64,2.64,0,0,0-1,0,2.69,2.69,0,0,0-1,0,2.64,2.64,0,0,0-1,0,2.64,2.64,0,0,0-1,0,2.64,2.64,0,0,0-1,0,2.64,2.64,0,0,0-1,0,2.69,2.69,0,0,0-1,0,2.64,2.64,0,0,0-1,0,2.64,2.64,0,0,0-1,0,2.64,2.64,0,0,0-1,0,2.64,2.64,0,0,0-1,0,2.69,2.69,0,0,0-1,0,2.64,2.64,0,0,0-1,0,2.64,2.64,0,0,0-1,0,2.64,2.64,0,0,0-1,0,2.64,2.64,0,0,0-1,0,2.69,2.69,0,0,0-1,0,2.64,2.64,0,0,0-1,0,2.64,2.64,0,0,0-1,0,2.64,2.64,0,0,0-1,0,2.64,2.64,0,0,0-1,0,2.64,2.64,0,0,0-1,0,2.69,2.69,0,0,0-1,0,3.17,3.17,0,0,0-2.23.47q-26.55,15.26-53.12,30.46a70.23,70.23,0,0,0-16.83-10.61,81.57,81.57,0,0,0-29.48-7.51q-3.83-.25-7.57-.21h-97.19a97.23,97.23,0,0,0-25,3.29l-.32,0a2.16,2.16,0,0,0-1,0,2.11,2.11,0,0,0-1,0,2.11,2.11,0,0,0-1,0,2.11,2.11,0,0,0-1,0,2.11,2.11,0,0,0-1,0,2.16,2.16,0,0,0-1,0,2.11,2.11,0,0,0-1,0,2.11,2.11,0,0,0-1,0,2,2,0,0,0-.74,0c-.59-.41-1.18-.82-1.75-1.28a10,10,0,0,1-3.05-3.79l.26,0a2.11,2.11,0,0,0,1,0,2.16,2.16,0,0,0,1,0,2.12,2.12,0,0,0,1,0,2.12,2.12,0,0,0,1,0,2.11,2.11,0,0,0,1,0,2.11,2.11,0,0,0,1,0,2.16,2.16,0,0,0,1,0,2.12,2.12,0,0,0,1,0,2.12,2.12,0,0,0,1,0,2.11,2.11,0,0,0,1,0,2.11,2.11,0,0,0,1,0,2.16,2.16,0,0,0,1,0,2.12,2.12,0,0,0,1,0,2.12,2.12,0,0,0,1,0,2.11,2.11,0,0,0,1,0,2.11,2.11,0,0,0,1,0,2.11,2.11,0,0,0,1,0,2.16,2.16,0,0,0,1,0,2.12,2.12,0,0,0,1,0,2.12,2.12,0,0,0,1,0,2.11,2.11,0,0,0,1,0,2.11,2.11,0,0,0,1,0,2.16,2.16,0,0,0,1,0,2.12,2.12,0,0,0,1,0,2.12,2.12,0,0,0,1,0,2.11,2.11,0,0,0,1,0,2.11,2.11,0,0,0,1,0,2.16,2.16,0,0,0,1,0,2.12,2.12,0,0,0,1,0,2.12,2.12,0,0,0,1,0,2.11,2.11,0,0,0,1,0,2.11,2.11,0,0,0,1,0,2.16,2.16,0,0,0,1,0,2.12,2.12,0,0,0,1,0,2.12,2.12,0,0,0,1,0,2.11,2.11,0,0,0,1,0,2.11,2.11,0,0,0,1,0,2.16,2.16,0,0,0,1,0,2.12,2.12,0,0,0,1,0,2.12,2.12,0,0,0,1,0,2.11,2.11,0,0,0,1,0,2.11,2.11,0,0,0,1,0,2.16,2.16,0,0,0,1,0,2.12,2.12,0,0,0,1,0,2.12,2.12,0,0,0,1,0,2.11,2.11,0,0,0,1,0,2.11,2.11,0,0,0,1,0,2.16,2.16,0,0,0,1,0,2.12,2.12,0,0,0,1,0,2.12,2.12,0,0,0,1,0,2.11,2.11,0,0,0,1,0,2.11,2.11,0,0,0,1,0,2.11,2.11,0,0,0,1,0,2.16,2.16,0,0,0,1,0,2.12,2.12,0,0,0,1,0,2.12,2.12,0,0,0,1,0,2.11,2.11,0,0,0,1,0,2.11,2.11,0,0,0,1,0,2.16,2.16,0,0,0,1,0,2.12,2.12,0,0,0,1,0,2.12,2.12,0,0,0,1,0,2.11,2.11,0,0,0,1,0,2.11,2.11,0,0,0,1,0,2.16,2.16,0,0,0,1,0,2.12,2.12,0,0,0,1,0,2.12,2.12,0,0,0,1,0,2.11,2.11,0,0,0,1,0,2.11,2.11,0,0,0,1,0,2.16,2.16,0,0,0,1,0,2.12,2.12,0,0,0,1,0,2.12,2.12,0,0,0,1,0,2.11,2.11,0,0,0,1,0,2.11,2.11,0,0,0,1,0,2.16,2.16,0,0,0,1,0,2.12,2.12,0,0,0,1,0,2.12,2.12,0,0,0,1,0,2.11,2.11,0,0,0,1,0,2.11,2.11,0,0,0,1,0,2.16,2.16,0,0,0,1,0,2.12,2.12,0,0,0,1,0,2.12,2.12,0,0,0,1,0,2.11,2.11,0,0,0,1,0,2.11,2.11,0,0,0,1,0,2.16,2.16,0,0,0,1,0,2.12,2.12,0,0,0,1,0,2.12,2.12,0,0,0,1,0,2.11,2.11,0,0,0,1,0,2.11,2.11,0,0,0,1,0,2.11,2.11,0,0,0,1,0,2.16,2.16,0,0,0,1,0,2.12,2.12,0,0,0,1,0,2.12,2.12,0,0,0,1,0,2.11,2.11,0,0,0,1,0,2.11,2.11,0,0,0,1,0,2.16,2.16,0,0,0,1,0,2.12,2.12,0,0,0,1,0,1.94,1.94,0,0,0,2.07-.76,38.53,38.53,0,0,0,6.89-10.19c2.86-6.68,2-12.81-2.79-18.35-4.11-4.79-9.27-8.21-14.7-11.25a79.85,79.85,0,0,0-32.12-10c-2.62-.23-5.22-.34-7.79-.36h-97.2c-15.94-.27-31.07,3.59-45.58,10.58-8.95,4.32-17.49,9.31-24.92,16-1,.88-1.89,1.8-2.77,2.75a2.89,2.89,0,0,0-.72,0,3.22,3.22,0,0,0-1,0,3.15,3.15,0,0,0-1,0,3.15,3.15,0,0,0-1,0,3.15,3.15,0,0,0-1,0,3.15,3.15,0,0,0-1,0,3.15,3.15,0,0,0-1,0,3.22,3.22,0,0,0-1,0,3.15,3.15,0,0,0-1,0,3.15,3.15,0,0,0-1,0,3.15,3.15,0,0,0-1,0,3.15,3.15,0,0,0-1,0,3.22,3.22,0,0,0-1,0,3.15,3.15,0,0,0-1,0,3.15,3.15,0,0,0-1,0,3.16,3.16,0,0,0-1,0,3.15,3.15,0,0,0-1,0,3.22,3.22,0,0,0-1,0,3.15,3.15,0,0,0-1,0,3.15,3.15,0,0,0-1,0,3.15,3.15,0,0,0-1,0,3.15,3.15,0,0,0-1,0,3.22,3.22,0,0,0-1,0,3.15,3.15,0,0,0-1,0,3.15,3.15,0,0,0-1,0,3.15,3.15,0,0,0-1,0,3.15,3.15,0,0,0-1,0,3.22,3.22,0,0,0-1,0,3.15,3.15,0,0,0-1,0,3.15,3.15,0,0,0-1,0,3.15,3.15,0,0,0-1,0,3.15,3.15,0,0,0-1,0,3.22,3.22,0,0,0-1,0,3.15,3.15,0,0,0-1,0,3.15,3.15,0,0,0-1,0,3.15,3.15,0,0,0-1,0,3.15,3.15,0,0,0-1,0,3.22,3.22,0,0,0-1,0,3.15,3.15,0,0,0-1,0,3.15,3.15,0,0,0-1,0,3.15,3.15,0,0,0-1,0,3.15,3.15,0,0,0-1,0,3.15,3.15,0,0,0-1,0,3.22,3.22,0,0,0-1,0,3.15,3.15,0,0,0-1,0,3.15,3.15,0,0,0-1,0,3.15,3.15,0,0,0-1,0,3.15,3.15,0,0,0-1,0,3.22,3.22,0,0,0-1,0,3.15,3.15,0,0,0-1,0,3.15,3.15,0,0,0-1,0,3.16,3.16,0,0,0-1,0,3.15,3.15,0,0,0-1,0,3.22,3.22,0,0,0-1,0,3.15,3.15,0,0,0-1,0,3.15,3.15,0,0,0-1,0,3.15,3.15,0,0,0-1,0,3.15,3.15,0,0,0-1,0,3.22,3.22,0,0,0-1,0,3.81,3.81,0,0,0-2.55.61q-18.69,10.76-37.41,21.46l-20.94-11.67a2.66,2.66,0,0,0-2-.38,2.27,2.27,0,0,0-1,0,2.27,2.27,0,0,0-1,0,2.27,2.27,0,0,0-1,0,2.31,2.31,0,0,0-1,0,2.27,2.27,0,0,0-1,0,2.27,2.27,0,0,0-1,0,2.27,2.27,0,0,0-1,0,2.27,2.27,0,0,0-1,0,2.31,2.31,0,0,0-1,0,2.27,2.27,0,0,0-1,0,2.27,2.27,0,0,0-1,0,2.27,2.27,0,0,0-1,0,2.27,2.27,0,0,0-1,0,2.31,2.31,0,0,0-1,0,2.27,2.27,0,0,0-1,0,2.27,2.27,0,0,0-1,0,2.27,2.27,0,0,0-1,0,2.27,2.27,0,0,0-1,0,2.31,2.31,0,0,0-1,0,2.27,2.27,0,0,0-1,0,2.27,2.27,0,0,0-1,0,2.27,2.27,0,0,0-1,0,2.27,2.27,0,0,0-1,0,2.31,2.31,0,0,0-1,0,2.27,2.27,0,0,0-1,0,2.27,2.27,0,0,0-1,0,2.27,2.27,0,0,0-1,0,2.27,2.27,0,0,0-1,0,2.31,2.31,0,0,0-1,0,2.27,2.27,0,0,0-1,0,2.27,2.27,0,0,0-1,0,2.27,2.27,0,0,0-1,0,2.27,2.27,0,0,0-1,0,2.27,2.27,0,0,0-1,0,2.31,2.31,0,0,0-1,0,2.27,2.27,0,0,0-1,0,2.27,2.27,0,0,0-1,0,2.27,2.27,0,0,0-1,0,2.27,2.27,0,0,0-1,0,2.31,2.31,0,0,0-1,0,2.27,2.27,0,0,0-1,0,2.27,2.27,0,0,0-1,0,2.27,2.27,0,0,0-1,0,2.27,2.27,0,0,0-1,0,2.31,2.31,0,0,0-1,0,2.27,2.27,0,0,0-1,0,2.27,2.27,0,0,0-1,0,2.27,2.27,0,0,0-1,0,2.27,2.27,0,0,0-1,0,2.31,2.31,0,0,0-1,0,2.27,2.27,0,0,0-1,0,2.27,2.27,0,0,0-1,0,2.27,2.27,0,0,0-1,0,2.27,2.27,0,0,0-1,0,2.31,2.31,0,0,0-1,0,2.27,2.27,0,0,0-1,0,2.27,2.27,0,0,0-1,0,2.27,2.27,0,0,0-1,0,2.27,2.27,0,0,0-1,0,2.31,2.31,0,0,0-1,0,2.27,2.27,0,0,0-1,0,2.27,2.27,0,0,0-1,0,2.27,2.27,0,0,0-1,0,2.27,2.27,0,0,0-1,0,2.31,2.31,0,0,0-1,0,2.27,2.27,0,0,0-1,0,2.27,2.27,0,0,0-1,0,2.27,2.27,0,0,0-1,0,2.27,2.27,0,0,0-1,0,2.27,2.27,0,0,0-1,0,2.31,2.31,0,0,0-1,0,2.27,2.27,0,0,0-1,0,2.27,2.27,0,0,0-1,0,2.27,2.27,0,0,0-1,0,2.27,2.27,0,0,0-1,0,2.31,2.31,0,0,0-1,0,2.27,2.27,0,0,0-1,0,2.27,2.27,0,0,0-1,0,2.27,2.27,0,0,0-1,0,2.27,2.27,0,0,0-1,0,2.31,2.31,0,0,0-1,0,2.27,2.27,0,0,0-1,0,2.27,2.27,0,0,0-1,0,2.27,2.27,0,0,0-1,0,2.27,2.27,0,0,0-1,0,2.31,2.31,0,0,0-1,0,2.27,2.27,0,0,0-1,0,2.27,2.27,0,0,0-1,0,2.27,2.27,0,0,0-1,0,2.27,2.27,0,0,0-1,0,2.31,2.31,0,0,0-1,0,2.27,2.27,0,0,0-1,0,2.27,2.27,0,0,0-1,0,2.27,2.27,0,0,0-1,0,2.27,2.27,0,0,0-1,0,2.31,2.31,0,0,0-1,0,2.27,2.27,0,0,0-1,0,2.27,2.27,0,0,0-1,0,2.27,2.27,0,0,0-1,0,2.27,2.27,0,0,0-1,0,2.63,2.63,0,0,0-2,.41c-7.59,4.49-78.86,46-82.59,48.21.56.38.94.68,1.36.91l154.44,89.39,21.46,12.42h0a2.93,2.93,0,0,0-1,0,2.87,2.87,0,0,0-1,0,2.87,2.87,0,0,0-1,0,2.87,2.87,0,0,0-1,0,2.87,2.87,0,0,0-1,0,2.93,2.93,0,0,0-1,0,2.87,2.87,0,0,0-1,0,2.87,2.87,0,0,0-1,0,2.87,2.87,0,0,0-1,0,2.87,2.87,0,0,0-1,0,2.87,2.87,0,0,0-1,0,2.93,2.93,0,0,0-1,0,2.87,2.87,0,0,0-1,0,2.87,2.87,0,0,0-1,0,3.7,3.7,0,0,0-2.55.63q-2.28,1.34-4.58,2.65h0a2,2,0,0,0-1,0,2,2,0,0,0-1,0,2,2,0,0,0-1,0,2,2,0,0,0-1,0,2,2,0,0,0-1,0,2,2,0,0,0-1,0,2,2,0,0,0-1,0,2,2,0,0,0-1,0,2,2,0,0,0-1,0,2,2,0,0,0-1,0,2,2,0,0,0-1,0,2,2,0,0,0-1,0,2,2,0,0,0-1,0,2,2,0,0,0-1,0,2,2,0,0,0-1,0,2,2,0,0,0-1,0,2,2,0,0,0-1,0,2,2,0,0,0-1,0,2,2,0,0,0-1,0,2,2,0,0,0-1,0,2,2,0,0,0-1,0,2,2,0,0,0-1,0,2,2,0,0,0-1,0,2,2,0,0,0-1,0,2,2,0,0,0-1,0,2,2,0,0,0-1,0,2,2,0,0,0-1,0,2,2,0,0,0-1,0,2,2,0,0,0-1,0,2,2,0,0,0-1,0,2,2,0,0,0-1,0,2,2,0,0,0-1,0,2,2,0,0,0-1,0,2,2,0,0,0-1,0,2,2,0,0,0-1,0,2,2,0,0,0-1,0,2,2,0,0,0-1,0,2,2,0,0,0-1,0,2,2,0,0,0-1,0,2,2,0,0,0-1,0,2,2,0,0,0-1,0,2,2,0,0,0-1,0,2,2,0,0,0-1,0,2,2,0,0,0-1,0,2,2,0,0,0-1,0,2,2,0,0,0-1,0,2,2,0,0,0-1,0,2,2,0,0,0-1,0,2,2,0,0,0-1,0,2,2,0,0,0-1,0,2,2,0,0,0-1,0,2,2,0,0,0-1,0,2,2,0,0,0-1,0,2,2,0,0,0-1,0,2,2,0,0,0-1,0,2,2,0,0,0-1,0,2,2,0,0,0-1,0,2,2,0,0,0-1,0,2,2,0,0,0-1,0,2,2,0,0,0-1,0,2,2,0,0,0-1,0,2,2,0,0,0-1,0,2,2,0,0,0-1,0,2,2,0,0,0-1,0,2,2,0,0,0-1,0,2,2,0,0,0-1,0,2,2,0,0,0-1,0,2,2,0,0,0-1,0,2,2,0,0,0-1,0,2,2,0,0,0-1,0,2,2,0,0,0-1,0,2,2,0,0,0-1,0,2,2,0,0,0-1,0,2,2,0,0,0-1,0,2,2,0,0,0-1,0,2,2,0,0,0-1,0,2.55,2.55,0,0,0-1.94.38c-9.85,5.75-19.75,11.44-29.63,17.15-.43.25-.83.55-1.54,1l37.42,21.63-43.33,25,1.8,1.07c8.22,4.74,16.45,9.45,24.63,14.26a3.33,3.33,0,0,0,2.36.57,2.64,2.64,0,0,0,1,0,2.64,2.64,0,0,0,1,0,2.64,2.64,0,0,0,1,0,2.69,2.69,0,0,0,1,0,2.64,2.64,0,0,0,1,0,2.64,2.64,0,0,0,1,0,2.64,2.64,0,0,0,1,0,2.64,2.64,0,0,0,1,0,2.69,2.69,0,0,0,1,0,2.64,2.64,0,0,0,1,0,2.64,2.64,0,0,0,1,0,2.64,2.64,0,0,0,1,0,2.64,2.64,0,0,0,1,0,2.69,2.69,0,0,0,1,0,2.64,2.64,0,0,0,1,0,2.64,2.64,0,0,0,1,0,2.64,2.64,0,0,0,1,0,2.64,2.64,0,0,0,1,0,2.69,2.69,0,0,0,1,0,2.64,2.64,0,0,0,1,0,2.64,2.64,0,0,0,1,0,2.64,2.64,0,0,0,1,0,2.64,2.64,0,0,0,1,0,2.69,2.69,0,0,0,1,0,2.64,2.64,0,0,0,1,0,2.64,2.64,0,0,0,1,0,2.64,2.64,0,0,0,1,0,2.64,2.64,0,0,0,1,0,2.69,2.69,0,0,0,1,0,2.64,2.64,0,0,0,1,0,2.64,2.64,0,0,0,1,0,2.64,2.64,0,0,0,1,0,2.64,2.64,0,0,0,1,0,2.64,2.64,0,0,0,1,0,2.69,2.69,0,0,0,1,0,2.64,2.64,0,0,0,1,0,2.64,2.64,0,0,0,1,0,2.64,2.64,0,0,0,1,0,2.64,2.64,0,0,0,1,0,2.69,2.69,0,0,0,1,0,2.64,2.64,0,0,0,1,0,2.64,2.64,0,0,0,1,0,2.64,2.64,0,0,0,1,0,2.64,2.64,0,0,0,1,0,2.69,2.69,0,0,0,1,0,2.64,2.64,0,0,0,1,0,2.64,2.64,0,0,0,1,0,2.64,2.64,0,0,0,1,0,2.64,2.64,0,0,0,1,0,2.69,2.69,0,0,0,1,0,2.64,2.64,0,0,0,1,0,2.64,2.64,0,0,0,1,0,2.64,2.64,0,0,0,1,0,2.64,2.64,0,0,0,1,0,2.69,2.69,0,0,0,1,0,2.64,2.64,0,0,0,1,0,2.64,2.64,0,0,0,1,0,2.64,2.64,0,0,0,1,0,2.64,2.64,0,0,0,1,0,2.69,2.69,0,0,0,1,0,2.64,2.64,0,0,0,1,0,2.64,2.64,0,0,0,1,0,2.64,2.64,0,0,0,1,0,2.64,2.64,0,0,0,1,0,2.64,2.64,0,0,0,1,0,2.69,2.69,0,0,0,1,0,2.64,2.64,0,0,0,1,0,2.64,2.64,0,0,0,1,0,2.64,2.64,0,0,0,1,0,2.64,2.64,0,0,0,1,0,2.69,2.69,0,0,0,1,0,2.64,2.64,0,0,0,1,0,2.64,2.64,0,0,0,1,0,2.64,2.64,0,0,0,1,0,2.64,2.64,0,0,0,1,0,2.69,2.69,0,0,0,1,0,2.64,2.64,0,0,0,1,0,2.64,2.64,0,0,0,1,0,2.64,2.64,0,0,0,1,0,2.64,2.64,0,0,0,1,0,2.69,2.69,0,0,0,1,0,2.64,2.64,0,0,0,1,0,2.64,2.64,0,0,0,1,0,2.64,2.64,0,0,0,1,0,2.64,2.64,0,0,0,1,0,2.69,2.69,0,0,0,1,0,2.64,2.64,0,0,0,1,0,2.64,2.64,0,0,0,1,0,2.64,2.64,0,0,0,1,0,2.64,2.64,0,0,0,1,0,2.69,2.69,0,0,0,1,0,2.64,2.64,0,0,0,1,0,2.64,2.64,0,0,0,1,0,2.64,2.64,0,0,0,1,0,2.64,2.64,0,0,0,1,0,2.69,2.69,0,0,0,1,0,2.64,2.64,0,0,0,1,0,2.64,2.64,0,0,0,1,0,2.64,2.64,0,0,0,1,0,2.64,2.64,0,0,0,1,0,3.18,3.18,0,0,0,2.29-.52l4.8-2.78h0a2.12,2.12,0,0,0,1,0,2.12,2.12,0,0,0,1,0,2.12,2.12,0,0,0,1,0,2.12,2.12,0,0,0,1,0,2.16,2.16,0,0,0,1,0,2.12,2.12,0,0,0,1,0,2.12,2.12,0,0,0,1,0,2.12,2.12,0,0,0,1,0,2.12,2.12,0,0,0,1,0,2.16,2.16,0,0,0,1,0,2.12,2.12,0,0,0,1,0,2.12,2.12,0,0,0,1,0,2.12,2.12,0,0,0,1,0,2.12,2.12,0,0,0,1,0,2.12,2.12,0,0,0,1,0,2.16,2.16,0,0,0,1,0,2.12,2.12,0,0,0,1,0,2.12,2.12,0,0,0,1,0,2.12,2.12,0,0,0,1,0,2.12,2.12,0,0,0,1,0,2.16,2.16,0,0,0,1,0,2.12,2.12,0,0,0,1,0,2.12,2.12,0,0,0,1,0,2.12,2.12,0,0,0,1,0,2.12,2.12,0,0,0,1,0,2.16,2.16,0,0,0,1,0,2.12,2.12,0,0,0,1,0,2.12,2.12,0,0,0,1,0,2.12,2.12,0,0,0,1,0,2.12,2.12,0,0,0,1,0,2.16,2.16,0,0,0,1,0,2.12,2.12,0,0,0,1,0,2.12,2.12,0,0,0,1,0,2.12,2.12,0,0,0,1,0,2.12,2.12,0,0,0,1,0,2.16,2.16,0,0,0,1,0,2.12,2.12,0,0,0,1,0,2.12,2.12,0,0,0,1,0,2.12,2.12,0,0,0,1,0,2.12,2.12,0,0,0,1,0,2.16,2.16,0,0,0,1,0,2.12,2.12,0,0,0,1,0,2.12,2.12,0,0,0,1,0,2.12,2.12,0,0,0,1,0,2.12,2.12,0,0,0,1,0,2.16,2.16,0,0,0,1,0,2.12,2.12,0,0,0,1,0,2.12,2.12,0,0,0,1,0,2.12,2.12,0,0,0,1,0,2.12,2.12,0,0,0,1,0,2.12,2.12,0,0,0,1,0,2.16,2.16,0,0,0,1,0,2.12,2.12,0,0,0,1,0,2.12,2.12,0,0,0,1,0,2.12,2.12,0,0,0,1,0,2.12,2.12,0,0,0,1,0,2.16,2.16,0,0,0,1,0,2.12,2.12,0,0,0,1,0,2.12,2.12,0,0,0,1,0,2.12,2.12,0,0,0,1,0,2.12,2.12,0,0,0,1,0,2.16,2.16,0,0,0,1,0,2.12,2.12,0,0,0,1,0,2.12,2.12,0,0,0,1,0,2.12,2.12,0,0,0,1,0,2.12,2.12,0,0,0,1,0,2.16,2.16,0,0,0,1,0,2.12,2.12,0,0,0,1,0,2.12,2.12,0,0,0,1,0,2.12,2.12,0,0,0,1,0,2.12,2.12,0,0,0,1,0,2.16,2.16,0,0,0,1,0,2.12,2.12,0,0,0,1,0,2.12,2.12,0,0,0,1,0,2.12,2.12,0,0,0,1,0,2.12,2.12,0,0,0,1,0,2.53,2.53,0,0,0,1.94-.38c9.9-5.78,19.85-11.49,29.77-17.23.43-.24.82-.53,1.42-.93l-37.45-21.65.85-.49,121.08,70.08c8.66,5,17.34,10,26,15.06a2.79,2.79,0,0,0,2.05.42,2.64,2.64,0,0,0,1,0,2.64,2.64,0,0,0,1,0,2.69,2.69,0,0,0,1,0,2.64,2.64,0,0,0,1,0,2.64,2.64,0,0,0,1,0,2.64,2.64,0,0,0,1,0,2.64,2.64,0,0,0,1,0,2.69,2.69,0,0,0,1,0,2.64,2.64,0,0,0,1,0,2.64,2.64,0,0,0,1,0,2.64,2.64,0,0,0,1,0,2.64,2.64,0,0,0,1,0,2.69,2.69,0,0,0,1,0,2.64,2.64,0,0,0,1,0,2.64,2.64,0,0,0,1,0,2.64,2.64,0,0,0,1,0,2.64,2.64,0,0,0,1,0,2.69,2.69,0,0,0,1,0,2.64,2.64,0,0,0,1,0,2.64,2.64,0,0,0,1,0,2.64,2.64,0,0,0,1,0,2.64,2.64,0,0,0,1,0,2.69,2.69,0,0,0,1,0,2.64,2.64,0,0,0,1,0,2.64,2.64,0,0,0,1,0,2.64,2.64,0,0,0,1,0,2.64,2.64,0,0,0,1,0,2.69,2.69,0,0,0,1,0,2.64,2.64,0,0,0,1,0,2.64,2.64,0,0,0,1,0,2.64,2.64,0,0,0,1,0,2.64,2.64,0,0,0,1,0,2.69,2.69,0,0,0,1,0,2.64,2.64,0,0,0,1,0,2.64,2.64,0,0,0,1,0,2.64,2.64,0,0,0,1,0,2.64,2.64,0,0,0,1,0,2.64,2.64,0,0,0,1,0,2.69,2.69,0,0,0,1,0,2.64,2.64,0,0,0,1,0,2.64,2.64,0,0,0,1,0,2.64,2.64,0,0,0,1,0,2.64,2.64,0,0,0,1,0,2.69,2.69,0,0,0,1,0,2.64,2.64,0,0,0,1,0,2.64,2.64,0,0,0,1,0,2.64,2.64,0,0,0,1,0,2.64,2.64,0,0,0,1,0,2.69,2.69,0,0,0,1,0,2.64,2.64,0,0,0,1,0,2.64,2.64,0,0,0,1,0,2.64,2.64,0,0,0,1,0,2.64,2.64,0,0,0,1,0,2.69,2.69,0,0,0,1,0,2.64,2.64,0,0,0,1,0,2.64,2.64,0,0,0,1,0,2.64,2.64,0,0,0,1,0,2.64,2.64,0,0,0,1,0,2.69,2.69,0,0,0,1,0,2.64,2.64,0,0,0,1,0,2.64,2.64,0,0,0,1,0,2.64,2.64,0,0,0,1,0,2.64,2.64,0,0,0,1,0,2.69,2.69,0,0,0,1,0,2.64,2.64,0,0,0,1,0,2.64,2.64,0,0,0,1,0,2.64,2.64,0,0,0,1,0,2.64,2.64,0,0,0,1,0,2.64,2.64,0,0,0,1,0,2.69,2.69,0,0,0,1,0,2.64,2.64,0,0,0,1,0,2.64,2.64,0,0,0,1,0,2.64,2.64,0,0,0,1,0,2.64,2.64,0,0,0,1,0,2.69,2.69,0,0,0,1,0,2.64,2.64,0,0,0,1,0,2.64,2.64,0,0,0,1,0,2.64,2.64,0,0,0,1,0,2.64,2.64,0,0,0,1,0,2.69,2.69,0,0,0,1,0,2.64,2.64,0,0,0,1,0,2.64,2.64,0,0,0,1,0,2.64,2.64,0,0,0,1,0,2.64,2.64,0,0,0,1,0,2.69,2.69,0,0,0,1,0,2.64,2.64,0,0,0,1,0,2.64,2.64,0,0,0,1,0,2.64,2.64,0,0,0,1,0,2.64,2.64,0,0,0,1,0,2.69,2.69,0,0,0,1,0,2.64,2.64,0,0,0,1,0,2.64,2.64,0,0,0,1,0,2.64,2.64,0,0,0,1,0,2.64,2.64,0,0,0,1,0,2.69,2.69,0,0,0,1,0,2.64,2.64,0,0,0,1,0,2.64,2.64,0,0,0,1,0,2.64,2.64,0,0,0,1,0,2.64,2.64,0,0,0,1,0,2.69,2.69,0,0,0,1,0,3,3,0,0,0,2.19-.47l13.9-8.06.2,0a2.64,2.64,0,0,0,1,0,2.64,2.64,0,0,0,1,0,2.64,2.64,0,0,0,1,0,2.64,2.64,0,0,0,1,0,2.69,2.69,0,0,0,1,0,2.64,2.64,0,0,0,1,0,2.64,2.64,0,0,0,1,0,2.64,2.64,0,0,0,1,0,2.64,2.64,0,0,0,1,0,2.64,2.64,0,0,0,1,0,2.69,2.69,0,0,0,1,0,2.64,2.64,0,0,0,1,0,2.64,2.64,0,0,0,1,0,2.64,2.64,0,0,0,1,0,2.64,2.64,0,0,0,1,0,2.69,2.69,0,0,0,1,0,2.64,2.64,0,0,0,1,0,2.64,2.64,0,0,0,1,0,2.64,2.64,0,0,0,1,0,2.64,2.64,0,0,0,1,0,2.69,2.69,0,0,0,1,0,2.64,2.64,0,0,0,1,0,2.64,2.64,0,0,0,1,0,2.64,2.64,0,0,0,1,0,2.64,2.64,0,0,0,1,0,2.69,2.69,0,0,0,1,0,2.64,2.64,0,0,0,1,0,2.64,2.64,0,0,0,1,0,2.64,2.64,0,0,0,1,0,2.64,2.64,0,0,0,1,0,2.69,2.69,0,0,0,1,0,2.64,2.64,0,0,0,1,0,2.64,2.64,0,0,0,1,0,2.64,2.64,0,0,0,1,0,2.64,2.64,0,0,0,1,0,2.69,2.69,0,0,0,1,0,2.64,2.64,0,0,0,1,0,2.64,2.64,0,0,0,1,0,2.64,2.64,0,0,0,1,0,2.64,2.64,0,0,0,1,0,2.69,2.69,0,0,0,1,0,2.64,2.64,0,0,0,1,0,2.64,2.64,0,0,0,1,0,2.64,2.64,0,0,0,1,0,2.64,2.64,0,0,0,1,0,2.64,2.64,0,0,0,1,0,2.69,2.69,0,0,0,1,0,2.64,2.64,0,0,0,1,0,2.64,2.64,0,0,0,1,0,2.64,2.64,0,0,0,1,0,2.64,2.64,0,0,0,1,0,2.69,2.69,0,0,0,1,0,2.64,2.64,0,0,0,1,0,2.64,2.64,0,0,0,1,0,2.64,2.64,0,0,0,1,0,2.64,2.64,0,0,0,1,0,2.69,2.69,0,0,0,1,0,2.64,2.64,0,0,0,1,0,2.64,2.64,0,0,0,1,0,2.64,2.64,0,0,0,1,0,2.64,2.64,0,0,0,1,0,2.69,2.69,0,0,0,1,0,2.64,2.64,0,0,0,1,0,2.64,2.64,0,0,0,1,0,2.64,2.64,0,0,0,1,0,2.64,2.64,0,0,0,1,0,2.69,2.69,0,0,0,1,0,2.64,2.64,0,0,0,1,0,2.64,2.64,0,0,0,1,0,2.64,2.64,0,0,0,1,0,2.64,2.64,0,0,0,1,0,2.69,2.69,0,0,0,1,0,2.64,2.64,0,0,0,1,0,2.64,2.64,0,0,0,1,0,2.64,2.64,0,0,0,1,0,2.64,2.64,0,0,0,1,0,2.69,2.69,0,0,0,1,0,2.64,2.64,0,0,0,1,0,2.64,2.64,0,0,0,1,0,2.64,2.64,0,0,0,1,0,2.64,2.64,0,0,0,1,0,2.64,2.64,0,0,0,1,0,2.69,2.69,0,0,0,1,0,2.64,2.64,0,0,0,1,0,2.64,2.64,0,0,0,1,0,2.64,2.64,0,0,0,1,0,2.64,2.64,0,0,0,1,0,2.69,2.69,0,0,0,1,0,2.64,2.64,0,0,0,1,0,2.64,2.64,0,0,0,1,0,2.64,2.64,0,0,0,1,0,2.64,2.64,0,0,0,1,0,2.69,2.69,0,0,0,1,0,2.64,2.64,0,0,0,1,0,2.64,2.64,0,0,0,1,0,2.64,2.64,0,0,0,1,0,2.64,2.64,0,0,0,1,0,2.69,2.69,0,0,0,1,0,2.64,2.64,0,0,0,1,0,2.64,2.64,0,0,0,1,0,3,3,0,0,0,2.19-.47q19.67-11.51,39.34-23,29.79,17.21,59.54,34.47c6.76,3.94,13.38,8.07,20.71,10.91a145.45,145.45,0,0,0,32,8.21,181.69,181.69,0,0,0,25.18,1.89h97.19q4.11,0,8.21-.11c30.61-1.16,59.85-7.74,86.81-22.8,11.75-6.56,22.34-14.6,30.61-25.39,5.47-7.15,9.34-15,10.58-24.05l.54-4V2031C3480,2029,3479.77,2027.08,3479.4,2025.15Z" transform="translate(-2460.52 -1318.45)"/><path class="cls-2" d="M2630.93,1731.47l-108.85-62.85v.22l-.26-.16c-2.62-1.52-5-1.33-6.57.18l-48.74,27.51,116.25,62.79,27.54-15.83,20.63,11.92Z" transform="translate(-2460.52 -1318.45)"/><path class="cls-3" d="M2473.91,1696.31v.23l-.26-.17c-4.84-2.79-8.76.17-8.76,6.63s3.92,14,8.76,16.74l.26.13v.22l108.85,62.85v-23.78Z" transform="translate(-2460.52 -1318.45)"/><polygon class="cls-4" points="171.5 565.89 171.5 403.47 258.27 372.97 258.27 479.49 171.5 565.89"/><polygon class="cls-3" points="496.17 767.34 496.17 713.84 650.84 624.72 650.98 677.86 496.17 767.34"/><path class="cls-3" d="M3129,1991.86l62.44-35.37-29.29-18.11-33.15,9.54S3128.78,1992,3129,1991.86Z" transform="translate(-2460.52 -1318.45)"/><polygon class="cls-3" points="659.52 483.39 659.52 641.23 635.07 655.34 635.07 497.51 659.52 483.39"/><g id="C"><path class="cls-5" d="M2973.49,1660.56a83.23,83.23,0,0,0-10.24-4.88,1.91,1.91,0,0,0,0-.28c0-1.4,2.8-13-3.8-15.41s-35.24-11.61-42.44-8.21-19.42,8.41-22.62,11.81-6,9.21-6.21,12.41a9.75,9.75,0,0,0,.94,4.51q-4.68,2.23-9.36,4.93c-12.32,7.11-17.18,15.84-20.77,22.88s-4.39,11.81-1.6,17,6.15,10.26,15.49,15.65a71.74,71.74,0,0,0,22.89,8.76c1.08.2,2.18.37,3.27.52l11.46,113.82,45.8,19.53,1.56-170.57,14.78,5Zm-79.08,46.28q-7.86-4.53-6.08-10.58,1-3.35,6.53-7.79l2,19.61C2896,1707.71,2895.21,1707.3,2894.41,1706.84Zm63.56-23,0-1.51A7.63,7.63,0,0,1,2958,1683.85Z" transform="translate(-2460.52 -1318.45)"/><path class="cls-6" d="M2947.12,1692.7,2854,1665.57v18.94l-.06,0,0,11.79c0,.5,0,1,0,1.49l.12,120.8,93,45.08V1723.05h0Z" transform="translate(-2460.52 -1318.45)"/><path class="cls-7" d="M2993.52,1680.62v-30l-10.26,14.94a65.36,65.36,0,0,0-6.26-4.26c-2,12.25-4.6,27.24-4.85,27.85a68,68,0,0,1-6.06,5.68l12.65,4.31.32,56.94,14.46-33v-39.58A14.86,14.86,0,0,0,2993.52,1680.62Z" transform="translate(-2460.52 -1318.45)"/><polygon class="cls-7" points="523.36 352.08 493.87 342.01 493.87 372.35 493.87 546.69 523.33 548.16 523.33 382.4 523.36 382.42 523.36 352.08"/><path class="cls-8" d="M2932,1674.57l15.16,18.13a110.43,110.43,0,0,1-26.29,6.65,80.46,80.46,0,0,1-24-.63A71.94,71.94,0,0,1,2874,1690q-14-8.1-18.2-15.94t1.21-18.41q5.39-10.56,23.87-21.23,24.63-14.22,49.21-15.31a81.68,81.68,0,0,1,45.34,10.9q16.24,9.38,18,19.13t-9.49,21.42l-29.49-10.06q3.32-3.33,4.06-5.33a7.81,7.81,0,0,0,0-6.27,12.14,12.14,0,0,0-5.31-5.26q-9-5.22-22.23-3.15-9.85,1.5-23.18,9.19-16.52,9.52-18.29,15.56t6.08,10.58a28.32,28.32,0,0,0,16.46,3.8A67.73,67.73,0,0,0,2932,1674.57Z" transform="translate(-2460.52 -1318.45)"/></g><g id="O"><path class="cls-9" d="M2979.76,1726.29l14.5,11.52c1.77-1.2,6.94,6.9,9.12,5.63,10.11-5.83,21.14-7.86,28.76-8.52,5.51-.47,5.05-10.49,9.37-9l16.58-16.72-1-.38,3.32-13.48s-23.62-7.61-24.82-7.61-33.83,6-36.43,6.81-25.44,24.18-25.44,24.18l-.07,0C2977,1722.65,2979.76,1726.29,2979.76,1726.29Z" transform="translate(-2460.52 -1318.45)"/><path class="cls-10" d="M3089.36,1737.81V1710l-.1-1.7s-6.22,4.06-14.66,9.5c-1.57-1.07-3.25-2.13-5.06-3.17q-2.11-1.22-4.26-2.29c-.36,1.19-.71,2.29-.91,3.23-.93,4.43-10.21,10.69-15.75,14a14.23,14.23,0,0,1,3,2.9c-11.28,7.09-21.09,13-22.6,13.27-2.71.43-26.14-2.71-39.32-4.54.43-.36.88-.72,1.36-1.09-4.85-3.25-16.55-12.29-19.29-14.12-1-.68-2-2.39-2.77-4.41-.17.11-.36.22-.53.34l-5.51-8.07-15.48,3.34v30.42l.12.08a17.45,17.45,0,0,0-.12,3v115.79l45.27,20.06,95-118.06,1.24-17.76v-7.42c.07-.3.15-.61.2-.92l.21-.11v-1.59A18.33,18.33,0,0,0,3089.36,1737.81Z" transform="translate(-2460.52 -1318.45)"/><path class="cls-8" d="M2973.74,1688.37q24.32-14,49.59-15.08a83.59,83.59,0,0,1,46.21,11q21.47,12.39,19.77,26.78t-25.67,28.22q-17.41,10.05-33.62,13.56a95.12,95.12,0,0,1-32,1.54,79.23,79.23,0,0,1-30.09-10.22q-14.55-8.4-18.72-17t1.47-18.7Q2956.34,1698.43,2973.74,1688.37Zm26.43,15.42q-15,8.67-16.76,15.26t6.6,11.4a32.5,32.5,0,0,0,19.68,3.93q11.13-1,27.79-10.62,14-8.09,15.59-14.65t-6.82-11.41q-8-4.64-19.47-3.65T3000.17,1703.79Z" transform="translate(-2460.52 -1318.45)"/></g><polygon class="cls-2" points="666.32 400.91 666.32 295.57 693.23 310.48 693.23 416.25 666.32 400.91"/><polygon class="cls-4" points="693.23 310.48 666.32 295.57 771.34 235.38 797.44 250.56 693.23 310.48"/><path class="cls-3" d="M3153.75,1628.93v105.78l-.34.79v-.79s-58.61,21.74-65.55,23.88-11.48,20-11.48,20l9.61,69.89,66.61-38.71,3.64,12L3217,1775.4l1.59-92.67,39.42-37.82V1569Z" transform="translate(-2460.52 -1318.45)"/><path class="cls-7" d="M3027.42,1776.69l68.17,39.23v7.84l-68.17-39.23Z" transform="translate(-2460.52 -1318.45)"/><polygon class="cls-8" points="561.01 469.47 629.19 508.7 635.07 505.31 566.89 466.07 561.01 469.47"/><path class="cls-7" d="M3021.43,1788l68.17,39.23v7.84l-68.17-39.23Z" transform="translate(-2460.52 -1318.45)"/><polygon class="cls-8" points="555.02 480.79 623.2 520.02 629.08 516.63 560.9 477.39 555.02 480.79"/><path class="cls-7" d="M3015.57,1799.19l68.17,39.24v7.84L3015.57,1807Z" transform="translate(-2460.52 -1318.45)"/><polygon class="cls-8" points="549.16 491.97 617.34 531.21 623.22 527.81 555.04 488.58 549.16 491.97"/><path class="cls-7" d="M3009.58,1810.38l68.17,39.23v7.84l-68.17-39.23Z" transform="translate(-2460.52 -1318.45)"/><polygon class="cls-8" points="543.17 503.16 611.34 542.39 617.22 539 549.05 499.76 543.17 503.16"/><path class="cls-7" d="M3003.72,1821.56l68.17,39.24v7.84l-68.17-39.24Z" transform="translate(-2460.52 -1318.45)"/><polygon class="cls-8" points="537.31 514.34 605.49 553.58 611.37 550.18 543.19 510.95 537.31 514.34"/><path class="cls-7" d="M2997.86,1832.88l68.17,39.23V1880l-68.17-39.23Z" transform="translate(-2460.52 -1318.45)"/><path class="cls-8" d="M3126.84,1719.37l26.57,15.34-74.83,43.2,41.46,23.94L3095.6,1816l-68-39.27Z" transform="translate(-2460.52 -1318.45)"/><polygon class="cls-2" points="648.85 600.75 344.85 425.82 171.75 525.77 474.33 701.41 648.85 600.75"/><polygon class="cls-7" points="279.87 448.91 279.65 478.7 305.34 463.48 283.46 449.21 279.87 448.91"/><polygon class="cls-7" points="235.89 532.94 235.89 503.02 260.28 517.54 260.28 547.04 235.89 532.94"/><polygon class="cls-7" points="329.5 507.25 328.98 476.67 354.67 492.05 354.73 521.11 329.5 507.25"/><polygon class="cls-3" points="260.34 547 260.02 517.41 329.3 476.8 329.5 507.1 260.34 547"/><polygon class="cls-3" points="354.47 492.18 377.12 479.01 377.12 507.94 354.47 521.67 354.47 492.18"/><path class="cls-8" d="M2763,1754.31l74.66,43.1L2815,1810.49,2790,1796l-69.11,39.9-24.56-14.18,69.11-39.9-25.05-14.46Z" transform="translate(-2460.52 -1318.45)"/><polygon class="cls-3" points="322.23 582.29 322.17 553.09 413.81 500.09 413.81 529.13 322.23 582.29"/><polygon class="cls-7" points="322.17 582.22 297.73 568.14 297.47 538.92 322.17 552.73 322.17 582.22"/><path class="cls-8" d="M2849.76,1804.39l24.61,14.21-91.77,53L2758,1857.37Z" transform="translate(-2460.52 -1318.45)"/><polygon class="cls-7" points="361.81 576.12 362.06 605.62 388.71 621.79 388.92 591.15 361.81 576.12"/><polygon class="cls-3" points="509.57 555.53 388.4 590.76 388.4 621.21 509.78 585.14 509.57 555.53"/><polygon class="cls-3" points="449.02 550.07 449.02 520.57 403.35 557.68 394.78 574.8 419.52 575.76 435.8 564.17 449.02 550.07"/><path class="cls-8" d="M2884.18,1824.26l25.67,14.82-48.15,48.46,83.7-27.93,24.92,14.39L2849,1909.94l-26.62-15.37Z" transform="translate(-2460.52 -1318.45)"/><polygon class="cls-7" points="457.11 617.71 470.74 595.68 525.71 627.51 527.16 658.52 457.11 617.71"/><polygon class="cls-7" points="420.72 643.45 420.72 613.07 489.61 653.22 489.32 683.63 420.72 643.45"/><polygon class="cls-7" points="562.95 608.88 562.95 639.27 520.81 614.76 518.85 581.44 562.95 608.88"/><polygon class="cls-3" points="510.98 670.91 510.98 640.53 489.42 653.27 489.42 683.65 510.98 670.91"/><polygon class="cls-11" points="544.54 645.47 544.71 615.77 525.51 626.95 525.71 657.27 544.54 645.47"/><polygon class="cls-3" points="583.1 627.45 583.1 597.68 562.95 608.88 562.95 639.27 583.1 627.45"/><polygon class="cls-3" points="486.51 635.35 486.02 603.09 465.93 610.85 463.96 616.73 486.51 635.35"/><polygon class="cls-3" points="519.83 574.58 520.81 614.76 509.05 611.83 502.19 593.2 507.09 588.3 519.83 574.58"/><path class="cls-8" d="M2975.7,1877l67.8,39.14-20.19,11.66-42.44-24.51-15,8.68,39.37,22.73-19.28,11.13-39.37-22.73-18.64,10.76L2971.6,1959l-21.4,12.36-69-39.85Z" transform="translate(-2460.52 -1318.45)"/><path class="cls-7" d="M2986.14,1855.25l68.17,39.23v7.84l-68.17-39.23Z" transform="translate(-2460.52 -1318.45)"/><polygon class="cls-8" points="519.74 548.03 587.91 587.26 593.79 583.87 525.62 544.63 519.74 548.03"/><path class="cls-7" d="M2980.15,1866.43l68.17,39.24v7.84l-68.17-39.24Z" transform="translate(-2460.52 -1318.45)"/><polygon class="cls-8" points="501.45 566.53 570.82 604.88 587.8 595.05 519.62 555.82 501.45 566.53"/><polygon class="cls-8" points="531.45 525.66 599.63 564.89 605.51 561.5 537.33 522.26 531.45 525.66"/><path class="cls-7" d="M2992,1844.2l68.17,39.23v7.84L2992,1852Z" transform="translate(-2460.52 -1318.45)"/><polygon class="cls-8" points="525.6 536.98 593.77 576.21 599.65 572.82 531.48 533.58 525.6 536.98"/><polygon class="cls-3" points="640.95 494.07 635.07 497.47 635.07 505.31 629.19 508.7 629.19 516.52 623.31 519.91 623.31 527.73 617.43 531.13 617.43 538.94 611.55 542.34 611.55 550.15 605.66 553.55 605.66 561.37 599.78 564.76 599.78 572.58 593.9 575.97 593.9 583.79 588.02 587.18 588.02 595 574.37 602.97 574.46 632.53 638.73 594.89 637.93 552.55 640.95 543.16 640.95 494.07"/><path class="cls-12" d="M3482.19,2025.24V1927s-20.06,16.89-51.77,34.91l-148.27-85.61-44.6,26-9.94-12.24s-1.68-4.69-3.59-10.38l-56.22,32.46L3078.86,1874v102.5l50,28.89,0-.49h0v-57l-.12-.07c19.65-3.28,42.29,1.44,66.39,15.36s46.51,35.11,66.09,60.91l.29.17v44.93l.09.06V2082l9.14,5.27c1.77,1.22,3.6,2.41,5.57,3.54,42.43,24.5,116.55,21.43,165.55-6.86C3471,2067.22,3484.68,2045.36,3482.19,2025.24Z" transform="translate(-2460.52 -1318.45)"/><polygon class="cls-3" points="882.66 433.54 882.66 508.37 812.89 468.96 861.18 433.1 882.66 433.54"/><polygon class="cls-2" points="750.12 448.61 750.12 343.26 777.02 358.18 777.02 463.95 750.12 448.61"/><polygon class="cls-4" points="776.85 358.18 749.94 343.26 856.29 282.81 882.39 297.99 776.85 358.18"/><polygon class="cls-3" points="776.85 358.18 776.85 494.33 882.66 433.54 882.66 297.99 776.85 358.18"/><path class="cls-2" d="M3453.84,1885.91l-171.69-99.12-44.6,26-9.94-12.24s-1.68-4.69-3.59-10.37L3078.86,1874l192,110.84c1.77,1.21,3.6,2.4,5.57,3.54,42.43,24.5,116.55,21.42,165.55-6.87S3496.27,1910.41,3453.84,1885.91Z" transform="translate(-2460.52 -1318.45)"/><path class="cls-3" d="M3237.55,1782.45v30.34L3170.13,1852l-9.61-25.62s4.54-17.88,11.48-20S3237.55,1782.45,3237.55,1782.45Z" transform="translate(-2460.52 -1318.45)"/><path class="cls-7" d="M3111.71,1854.77v-30.34s81.11,21.54,80.31,22.34-12.28,16.94-12.28,16.94v30.34Z" transform="translate(-2460.52 -1318.45)"/><polygon class="cls-3" points="743.66 531.14 743.66 561.48 719.21 575.59 719.21 545.25 743.66 531.14"/><path class="cls-8" d="M3211,1767.11l26.56,15.34-74.83,43.2,41.46,23.94-24.44,14.12-68-39.28Z" transform="translate(-2460.52 -1318.45)"/><polygon class="cls-7" points="770.93 555.51 784.54 533.52 839.44 565.3 839.44 595.64 770.93 555.51"/><polygon class="cls-7" points="734.6 581.22 734.6 550.88 803.39 590.98 803.1 621.35 734.6 581.22"/><polygon class="cls-7" points="876.63 546.71 876.63 577.04 834.54 552.58 832.59 519.3 876.63 546.71"/><polygon class="cls-3" points="824.73 608.65 824.73 578.31 803.2 591.03 803.2 621.37 824.73 608.65"/><polygon class="cls-3" points="858.24 583.24 858.41 553.59 839.24 564.75 839.44 595.02 858.24 583.24"/><polygon class="cls-3" points="896.74 565.25 896.74 535.52 876.63 546.71 876.63 577.04 896.74 565.25"/><polygon class="cls-3" points="800.29 573.13 799.8 540.92 779.74 548.66 777.78 554.53 800.29 573.13"/><polygon class="cls-3" points="833.56 512.45 834.54 552.58 822.8 549.64 815.95 531.05 820.84 526.15 833.56 512.45"/><path class="cls-8" d="M3289.45,1814.85l67.69,39.08L3337,1865.57l-42.38-24.47-15,8.66,39.31,22.7-19.25,11.11-39.32-22.69-18.61,10.74,43.61,25.18L3264,1909.14l-68.93-39.79Z" transform="translate(-2460.52 -1318.45)"/><path class="cls-13" d="M3405,1907.5a1.91,1.91,0,0,0,0-.28c0-1.4,2.8-13-3.8-15.41s-35.23-11.61-42.44-8.21-19.42,8.41-22.62,11.81-6,9.21-6.21,12.41a9.75,9.75,0,0,0,.94,4.51q-4.68,2.24-9.36,4.93-18.46,10.66-23.87,21.23t-1.2,18.41q4.17,7.85,18.19,15.93a71.88,71.88,0,0,0,22.9,8.76,80.13,80.13,0,0,0,24,.62,109.73,109.73,0,0,0,26.28-6.64l-15.15-18.13a68,68,0,0,1-20,5,28.43,28.43,0,0,1-16.47-3.8q-7.86-4.53-6.07-10.58t18.28-15.56q13.32-7.69,23.19-9.19,13.18-2.07,22.22,3.15a12.17,12.17,0,0,1,5.32,5.26,7.81,7.81,0,0,1,0,6.27c-.5,1.33-1.86,3.1-4.06,5.32l19.35,6.61.81-37.56A83.23,83.23,0,0,0,3405,1907.5Z" transform="translate(-2460.52 -1318.45)"/><path class="cls-14" d="M3387.78,1975.57v-30.34l-93.07-27.13v29.71a17.24,17.24,0,0,0,0,3.37v.68l.09,0a15.18,15.18,0,0,0,1.65,5q4.17,7.85,18.19,15.93a71.88,71.88,0,0,0,22.9,8.76,80.13,80.13,0,0,0,24,.62,109.73,109.73,0,0,0,26.28-6.64Z" transform="translate(-2460.52 -1318.45)"/><path class="cls-3" d="M3434.19,1936a15.73,15.73,0,0,0,0-2.83v-30l-10.26,14.94a64.33,64.33,0,0,0-6.27-4.26c-2,12.25-4.59,27.24-4.84,27.85a68.86,68.86,0,0,1-6.07,5.68l17.8,6.07q8.52-8.89,9.56-16.67l.08,0Z" transform="translate(-2460.52 -1318.45)"/><path class="cls-8" d="M3372.63,1927.1l15.15,18.13a110.24,110.24,0,0,1-26.28,6.65,80.45,80.45,0,0,1-24-.63,72.08,72.08,0,0,1-22.9-8.75q-14-8.1-18.19-15.94t1.2-18.41q5.4-10.56,23.87-21.23,24.64-14.22,49.22-15.31a81.62,81.62,0,0,1,45.33,10.9q16.24,9.38,18,19.13t-9.48,21.42L3395.06,1913c2.2-2.22,3.56-4,4.06-5.33a7.81,7.81,0,0,0,0-6.27,12.17,12.17,0,0,0-5.32-5.26q-9-5.22-22.22-3.15-9.87,1.5-23.19,9.19-16.5,9.52-18.28,15.56t6.07,10.58a28.36,28.36,0,0,0,16.47,3.8A67.73,67.73,0,0,0,3372.63,1927.1Z" transform="translate(-2460.52 -1318.45)"/><polygon class="cls-7" points="934.54 594.54 934.54 624.88 964.02 634.95 964.02 604.61 934.54 594.54"/><polygon class="cls-2" points="562.95 639.27 619.02 606.61 650.98 625.07 496.17 713.84 473.97 701.59 562.95 639.27"/><path class="cls-7" d="M2956.69,2085.79l-343-198.84v-53.14l343,198.48S2955.62,2086.86,2956.69,2085.79Z" transform="translate(-2460.52 -1318.45)"/><polygon class="cls-4" points="525.41 627.32 587.6 713.13 609.43 700.88 544.7 616.19 525.41 627.32"/><polygon class="cls-7" points="561.04 676.66 560.43 730.41 609.43 758.82 609.43 726.09 587.6 713.13 561.04 676.66"/><polygon class="cls-7" points="525.66 657.71 525.38 627.29 561.11 676.73 525.66 657.71"/><polygon class="cls-3" points="613.69 699.12 613.69 646.55 650.98 625.07 650.98 677.86 613.69 699.12"/><polygon class="cls-8" points="587.6 713.13 725.89 632.17 748.62 644.6 608.9 725.73 587.6 713.13"/><polygon class="cls-3" points="752.76 640.34 766.79 666.79 609.43 758.82 608.9 725.73 752.76 640.34"/><polygon class="cls-7" points="171.5 403.47 171.5 578.91 101.8 539.03 101.8 325.04 153.88 353.8 171.5 403.47"/><polygon class="cls-2" points="101.8 325.04 153.88 294.15 153.88 353.8 101.8 325.04"/><polygon class="cls-7" points="215.59 618.25 215.59 702.02 253.1 723.67 253.1 639.91 215.59 618.25"/><polygon class="cls-3" points="172.27 643.26 172.27 727.03 215.59 702.02 215.59 618.25 172.27 643.26"/><polygon class="cls-3" points="291.88 574.2 290.22 660.36 271.29 671.57 248.56 599.21 291.88 574.2"/><polygon class="cls-7" points="149.52 580.1 149.52 653.33 196.62 598.84 197.29 595.72 149.52 580.1"/><polygon class="cls-8" points="286.08 620.87 248.56 599.21 291.88 574.2 263.32 557.71 220.01 582.72 182.49 561.07 149.52 580.1 187.03 601.76 143.72 626.77 172.27 643.26 215.59 618.25 253.1 639.91 286.08 620.87"/><polygon class="cls-3" points="253.1 639.91 253.1 723.67 285.94 704.73 285.94 620.96 253.1 639.91"/><polygon class="cls-7" points="143.46 710.79 143.77 626.9 172.27 643.26 172.27 727.03 143.46 710.79"/><path class="cls-7" d="M3231.87,1962.32l-72.82-42c-1.36,7.45-3.11,17-5.08,27.61,13,2,26.87,7,41.25,15.32a196.25,196.25,0,0,1,36.65,27.83Z" transform="translate(-2460.52 -1318.45)"/><polygon class="cls-3" points="88.77 306.94 45.98 331.5 45.98 264.94 88.77 240.38 88.77 306.94"/><polygon class="cls-3" points="88.77 204.72 45.98 228.49 45.98 188.07 88.77 164.3 88.77 204.72"/><polygon class="cls-15" points="4 127.84 3.98 127.85 4 127.87 4 127.84"/><path class="cls-15" d="M2564.35,1604h0l0,0Z" transform="translate(-2460.52 -1318.45)"/><path class="cls-16" d="M2621.4,1543.18q0-26.46-11.25-47.26t-33.83-33.87l-69.14-39.91.06,0-42.56,23.68,69.22,39.88q22.67,13.08,33.95,34t11.29,47.42q0,27-12.06,35.34l42.44-23.82,0,0C2617.43,1573,2621.4,1561,2621.4,1543.18Z" transform="translate(-2460.52 -1318.45)"/><polygon class="cls-7" points="43.6 229.28 62.62 240.38 80.05 241.17 86.39 227.7 74.72 212.28 43.6 229.28"/><path class="cls-8" d="M2464.53,1445.67l69.37,40q22.67,13.08,33.95,34t11.29,47.42q0,27.27-12.3,35.52t-37.55-6.32l-22.84-13.19V1650l-41.92-24.2Zm41.92,101,10.22,5.9q12.07,7,16.95,4.2t4.89-11.49a36.88,36.88,0,0,0-4.24-16.82q-4.24-8.34-15.94-15.1l-11.88-6.86Z" transform="translate(-2460.52 -1318.45)"/><path class="cls-17" d="M2963.46,1525.91l19.23,40.76,25.38,6.92s17.55-4.47,16.08-9.93-3.77-25.45-8.39-32.37-32.3-24.61-32.3-24.61l-10,6.92Z" transform="translate(-2460.52 -1318.45)"/><path class="cls-18" d="M3069.4,1488.08a179.25,179.25,0,0,0-13.64-14.95l-17.45-3.23-18.7-8.6-39.4-33.29q.78,3.29,1.84,6.54l-6.28-.17-16.92,3.85s2.3,30,2.3,31.53c0,.78,6.74,9.49,13.38,17.87,2.1,14.07,24.49,23.09,31.23,36,8.5,16.25,5.82,35.2,27.9,48l.79.44c.22,6.64.54,15.23.54,16.22,0,1.53-.84,16.32-.84,16.32l43.14-25.55v0a23.47,23.47,0,0,0,6.94-6.8q6.92-10.07,6.91-26.71a84.21,84.21,0,0,0-5.18-28.62A101.5,101.5,0,0,0,3069.4,1488.08Z" transform="translate(-2460.52 -1318.45)"/><polygon class="cls-4" points="471.4 182.84 512.94 158.23 522.17 192.84 526.78 192.84 522.17 194.38 509.09 201.3 471.4 182.84"/><path class="cls-19" d="M3023.34,1457.59c8.71,13.26,20.37,23,22,41.88l-1.83-.91,1.46,1.2,22.88-13.56h0l19-11.35q-2.47-28.35-15.54-48.24t-38-34.25q-20.28-11.7-31.92-11.64a24.06,24.06,0,0,0-8.94,1.62l-.47-.22L2946.54,1409l-2.58,4.13c3.5-2.7,13.54.64,18.88.61,7.77,0,15.11,6.61,28.63,14.42C3008.06,1437.74,3014.63,1444.34,3023.34,1457.59Z" transform="translate(-2460.52 -1318.45)"/><path class="cls-8" d="M2931.81,1501.11,2970,1520q1.23,13.13,5,21.81,6.21,14.1,17.72,20.74,8.6,5,13.24,2.27t4.65-9.77q0-6.74-4.43-14.6t-20.55-21.9q-26.38-23.16-37.64-42.76t-11.34-40q0-13.35,5.81-21.87t17.44-8.58q11.66-.07,31.93,11.64,24.9,14.37,38,34.26t15.54,48.24l-37.82-18.89q-1.5-12.55-6.33-20.66a36.35,36.35,0,0,0-13.33-13q-7-4-10.54-2.13c-2.36,1.28-3.55,3.8-3.55,7.58a18.39,18.39,0,0,0,2.93,9.13q2.84,5.05,13.46,14.15,26.31,22.74,37.69,37t16.56,28.75a84.45,84.45,0,0,1,5.18,28.62q0,16.65-6.91,26.72T3023.39,1607q-12.39.09-31.26-10.79-33.14-19.12-45.88-43.5A126.9,126.9,0,0,1,2931.81,1501.11Z" transform="translate(-2460.52 -1318.45)"/><polygon class="cls-3" points="259.27 286.7 302.21 311.24 224.2 359.19 224.2 306.97 259.27 286.7"/><path class="cls-8" d="M2655.62,1555.25l41.85-24.16v136.14l65.33-37.72V1674l-107.18,61.89Z" transform="translate(-2460.52 -1318.45)"/><polygon class="cls-7" points="195.19 417.38 153.27 393.05 153.27 212.23 195.36 236.53 195.19 417.38"/><polygon class="cls-2" points="195.36 236.82 153.27 212.66 195.36 188.5 237.04 212.78 195.36 236.82"/><path class="cls-7" d="M2879.3,1591l-4.64-156.19-3.61-2.6,1.45-5-1.63-42.28-41.61,23.45-.67,109.23a56.41,56.41,0,0,1-6.1,26.54,43.8,43.8,0,0,1-13.19,15.49l4.71,24.52a2.74,2.74,0,0,0-.11.86,1.63,1.63,0,0,0,.44.84l2.18,11.34q4.08-2.71,7.84-5.65c5.94,2.59,12.37,4.81,13.19,4.81C2839.09,1596.41,2879.3,1591,2879.3,1591Z" transform="translate(-2460.52 -1318.45)"/><path class="cls-7" d="M2818.9,1598.84l-7.22-37.57c-1.16.84-2.37,1.62-3.62,2.35q-7,4.07-12.08,3.47l-10.17-82.75-.76-47.87-41.43,23.92v106.75a112.12,112.12,0,0,0,3.85,28.07,32.42,32.42,0,0,0,8.84,15.53c.55.53,1.1,1,1.66,1.51l47.13,26.8-4-30.09q5.34-2.62,10.24-5.45Q2815.26,1601.26,2818.9,1598.84Z" transform="translate(-2460.52 -1318.45)"/><polygon class="cls-4" points="322.48 164.09 283.18 141.79 325.61 117.56 364.4 139.66 322.48 164.09"/><polygon class="cls-4" points="410.45 113.75 368.52 90.07 410.27 66.1 452.02 90.07 410.45 113.75"/><path class="cls-8" d="M2871.11,1432.34l41.43-23.92v106.75a143.55,143.55,0,0,1-3.71,32.12,129.38,129.38,0,0,1-11.64,31.4q-7.93,15.13-16.64,24.44a124.41,124.41,0,0,1-29.05,22.76,189.67,189.67,0,0,1-21.41,10.53q-11.6,4.86-19.39,3.92a24.38,24.38,0,0,1-14.25-7.22,32.33,32.33,0,0,1-8.84-15.53,112.06,112.06,0,0,1-3.85-28.07l-.79-106.89,41.72-24.16.5,109.67q0,14.65,6.09,19.38t16.92-1.52a43.27,43.27,0,0,0,16.82-17.83,56.41,56.41,0,0,0,6.09-26.54Z" transform="translate(-2460.52 -1318.45)"/><polygon class="cls-8" points="409.88 48.73 409.88 89.48 451.78 64.89 451.78 24.41 409.88 48.73"/><path class="cls-7" d="M2870.41,1367.19,2828.69,1343v40.75l41.72,24.23S2869.79,1367.19,2870.41,1367.19Z" transform="translate(-2460.52 -1318.45)"/><polygon class="cls-2" points="451.78 24.41 408.37 0 367.9 24.23 409.7 48.73 451.78 24.41"/></svg>