<svg id="Capa_1" data-name="Capa 1" xmlns="http://www.w3.org/2000/svg" xmlns:xlink="http://www.w3.org/1999/xlink" viewBox="0 0 326.48 316.68"><defs><style>.cls-1{fill:#fcb410;}.cls-2{fill:#f37377;}.cls-3{fill:#17283a;}.cls-4{fill:#502e3f;}.cls-5{fill:#e2e1cf;}.cls-6{fill:#4d4d4d;}.cls-7{fill:url(#Degradado_sin_nombre_9);}</style><linearGradient id="Degradado_sin_nombre_9" x1="1487.07" y1="1650.12" x2="1588.25" y2="1715.34" gradientUnits="userSpaceOnUse"><stop offset="0.07" stop-color="#502e3f"/><stop offset="0.27" stop-color="#4c2e3f"/><stop offset="0.46" stop-color="#412c3e"/><stop offset="0.65" stop-color="#2d2a3c"/><stop offset="0.81" stop-color="#17283a"/></linearGradient></defs><polyline class="cls-1" points="271.09 197.55 316.36 223.32 216.95 280.37 155.27 245.6 101 277.23 0 218.43 99.54 161.14 153.95 192.23 208.77 160.73"/><polygon class="cls-2" points="0 218.43 0 254.09 101.21 313.55 101.21 277.24 0 218.43"/><polygon class="cls-2" points="155.46 245.43 155.46 281.09 216.95 316.68 216.95 280.37 155.46 245.43"/><polygon class="cls-3" points="54.67 192.66 54.67 165.41 86.78 173.84 54.67 192.66"/><polygon class="cls-3" points="54.67 137.29 54.67 110.05 86.78 118.47 54.67 137.29"/><polygon class="cls-4" points="22.57 67.24 54.69 48.42 140.51 97.97 108.39 116.78 22.57 67.24"/><polygon class="cls-4" points="109.95 224.57 142.06 205.75 86.78 173.84 54.67 192.66 109.95 224.57"/><polygon class="cls-4" points="54.67 137.23 104.51 166.01 136.62 147.19 86.53 118.72 54.67 137.23"/><path class="cls-3" d="M1368.9,1710.24l32.11-18.82v-29.5l-32.11,18.82S1368.71,1710.43,1368.9,1710.24Z" transform="translate(-1260.5 -1563.95)"/><path class="cls-3" d="M1368.9,1710.24l97.65-57v-29.5l-97.65,57S1368.71,1710.43,1368.9,1710.24Z" transform="translate(-1260.5 -1563.95)"/><polygon class="cls-3" points="136.62 147.19 104.51 166.01 104.51 194.19 136.62 175.37 136.62 147.19"/><polygon class="cls-3" points="109.95 224.57 142.06 205.75 142.06 237.04 109.95 255.86 109.95 224.57"/><path class="cls-5" d="M1283.08,1631.19l85.82,49.55v29.5l-53.73-31v22L1365,1730v28.18l-49.84-28.77v27.24l55.28,31.92v31.29l-87.37-50.45Z" transform="translate(-1260.5 -1563.95)"/><polygon class="cls-3" points="271.09 197.55 238.22 216.42 238.22 165.29 271.09 146.43 271.09 197.55"/><polygon class="cls-3" points="271.09 119.04 238.22 137.3 238.22 106.26 271.09 88 271.09 119.04"/><polygon class="cls-6" points="205.98 59.99 205.97 60 205.98 60.02 205.98 59.99"/><path class="cls-6" d="M1543.16,1745.07Z" transform="translate(-1260.5 -1563.95)"/><path class="cls-3" d="M1587,1698.36q0-20.31-8.64-36.3t-26-26l-53.1-30.66,0,0-32.68,18.18,53.16,30.64q17.42,10.05,26.08,26.1t8.67,36.42q0,20.73-9.26,27.15l32.59-18.3,0,0C1583.93,1721.29,1587,1712.08,1587,1698.36Z" transform="translate(-1260.5 -1563.95)"/><path class="cls-7" d="M1587,1698.36q0-20.31-8.64-36.3t-26-26l-53.1-30.66,0,0-32.68,18.18,53.16,30.64q17.42,10.05,26.08,26.1t8.67,36.42q0,20.73-9.26,27.15l32.59-18.3,0,0C1583.93,1721.29,1587,1712.08,1587,1698.36Z" transform="translate(-1260.5 -1563.95)"/><polygon class="cls-4" points="236.4 137.91 251 146.43 264.4 147.04 269.26 136.69 260.3 124.85 236.4 137.91"/><path class="cls-5" d="M1466.49,1623.46l53.28,30.77q17.42,10.05,26.08,26.1t8.67,36.42q0,20.94-9.45,27.29t-28.84-4.86l-17.55-10.13v51.33l-32.19-18.59Zm32.19,77.57,7.86,4.53q9.27,5.36,13,3.22c2.5-1.41,3.75-4.36,3.75-8.82a28.27,28.27,0,0,0-3.25-12.92q-3.25-6.4-12.25-11.6l-9.13-5.27Z" transform="translate(-1260.5 -1563.95)"/><polygon class="cls-4" points="112.22 81.77 213.13 25.59 238.79 41.45 140.51 97.97 112.22 81.77"/><polygon class="cls-3" points="101.21 313.55 155.27 282.64 155.27 245.6 101 277.23 101.21 313.55"/><polygon class="cls-3" points="316.36 223.32 316.36 259.95 216.95 316.68 216.95 280.37 316.36 223.32"/><polygon class="cls-3" points="166.04 83.82 236.18 41.77 236.18 16.36 165.09 58.36 166.04 83.82"/><polyline class="cls-2" points="166.22 81.86 166.22 58.09 135.13 40.09 135.13 65.5 165.27 83.55"/><polygon class="cls-4" points="135.13 40.09 205.09 0 236.18 16.36 165.09 58.36 135.13 40.09"/></svg>