<svg id="Capa_1" data-name="Capa 1" xmlns="http://www.w3.org/2000/svg" xmlns:xlink="http://www.w3.org/1999/xlink" viewBox="0 0 370.22 487.05"><defs><style>.cls-1{opacity:0.14;}.cls-2{fill:#502e3f;}.cls-3{fill:#17283a;}.cls-4{fill:#f37377;}.cls-5{fill:#5ac7a8;}.cls-6{fill:#e2e1cf;}.cls-7{fill:url(#Degradado_sin_nombre_10);}.cls-8{fill:url(#Degradado_sin_nombre_5);}.cls-9{fill:url(#Degradado_sin_nombre_13);}.cls-10{fill:#41a586;}.cls-11{fill:url(#Degradado_sin_nombre_10-2);}</style><linearGradient id="Degradado_sin_nombre_10" x1="411.02" y1="1684.16" x2="411.33" y2="1841.59" gradientUnits="userSpaceOnUse"><stop offset="0" stop-color="#502e3f"/><stop offset="0.28" stop-color="#4d2e3f"/><stop offset="0.46" stop-color="#442d3e"/><stop offset="0.62" stop-color="#352b3d"/><stop offset="0.76" stop-color="#20293b"/><stop offset="0.81" stop-color="#17283a"/></linearGradient><linearGradient id="Degradado_sin_nombre_5" x1="463.39" y1="1851.17" x2="510.74" y2="1851.17" gradientUnits="userSpaceOnUse"><stop offset="0.19" stop-color="#17283a"/><stop offset="0.47" stop-color="#2b2a3c"/><stop offset="0.9" stop-color="#502e3f"/></linearGradient><linearGradient id="Degradado_sin_nombre_13" x1="440.27" y1="1901.86" x2="599.39" y2="1901.86" gradientUnits="userSpaceOnUse"><stop offset="0.02" stop-color="#562b3e"/><stop offset="0.06" stop-color="#472a3d"/><stop offset="0.12" stop-color="#32293c"/><stop offset="0.18" stop-color="#23293b"/><stop offset="0.26" stop-color="#1a283a"/><stop offset="0.38" stop-color="#17283a"/><stop offset="0.42" stop-color="#20293b"/><stop offset="0.53" stop-color="#352b3d"/><stop offset="0.65" stop-color="#442d3e"/><stop offset="0.79" stop-color="#4d2e3f"/><stop offset="1" stop-color="#502e3f"/></linearGradient><linearGradient id="Degradado_sin_nombre_10-2" x1="494.12" y1="1909.9" x2="599.39" y2="1909.9" xlink:href="#Degradado_sin_nombre_10"/></defs><polygon class="cls-1" points="369.9 425.35 270.82 368.07 359.14 316.49 271.77 265.91 271.46 266.09 271.15 265.91 270.84 266.09 270.53 265.91 270.22 266.09 269.91 265.91 269.6 266.09 269.28 265.91 268.97 266.09 268.66 265.91 268.35 266.09 268.04 265.91 267.73 266.09 267.42 265.91 267.11 266.09 266.8 265.91 266.48 266.09 266.17 265.91 265.86 266.09 265.55 265.91 265.24 266.09 264.93 265.91 264.62 266.09 264.31 265.91 264 266.09 263.69 265.91 263.37 266.09 263.06 265.91 262.75 266.09 262.44 265.91 262.13 266.09 261.82 265.91 261.51 266.09 261.2 265.91 260.88 266.09 260.57 265.91 260.26 266.09 259.95 265.91 259.64 266.09 259.33 265.91 259.02 266.09 258.71 265.91 258.4 266.09 258.09 265.91 257.77 266.09 257.46 265.91 257.15 266.09 256.84 265.91 256.53 266.09 256.22 265.91 255.91 266.09 255.6 265.91 255.29 266.09 254.98 265.91 254.66 266.09 254.35 265.91 254.04 266.09 253.73 265.91 253.42 266.09 253.11 265.91 252.8 266.09 252.49 265.91 252.18 266.09 251.87 265.91 251.55 266.09 251.24 265.91 250.93 266.09 250.62 265.91 250.31 266.09 250 265.91 249.69 266.09 249.38 265.91 249.07 266.09 248.75 265.91 248.44 266.09 248.13 265.91 247.82 266.09 247.51 265.91 247.2 266.09 246.89 265.91 246.58 266.09 246.27 265.91 245.96 266.09 245.65 265.91 245.33 266.09 245.02 265.91 244.71 266.09 244.4 265.91 244.09 266.09 243.78 265.91 243.47 266.09 243.16 265.91 242.84 266.09 242.53 265.91 242.22 266.09 241.91 265.91 241.6 266.09 241.29 265.91 240.98 266.09 240.67 265.91 240.36 266.09 240.05 265.91 239.73 266.09 239.42 265.91 239.11 266.09 238.8 265.91 238.49 266.09 238.18 265.91 237.87 266.09 237.56 265.91 237.25 266.09 236.94 265.91 236.62 266.09 236.31 265.91 236 266.09 235.69 265.91 235.38 266.09 235.07 265.91 234.76 266.09 234.45 265.91 234.14 266.09 233.82 265.91 233.51 266.09 233.2 265.91 232.89 266.09 232.58 265.91 232.27 266.09 231.96 265.91 231.65 266.09 231.34 265.91 231.03 266.09 230.72 265.91 230.4 266.09 230.09 265.91 229.78 266.09 229.47 265.91 229.16 266.09 228.85 265.91 228.54 266.09 228.23 265.91 227.91 266.09 227.6 265.91 227.29 266.09 226.98 265.91 226.67 266.09 226.36 265.91 226.05 266.09 225.74 265.91 225.43 266.09 225.12 265.91 224.8 266.09 224.49 265.91 224.18 266.09 223.87 265.91 223.56 266.09 223.25 265.91 222.94 266.09 222.63 265.91 222.32 266.09 222.01 265.91 221.69 266.09 221.38 265.91 221.07 266.09 220.76 265.91 220.45 266.09 220.14 265.91 219.83 266.09 219.52 265.91 219.21 266.09 218.9 265.91 218.58 266.09 218.27 265.91 217.96 266.09 217.65 265.91 217.34 266.09 217.03 265.91 216.72 266.09 216.41 265.91 216.09 266.09 215.78 265.91 215.47 266.09 215.16 265.91 214.85 266.09 214.54 265.91 214.23 266.09 213.92 265.91 213.61 266.09 213.3 265.91 212.99 266.09 212.67 265.91 212.36 266.09 212.05 265.91 211.74 266.09 211.43 265.91 211.12 266.09 210.81 265.91 210.5 266.09 210.19 265.91 209.87 266.09 209.56 265.91 209.25 266.09 208.94 265.91 208.63 266.09 208.32 265.91 208.01 266.09 207.7 265.91 207.39 266.09 207.08 265.91 206.76 266.09 206.45 265.91 206.14 266.09 205.83 265.91 205.52 266.09 205.21 265.91 204.9 266.09 204.59 265.91 204.28 266.09 203.97 265.91 203.65 266.09 203.34 265.91 203.03 266.09 202.72 265.91 202.41 266.09 202.1 265.91 201.79 266.09 201.48 265.91 201.16 266.09 200.85 265.91 200.54 266.09 200.23 265.91 199.92 266.09 199.61 265.91 199.3 266.09 198.99 265.91 198.68 266.09 198.37 265.91 198.06 266.09 197.74 265.91 197.43 266.09 197.12 265.91 196.81 266.09 196.5 265.91 107.54 317.19 107.45 317.14 0 379.19 187.99 487.05 188.3 486.87 188.61 487.05 188.92 486.87 189.23 487.05 189.54 486.87 189.85 487.05 190.16 486.87 190.48 487.05 190.79 486.87 191.1 487.05 191.41 486.87 191.72 487.05 192.03 486.87 192.34 487.05 192.65 486.87 192.97 487.05 193.28 486.87 193.59 487.05 193.9 486.87 194.21 487.05 194.52 486.87 194.83 487.05 195.14 486.87 195.45 487.05 195.76 486.87 196.08 487.05 196.39 486.87 196.7 487.05 197.01 486.87 197.32 487.05 197.63 486.87 197.94 487.05 198.25 486.87 198.56 487.05 198.87 486.87 199.19 487.05 199.5 486.87 199.81 487.05 200.12 486.87 200.43 487.05 200.74 486.87 201.05 487.05 201.36 486.87 201.68 487.05 201.98 486.87 202.3 487.05 202.61 486.87 202.92 487.05 203.23 486.87 203.54 487.05 203.85 486.87 204.16 487.05 204.47 486.87 204.78 487.05 205.09 486.87 205.41 487.05 205.72 486.87 206.03 487.05 206.34 486.87 206.65 487.05 206.96 486.87 207.27 487.05 207.58 486.87 207.9 487.05 208.21 486.87 208.52 487.05 208.83 486.87 209.14 487.05 209.45 486.87 209.76 487.05 210.07 486.87 210.38 487.05 210.69 486.87 211.01 487.05 211.32 486.87 211.63 487.05 211.94 486.87 212.25 487.05 212.56 486.87 212.87 487.05 213.18 486.87 213.49 487.05 213.8 486.87 214.12 487.05 214.43 486.87 214.74 487.05 215.05 486.87 215.36 487.05 215.67 486.87 215.98 487.05 216.29 486.87 216.6 487.05 216.91 486.87 217.23 487.05 217.54 486.87 217.85 487.05 218.16 486.87 218.47 487.05 218.78 486.87 219.09 487.05 219.4 486.87 219.72 487.05 220.03 486.87 220.34 487.05 220.65 486.87 220.96 487.05 221.27 486.87 221.58 487.05 221.89 486.87 222.2 487.05 222.51 486.87 222.83 487.05 223.13 486.87 223.45 487.05 223.76 486.87 224.07 487.05 224.38 486.87 224.69 487.05 225 486.87 225.31 487.05 225.62 486.87 225.94 487.05 226.25 486.87 226.56 487.05 226.87 486.87 227.18 487.05 227.49 486.87 227.8 487.05 228.11 486.87 228.42 487.05 228.73 486.87 229.05 487.05 229.36 486.87 229.67 487.05 229.98 486.87 230.29 487.05 230.6 486.87 230.91 487.05 231.22 486.87 231.53 487.05 231.84 486.87 232.16 487.05 232.47 486.87 232.78 487.05 233.09 486.87 233.4 487.05 233.71 486.87 234.02 487.05 234.33 486.87 234.65 487.05 234.96 486.87 235.27 487.05 235.58 486.87 235.89 487.05 236.2 486.87 236.51 487.05 236.82 486.87 237.13 487.05 237.44 486.87 237.76 487.05 238.06 486.87 238.38 487.05 238.69 486.87 239 487.05 239.31 486.87 239.62 487.05 239.93 486.87 240.24 487.05 240.55 486.87 240.87 487.05 241.18 486.87 241.49 487.05 241.8 486.87 242.11 487.05 242.42 486.87 242.73 487.05 243.04 486.87 243.35 487.05 243.66 486.87 243.98 487.05 244.29 486.87 244.6 487.05 244.91 486.87 245.22 487.05 245.53 486.87 245.84 487.05 246.15 486.87 246.47 487.05 246.78 486.87 247.09 487.05 247.4 486.87 247.71 487.05 248.02 486.87 248.33 487.05 248.64 486.87 248.95 487.05 249.26 486.87 249.57 487.05 249.88 486.87 250.2 487.05 250.51 486.87 250.82 487.05 251.13 486.87 251.44 487.05 251.75 486.87 252.06 487.05 252.37 486.87 252.69 487.05 253 486.87 253.31 487.05 253.62 486.87 253.93 487.05 254.24 486.87 254.55 487.05 254.86 486.87 255.17 487.05 255.48 486.87 255.8 487.05 256.11 486.87 256.42 487.05 256.73 486.87 257.04 487.05 257.35 486.87 257.66 487.05 257.97 486.87 258.29 487.05 258.59 486.87 258.91 487.05 259.22 486.87 259.53 487.05 259.84 486.87 260.15 487.05 260.46 486.87 260.77 487.05 261.08 486.87 261.39 487.05 261.7 486.87 262.02 487.05 262.33 486.87 262.64 487.05 262.95 486.87 263.26 487.05 369.9 425.35"/><polygon class="cls-2" points="236.26 210.11 236.26 355.42 330.93 300.36 330.93 156.38 236.26 210.11"/><polygon class="cls-3" points="333.19 186.12 287.94 273.77 315.79 341.41 359.1 316.61 340.16 278.52 333.19 186.12"/><path class="cls-2" d="M569.91,1829.91l24.76-14.16v79.34L569,1910.44S570.22,1829.59,569.91,1829.91Z" transform="translate(-275 -1522.27)"/><polygon class="cls-3" points="359.14 171.25 359.14 316.49 328.45 334.21 333.19 186.12 359.14 171.25"/><polygon class="cls-4" points="196.41 185.83 239.61 210.14 239.61 275.99 294.75 307.61 294.75 346.87 173.18 292.29 196.41 185.83"/><polygon class="cls-4" points="307.56 171.88 307.56 207.64 333.19 221.88 333.19 186.12 307.56 171.88"/><polygon class="cls-5" points="369.9 388.8 182.72 280.6 75.27 342.64 263.26 450.51 369.9 388.8"/><path class="cls-2" d="M503.19,1690.51l-31.82,17.59-.1-54.23,32.06,6.1S503,1690.66,503.19,1690.51Z" transform="translate(-275 -1522.27)"/><polygon class="cls-2" points="124.6 49.82 177.08 18.62 171.39 81.95 124.6 49.82"/><polygon class="cls-6" points="237.65 115.09 196.27 91.2 196.27 36.02 165.98 18.53 165.98 73.71 124.6 49.82 124.6 90.21 165.98 114.1 165.98 169.28 196.41 185.82 196.27 131.59 237.65 155.49 237.65 115.09"/><polygon class="cls-3" points="269.57 136.95 237.65 155.49 237.65 115.09 269.57 96.56 269.57 136.95"/><polygon class="cls-2" points="228.19 72.67 196.27 91.2 237.65 115.09 269.57 96.56 228.19 72.67"/><polygon class="cls-3" points="228.19 17.49 196.27 36.02 196.27 91.2 228.19 72.67 228.19 17.49"/><polygon class="cls-4" points="165.98 18.53 197.89 0 228.19 17.49 196.27 36.02 165.98 18.53"/><path class="cls-7" d="M452.6,1770.08l-11-.27v-44.52l2.62-1.52v-30.66l-29.77,17.19v0l-45.16-26.08V1800l34.41,19.88,4.08,21.7s44-8.51,45-8.91S452.6,1770.08,452.6,1770.08Z" transform="translate(-275 -1522.27)"/><polygon class="cls-4" points="139.49 188.02 166.64 203.02 196.41 185.83 169.26 170.83 139.49 188.02"/><path class="cls-3" d="M403.62,1846l-9.58-13.8.75-11.15a11.91,11.91,0,0,1-6.55,1.22l-.13-3.83-7.47-46v-44l-29.78,17.19v76.7a80.75,80.75,0,0,0,2.77,20.17,23.26,23.26,0,0,0,6.36,11.16c.53.52,1.07,1,1.61,1.42l.09.35,28.16,16.14-.58-17.8q5.43-2.52,10.27-5.3C400.94,1847.66,402.29,1846.82,403.62,1846Z" transform="translate(-275 -1522.27)"/><path class="cls-6" d="M441.64,1725.29l29.77-17.19v76.7a103.87,103.87,0,0,1-2.66,23.09,93.1,93.1,0,0,1-8.37,22.56,79.52,79.52,0,0,1-12,17.56,89.17,89.17,0,0,1-20.87,16.36,135.09,135.09,0,0,1-15.38,7.56q-8.34,3.49-13.94,2.83a17.58,17.58,0,0,1-10.24-5.2,23.28,23.28,0,0,1-6.35-11.16,80.29,80.29,0,0,1-2.77-20.17v-76.7l29.77-17.19v78.53q0,10.53,4.38,13.92t12.15-1.09a30.94,30.94,0,0,0,12.09-12.81,40.47,40.47,0,0,0,4.38-19.07Z" transform="translate(-275 -1522.27)"/><polygon class="cls-4" points="133.64 222.07 105.59 206.22 75.82 223.4 103.87 239.26 133.64 222.07"/><path class="cls-8" d="M507.07,1837.71s-12.85-7.08-16-5.25-24.39.79-26.75,11.8-1.05,29.12,13.64,25.44,21.51-2.62,25.7-5.77,7.08-12.06,7.08-12.06Z" transform="translate(-275 -1522.27)"/><polygon class="cls-3" points="234.11 360.12 234.11 322.35 260.43 304.95 260.43 342.72 234.11 360.12"/><path class="cls-9" d="M593.79,1878.18s-6.66,5.11-12.67,9.57a60.22,60.22,0,0,0-7.48-3.37c-1.06-6-4.52-12.74-4.67-13.37-.27-1-19.67-11.8-21-12.32-.63-.25-10.15,1.31-20.26,3.09a72.5,72.5,0,0,0-29.27-4.75,73.87,73.87,0,0,0-22.1,4.93c-17.28-3.28-36-7.21-36-7.21s-.2,40.7.14,40.79a14.54,14.54,0,0,0,1.27,4q3.33,6.93,12,11.91,13.13,7.59,30.06,7.59a81.65,81.65,0,0,0,10.35-.7V1939a94.74,94.74,0,0,0,38.71,9.9q20.52.85,45.24-13.42,14.08-8.13,18.65-16.18a17.43,17.43,0,0,0,2.41-9.11l.26-.2v-39.16Z" transform="translate(-275 -1522.27)"/><polygon class="cls-2" points="75.27 342.64 75.27 377.78 263.05 486.95 263.05 450.4 75.27 342.64"/><polygon class="cls-3" points="370.22 388.34 370.22 424 263.05 486.82 263.05 450.51 370.22 388.34"/><path class="cls-10" d="M582.56,1729.59l25.63,14.24-43,55.38-25.63-15.27S582.09,1729.12,582.56,1729.59Z" transform="translate(-275 -1522.27)"/><polygon class="cls-5" points="264.61 261.67 239.53 275.99 294.9 307.63 319.67 293.47 264.61 261.67"/><polygon class="cls-4" points="124.36 144.64 196.18 185.72 166.51 203.17 94.33 161.96 124.36 144.64"/><path class="cls-11" d="M593.79,1878.18s-6.66,5.11-12.67,9.57a60.22,60.22,0,0,0-7.48-3.37,52.22,52.22,0,0,0-3.58-10.85c-.41,4.84-1.76,9.71-5.53,12.39-7.6,5.38-26.9,15.5-35.45,15.5s-35-.18-35-.18V1939a94.74,94.74,0,0,0,38.71,9.9q20.52.85,45.24-13.42,14.08-8.13,18.65-16.18a17.43,17.43,0,0,0,2.41-9.11l.26-.2v-39.16Z" transform="translate(-275 -1522.27)"/><path class="cls-6" d="M494.12,1901.24l26.43-17.64a53.31,53.31,0,0,0,16,4.87q11.43,1.26,20-3.71,6.41-3.71,6.41-7.71t-4.58-6.65a22.43,22.43,0,0,0-11.1-2.59q-6.74-.07-21.82,5.11-24.83,8.41-41.69,8.38t-30.06-7.59q-8.62-5-12-11.91t1-14.49q4.31-7.55,19.44-16.29,18.58-10.73,36.31-11.75t37,8l-26.32,17.4q-8.69-3.72-15.72-3.62a27.1,27.1,0,0,0-13.38,3.76c-3.49,2-5.25,4-5.31,6s1.13,3.71,3.58,5.12a13.68,13.68,0,0,0,7,1.51q4.32.06,14.17-3.42,24.51-8.51,38-10.53a75.73,75.73,0,0,1,24.76,0,63.1,63.1,0,0,1,20.44,7.34q10.76,6.21,14.69,14.43a16.69,16.69,0,0,1-.63,16.28q-4.58,8.06-18.65,16.18-24.72,14.28-45.24,13.43A94.75,94.75,0,0,1,494.12,1901.24Z" transform="translate(-275 -1522.27)"/><polygon class="cls-5" points="359.14 171.25 333.19 186.12 307.56 171.88 239.84 211.12 196.39 185.8 290.26 131.69 359.14 171.25"/></svg>